<svg width="130" height="130" viewBox="0 0 130 130" fill="none" xmlns="http://www.w3.org/2000/svg">
<circle cx="65" cy="65" r="65" fill="black" fill-opacity="0.58"/>
<circle cx="65" cy="65" r="65" fill="black" fill-opacity="0.58"/>
<path d="M65.0493 81.0554C73.4547 81.0554 80.2686 78.016 80.2686 74.2667C80.2686 70.5175 73.4547 67.4781 65.0493 67.4781C56.6439 67.4781 49.83 70.5175 49.83 74.2667C49.83 78.016 56.6439 81.0554 65.0493 81.0554Z" fill="#359686"/>
<path d="M104.675 92.0717C101.607 81.1783 86.2062 82.3867 79.559 79.2584C72.9121 76.1301 73.9497 65.6341 73.1069 63.8079H56.8915C56.0501 65.6341 57.088 76.1315 50.4394 79.2584C43.7925 82.3867 28.3904 81.1786 25.3236 92.0717C23.6316 98.0801 23.712 99.9178 23.2451 106.573C23.2451 106.573 44.3769 110.955 64.5221 110.955C84.6672 110.955 106.755 106.573 106.755 106.573C106.286 99.9161 106.367 98.0804 104.675 92.0717Z" fill="#FF6464"/>
<path d="M70.9711 81.657C77.618 84.7853 93.0201 83.5772 96.087 94.4703C97.6985 100.192 97.7016 102.131 98.1022 108.052C103.395 107.24 106.754 106.573 106.754 106.573C106.287 99.9178 106.367 98.0804 104.675 92.0717C101.607 81.1783 86.2064 82.3867 79.5593 79.2584C72.9124 76.1301 73.95 65.6341 73.1072 63.8079H64.521C64.5221 63.8079 64.324 78.5301 70.9711 81.657Z" fill="#FF6464"/>
<path d="M76.6655 76.949C73.2261 72.6351 73.7981 65.3049 73.1086 63.8065H56.8915C56.2003 65.3049 56.774 72.6354 53.3346 76.949C54.9753 80.9968 63.7877 91.8302 65 91.8302C66.2107 91.8302 74.8885 81.3261 76.6655 76.949Z" fill="#E8C59E"/>
<path d="M54.7092 74.6557C57.4002 76.9521 60.5535 79.229 64.9829 79.8874C69.4231 79.2272 72.5687 76.9034 75.2627 74.5974C73.0219 70.2772 73.7147 65.1248 73.1083 63.8062H56.8912C56.282 65.1265 56.9608 70.334 54.7092 74.6557Z" fill="#C69E7F"/>
<path d="M52.3475 79.4417C52.3475 79.4417 55.8428 79.3248 61.9268 81.4478C68.0107 83.5709 76.5028 78.261 80.1544 77.2961C80.1544 77.2961 72.3645 90.2603 64.0906 89.9377C55.8164 89.6166 52.3475 79.4417 52.3475 79.4417Z" fill="#44ADA0"/>
<path d="M80.1541 77.2979C79.3809 77.5021 78.2319 77.9693 78.2209 77.9805C76.4423 79.6688 75.2638 80.9126 73.9554 82.2523C70.9072 82.4843 69.6096 83.1118 68.4606 83.6664C67.3919 84.182 66.4687 84.6281 64.1456 84.6298C63.762 84.6298 63.3413 84.6168 62.8961 84.5926C60.5114 84.4613 58.6632 82.8897 55.9892 79.8393C53.1529 79.2458 52.3486 79.4451 52.3486 79.4451C52.3486 79.4451 55.8175 89.6183 64.0914 89.9412C72.3642 90.262 80.1541 77.2979 80.1541 77.2979Z" fill="#3CA092"/>
<path d="M53.5692 73.2272C53.5692 73.2272 55.8503 84.8032 62.8656 85.1907C69.8809 85.5782 67.2579 82.8683 76.1456 82.7613L66.4844 93.3644C66.4844 93.3644 45.1979 89.3959 51.0174 71.9914L53.5692 73.2272Z" fill="#4EB7AD"/>
<path d="M66.4844 93.3644L76.1439 82.7598C75.0257 82.7728 74.9996 82.7486 74.203 82.8346C72.4756 84.0672 70.0289 85.9386 67.8065 87.5005C67.1725 87.134 66.5245 86.9621 65.7946 86.9621C65.1202 86.9621 64.4598 87.1095 63.7609 87.2653C62.9489 87.4471 62.1078 87.6335 61.107 87.6335C59.8606 87.6335 57.7911 86.0376 55.7035 83.4688C53.6916 80.9908 52.3629 78.4884 52.2407 77.5007C52.0877 76.2536 52.1403 75.8125 52.069 73.6213L51.0174 71.9931C45.1976 89.3976 66.4844 93.3644 66.4844 93.3644Z" fill="#44ADA0"/>
<path d="M76.7564 72.4764C76.7564 72.4764 78.8072 74.2296 78.9571 76.1919C79.1071 78.1542 70.5253 88.201 61.6389 91.5336L73.7405 99.0811C73.7405 99.0811 82.098 92.7904 81.7731 89.002C81.5752 86.6862 80.361 85.8316 80.361 85.8316C80.361 85.8316 86.9215 75.506 76.711 69.1179L76.7564 72.4764Z" fill="#4EB7AD"/>
<path d="M80.8733 86.3732C80.5949 85.9952 80.3629 85.8316 80.3629 85.8316C80.3629 85.8316 78.7128 88.1084 78.6292 89.9444C78.6278 89.9441 79.7119 87.51 80.8733 86.3732Z" fill="#44ADA0"/>
<path d="M80.1541 92.886C77.8326 92.8842 72.7615 91.209 70.3074 89.5825C68.8598 88.624 67.8222 88.2088 67.8222 88.2088C68.02 91.0015 74.3037 95.1954 76.6282 96.6548C77.8142 95.5717 79.1426 94.2369 80.1541 92.886Z" fill="#44ADA0"/>
<path d="M69.2417 89.4218C69.2417 89.4218 73.221 88.4973 76.1748 86.2854C76.1748 86.2854 73.6169 89.0115 70.1866 90.0462L69.2417 89.4218Z" fill="#44ADA0"/>
<path d="M79.0854 94.1881C79.0854 94.1881 71.3651 91.6986 68.739 88.9968C66.1129 86.2949 64.4119 88.233 61.1068 88.233C57.8016 88.233 51.9854 80.1163 51.6745 77.5766C51.4395 75.6613 51.5677 73.0293 54.3253 70.1376L53.917 66.2421C53.917 66.2421 49.8309 69.0654 48.4004 71.9588C46.9699 74.8519 47.7293 80.1388 46.993 82.3152C46.2553 84.4916 44.0081 84.4024 45.0303 87.714C46.0525 91.0255 54.9389 95.4173 56.4715 97.5611C58.0041 99.7035 63.6088 107.026 67.1395 106.31C70.6692 105.594 77.3224 103.593 79.0854 94.1881Z" fill="#56BEB7"/>
<path d="M77.6194 98.7614C77.935 98.1142 78.2195 97.4122 78.4652 96.6467C72.5172 96.3547 65.6815 92.9979 65.6815 92.9979C69.9516 96.5204 75.1356 98.1419 77.6194 98.7614Z" fill="#4EB7AD"/>
<path d="M50.9833 88.1667C46.9933 84.8664 47.2252 81.2257 47.2252 81.2257C47.171 81.6392 47.0967 82.0073 46.9933 82.3138C46.8587 82.7128 46.6716 83.0354 46.4644 83.3176C48.2306 86.9698 50.9833 88.1667 50.9833 88.1667Z" fill="#4EB7AD"/>
<path d="M65.0877 98.6593C64.9997 98.5961 64.8742 98.4988 64.7119 98.3852C64.6329 98.3234 64.5479 98.2522 64.4551 98.1777C64.4086 98.1405 64.3608 98.1015 64.3099 98.0609C64.2851 98.0415 64.2589 98.0219 64.2342 97.9991C64.2094 97.9763 64.1847 97.9538 64.1599 97.9293C64.0595 97.8352 63.9497 97.7411 63.8399 97.6358C63.7348 97.5239 63.6217 97.4119 63.5089 97.2905C63.2907 97.0374 63.0651 96.7619 62.8502 96.439C62.7404 96.2832 62.6306 96.1115 62.5191 95.9395C62.4077 95.7627 62.2919 95.5861 62.1697 95.3994C61.93 95.0312 61.6579 94.6486 61.3547 94.2854C61.1984 94.1071 61.0471 93.9204 60.8737 93.7533C60.7887 93.6673 60.7051 93.5831 60.62 93.4971L60.3479 93.2521L60.2103 93.1321C60.1638 93.0931 60.1176 93.0493 60.0741 93.017C59.9844 92.9471 59.8947 92.8759 59.805 92.8061L59.6705 92.7007L59.6025 92.6488L59.5684 92.6228L59.5637 92.6197C59.5654 92.6197 59.542 92.6035 59.5497 92.6084L59.5403 92.6021L59.5219 92.5891C59.4245 92.5227 59.3271 92.4561 59.2297 92.3897C59.1339 92.3216 59.0349 92.2633 58.9358 92.2033C58.8368 92.145 58.7393 92.0833 58.6419 92.0299C58.5445 91.9748 58.4471 91.9197 58.3511 91.866C58.2554 91.8141 58.1593 91.7639 58.0649 91.7137C57.6907 91.5157 57.3256 91.3276 57.0334 91.1461C56.953 91.0893 56.8724 91.0342 56.7951 90.9808L56.7657 90.9597C56.7549 90.9499 56.7764 90.9695 56.7734 90.9661L56.7703 90.9629L56.7643 90.958L56.7503 90.9467L56.6961 90.9046C56.6606 90.8769 56.6248 90.8495 56.5893 90.8218C56.518 90.7684 56.4501 90.7116 56.3835 90.6547C56.3169 90.5979 56.2506 90.5445 56.1887 90.4894C55.935 90.2704 55.7154 90.0531 55.5266 89.8538C55.3379 89.6544 55.1819 89.4677 55.0564 89.3104C54.9342 89.1515 54.8415 89.0219 54.7826 88.9293C54.7237 88.8367 54.6946 88.7865 54.6946 88.7865C54.6946 88.7865 54.7039 88.8448 54.7364 88.9535C54.7689 89.0606 54.8184 89.2196 54.9018 89.4126C54.9854 89.6056 55.0996 89.8341 55.2512 90.084C55.4028 90.3339 55.5899 90.6063 55.8172 90.8835C55.8714 90.9548 55.9333 91.0215 55.995 91.0927C56.0569 91.1626 56.1188 91.2356 56.1851 91.3036C56.2176 91.3394 56.2517 91.3735 56.2855 91.409L56.3364 91.4623L56.3488 91.4753L56.3549 91.4817L56.3579 91.4848C56.3562 91.4831 56.381 91.5042 56.3719 91.4978L56.3983 91.5221C56.4696 91.587 56.5406 91.6519 56.6149 91.72C56.9597 92.0005 57.3094 92.2261 57.6712 92.4578C57.8489 92.5712 58.0284 92.688 58.2111 92.8049C58.3024 92.8617 58.3888 92.9249 58.4771 92.9849C58.5652 93.0467 58.6565 93.1032 58.7415 93.1699C58.8282 93.2331 58.9149 93.298 59.0013 93.3612L59.0184 93.3724L59.023 93.3756L59.0247 93.3773L59.0572 93.405L59.1237 93.4584L59.2566 93.5655C59.3463 93.6367 59.4344 93.7083 59.5241 93.7796C59.5706 93.8153 59.6077 93.8508 59.6479 93.8883L59.7671 93.9971L60.0084 94.2095C60.0857 94.2874 60.1646 94.3636 60.242 94.4397C60.4013 94.5906 60.5466 94.7528 60.6951 94.9118C60.7708 94.9897 60.8374 95.0757 60.9087 95.1582C60.9783 95.241 61.0526 95.3186 61.1189 95.4046C61.1869 95.4888 61.2534 95.5734 61.3214 95.6576C61.388 95.7436 61.4543 95.8279 61.5209 95.9121C61.6538 96.0792 61.7823 96.2526 61.9152 96.4165C62.0514 96.5818 62.1782 96.7457 62.3188 96.8981C62.3884 96.9742 62.4517 97.0521 62.5247 97.1234C62.5959 97.1947 62.6653 97.2662 62.7349 97.3343C62.8028 97.4041 62.8755 97.4656 62.9467 97.5274C63.018 97.5891 63.0873 97.6491 63.1556 97.7057C63.2995 97.8144 63.4387 97.9117 63.5716 98.0057C63.7092 98.09 63.8407 98.1679 63.9645 98.2392C63.9954 98.2571 64.0264 98.2749 64.0559 98.2911C64.0867 98.3073 64.1178 98.3202 64.1472 98.335C64.2075 98.3627 64.2647 98.3901 64.3206 98.416C64.432 98.4662 64.5325 98.5164 64.6268 98.554C64.8156 98.6238 64.9672 98.674 65.0676 98.7098C65.1697 98.7438 65.2239 98.7617 65.2239 98.7617C65.2239 98.7617 65.1744 98.7259 65.0877 98.6593Z" fill="#4EB7AD"/>
<path d="M80.8478 52.5362C80.2725 55.8903 81.2162 58.8752 82.9554 59.2033C84.6947 59.5313 86.571 57.0781 87.1462 53.724C87.7214 50.3699 86.7778 47.385 85.0385 47.057C83.2993 46.729 81.423 49.1821 80.8478 52.5362Z" fill="#DDB58E"/>
<path d="M44.9134 47.0601C43.1741 47.3881 42.2305 50.3731 42.8057 53.7272C43.3809 57.0812 45.2572 59.5344 46.9965 59.2064C48.7357 58.8784 49.6794 55.8934 49.1041 52.5394C48.5289 49.1853 46.6526 46.7321 44.9134 47.0601Z" fill="#E8C59E"/>
<path d="M82.6536 32.5893L65.1392 35.249L47.1452 32.8455C47.1452 32.8455 45.6374 42.0296 45.6374 46.2445C45.6374 58.9931 47.8196 76.4383 64.9816 78.9875C92.5576 74.8926 82.6536 32.5893 82.6536 32.5893Z" fill="#E8C59E"/>
<path d="M64.9829 78.9875C92.5581 74.8926 82.6536 32.5893 82.6536 32.5893H78.5197C79.6517 50.2598 81.2184 59.6464 74.7184 69.8796C69.5684 77.9886 64.9829 78.9875 64.9829 78.9875Z" fill="#DDB58E"/>
<path d="M48.6451 36.0583C48.6451 36.0583 52.9909 40.2813 64.9194 40.2813C76.8479 40.2813 80.6802 37.3654 80.6802 37.3654V34.2582L48.6451 36.0583Z" fill="#DDB58E"/>
<path d="M84.9052 33.3193C84.3299 27.1614 78.6633 19.0446 64.9829 19.0446C51.3025 19.0446 45.6357 27.1614 45.0604 33.3193C45.0604 33.3193 44.1339 36.6002 44.796 47.0879C45.9899 46.9517 47.1653 47.2954 48.0051 47.6944L48.6979 35.1195H81.268L81.9608 47.6944C82.8006 47.2954 83.976 46.9517 85.1699 47.0879C85.8317 36.6017 84.9052 33.3193 84.9052 33.3193Z" fill="#917F77"/>
<path d="M69.6625 38.9936C76.7177 38.392 87.8529 36.475 86.1362 20.0077C86.1362 20.0077 84.4597 22.9219 81.1672 22.4533C76.6497 21.8096 72.9489 19.0492 65.4576 19.0492C58.2105 19.0492 44.8237 21.3326 45.2645 30.9106C45.6387 38.9936 61.4505 39.6959 69.6625 38.9936Z" fill="#4C3626"/>
<path d="M75.8347 46.9047C71.3282 46.8885 67.1586 48.416 64.9207 48.416C62.6829 48.416 58.5135 46.8868 54.0067 46.9047C50.0043 46.9194 46.2386 47.5954 45.0152 47.9443C44.8174 48.0011 44.6782 48.1892 44.6782 48.4048V50.411C44.6782 50.5991 44.7833 50.7693 44.9473 50.8455C45.1206 50.9248 45.3369 51.0529 45.4791 51.2365C45.7466 51.5818 46.2322 55.1222 47.7247 56.358C48.6896 57.1558 51.4302 57.8728 53.818 57.824C56.2044 57.7752 59.0082 57.6538 60.5546 56.4243C62.6903 54.728 62.9812 51.5931 63.5023 50.7823C63.92 50.1337 64.568 50.0315 64.9204 50.0315C65.2729 50.0315 65.9212 50.1319 66.3386 50.7823C66.8597 51.5931 67.1506 54.728 69.2863 56.4243C70.8343 57.6535 73.6368 57.7752 76.0229 57.824C78.4093 57.8728 81.1513 57.1575 82.1162 56.358C83.6087 55.1222 84.0943 51.5818 84.3618 51.2365C84.504 51.0532 84.7206 50.9251 84.8939 50.8455C85.0579 50.7693 85.163 50.5991 85.163 50.411V48.4048C85.163 48.1889 85.0254 48.0008 84.826 47.9443C83.6032 47.5954 79.8357 46.9191 75.8347 46.9047ZM61.5743 52.8173C61.2078 54.196 60.4671 55.2889 59.5684 55.8403C58.6574 56.3998 55.5597 56.7356 54.1138 56.7371C52.2116 56.7388 49.0721 56.1938 48.3652 55.5353C47.6584 54.8769 47.4388 53.6913 47.2811 52.6861C47.1235 51.6822 46.8219 49.9663 47.6292 49.1783C48.633 48.2005 52.9493 47.8727 54.0967 47.9281C56.4831 48.0432 61.0699 48.6027 61.7598 49.7721C62.1989 50.5096 61.8805 51.6661 61.5743 52.8173ZM82.5562 52.6843C82.3985 53.6881 82.179 54.8752 81.4721 55.5336C80.7652 56.192 77.6274 56.7368 75.7236 56.7354C74.279 56.7354 71.1799 56.3998 70.2689 55.8386C69.3702 55.2872 68.6295 54.1942 68.263 52.8156C67.9568 51.6641 67.6382 50.5079 68.0743 49.7684C68.7655 48.5992 73.3512 48.0395 75.7373 47.9244C76.8833 47.8692 81.1997 48.1967 82.2048 49.1746C83.0154 49.9649 82.7122 51.6805 82.5562 52.6843Z" fill="#3A3A38"/>
</svg>
