<svg width="294" height="38" viewBox="0 0 294 38" fill="none" xmlns="http://www.w3.org/2000/svg">
<rect width="294" height="38" rx="19" fill="black" fill-opacity="0.76"/>
<g filter="url(#filter0_d_10_2)">
<path d="M122.059 14H126.079V14.2H125.899C125.565 14.2 125.239 14.3067 124.919 14.52C124.599 14.72 124.345 15.0267 124.159 15.44L119.339 26.22C118.845 27.3 118.599 27.9867 118.599 28.28H118.419L112.799 15.46C112.612 15.0333 112.352 14.72 112.019 14.52C111.699 14.3067 111.372 14.2 111.039 14.2H110.879V14H115.379V14.2H115.199C114.919 14.2 114.705 14.2933 114.559 14.48C114.425 14.6533 114.359 14.82 114.359 14.98C114.359 15.1267 114.392 15.28 114.459 15.44L118.639 25.92L122.999 15.44C123.052 15.28 123.079 15.1267 123.079 14.98C123.079 14.82 123.005 14.6533 122.859 14.48C122.725 14.2933 122.519 14.2 122.239 14.2H122.059V14ZM127.323 27.8C127.67 27.8 127.963 27.68 128.203 27.44C128.457 27.1867 128.59 26.8867 128.603 26.54V15.34C128.603 15.02 128.477 14.7533 128.223 14.54C127.97 14.3133 127.67 14.2 127.323 14.2H127.083L127.063 14H132.923C133.337 14 133.783 13.96 134.263 13.88C134.757 13.8 135.103 13.72 135.303 13.64V16.16H135.103V15.8C135.103 15.48 134.99 15.2067 134.763 14.98C134.55 14.7533 134.29 14.6333 133.983 14.62H129.903V20.8H133.283C133.55 20.7867 133.777 20.6867 133.963 20.5C134.15 20.3133 134.243 20.08 134.243 19.8V19.52H134.443V22.68H134.243V22.38C134.243 22.1133 134.15 21.8867 133.963 21.7C133.79 21.5133 133.57 21.4133 133.303 21.4H129.903V27.38H132.763C133.75 27.38 134.503 27.16 135.023 26.72C135.543 26.28 135.977 25.6267 136.323 24.76H136.523L135.363 28H127.063V27.8H127.323ZM142.531 14.62H141.251V26.54C141.251 26.8867 141.371 27.1867 141.611 27.44C141.864 27.68 142.171 27.8 142.531 27.8H142.771L142.791 28H138.411V27.8H138.671C139.018 27.8 139.311 27.68 139.551 27.44C139.804 27.2 139.938 26.9067 139.951 26.56V15.46C139.938 15.1133 139.804 14.82 139.551 14.58C139.311 14.3267 139.018 14.2 138.671 14.2H138.411V14H143.811C145.024 14 145.978 14.34 146.671 15.02C147.364 15.6867 147.711 16.56 147.711 17.64C147.711 18.7067 147.378 19.6333 146.711 20.42C146.058 21.1933 145.258 21.58 144.311 21.58C144.511 21.6733 144.744 21.86 145.011 22.14C145.291 22.4067 145.538 22.6867 145.751 22.98C146.898 24.62 147.644 25.6333 147.991 26.02C148.338 26.3933 148.584 26.6533 148.731 26.8C148.878 26.9333 149.038 27.0667 149.211 27.2C149.384 27.3333 149.558 27.44 149.731 27.52C150.118 27.7067 150.531 27.8 150.971 27.8V28H149.871C149.298 28 148.764 27.9 148.271 27.7C147.778 27.4867 147.404 27.2733 147.151 27.06C146.911 26.8333 146.698 26.62 146.511 26.42C146.338 26.2067 145.844 25.5133 145.031 24.34C144.218 23.1667 143.744 22.5 143.611 22.34C143.478 22.1667 143.338 22 143.191 21.84C142.764 21.3867 142.338 21.16 141.911 21.16V20.96C142.018 20.9733 142.158 20.98 142.331 20.98C142.504 20.98 142.718 20.9733 142.971 20.96C144.624 20.92 145.664 20.2267 146.091 18.88C146.171 18.6133 146.211 18.3667 146.211 18.14C146.211 17.9 146.211 17.7467 146.211 17.68C146.184 16.7867 145.951 16.0667 145.511 15.52C145.071 14.9733 144.478 14.68 143.731 14.64C143.411 14.6267 143.011 14.62 142.531 14.62ZM151.601 27.8C151.947 27.8 152.241 27.68 152.481 27.44C152.734 27.1867 152.867 26.8867 152.881 26.54V15.44C152.867 15.0933 152.734 14.8 152.481 14.56C152.241 14.32 151.947 14.2 151.601 14.2H151.341V14H155.721V14.2H155.461C155.114 14.2 154.814 14.32 154.561 14.56C154.321 14.8 154.194 15.0933 154.181 15.44V26.54C154.181 26.8867 154.307 27.1867 154.561 27.44C154.814 27.68 155.114 27.8 155.461 27.8H155.721V28H151.341V27.8H151.601ZM166.338 14.22V15.9H166.138V15.6C166.138 15.3333 166.045 15.1067 165.858 14.92C165.672 14.72 165.438 14.62 165.158 14.62H160.938V20.8H164.318C164.585 20.7867 164.812 20.6867 164.998 20.5C165.185 20.3133 165.278 20.0867 165.278 19.82V19.52H165.478V22.68H165.278V22.38C165.278 22.1133 165.185 21.8867 164.998 21.7C164.825 21.5133 164.605 21.4133 164.338 21.4H160.938V26.54C160.938 26.8867 161.065 27.1867 161.318 27.44C161.572 27.68 161.872 27.8 162.218 27.8H162.478V28H158.098V27.8H158.358C158.705 27.8 158.998 27.68 159.238 27.44C159.492 27.1867 159.625 26.8867 159.638 26.54V15.34C159.638 15.02 159.505 14.7533 159.238 14.54C158.985 14.3133 158.692 14.2 158.358 14.2H158.118L158.098 14H163.958C164.372 14 164.818 13.96 165.298 13.88C165.792 13.8 166.138 13.72 166.338 13.64V14.22ZM181.179 14.2H180.899C180.499 14.2 180.119 14.3133 179.759 14.54C179.412 14.7533 179.119 15.0267 178.879 15.36L174.939 21.76V26.54C174.939 26.8867 175.059 27.1867 175.299 27.44C175.552 27.68 175.859 27.8 176.219 27.8H176.459V28H172.099V27.8H172.359C172.705 27.8 172.999 27.68 173.239 27.44C173.492 27.2 173.625 26.9067 173.639 26.56V21.74L169.819 15.36C169.619 15.04 169.332 14.7667 168.959 14.54C168.599 14.3133 168.219 14.2 167.819 14.2H167.539V14H172.459V14.2H172.199C171.905 14.2 171.679 14.3333 171.519 14.6C171.439 14.7467 171.399 14.8933 171.399 15.04C171.399 15.1733 171.432 15.3067 171.499 15.44L174.499 21.04L177.699 15.42C177.765 15.2867 177.799 15.1533 177.799 15.02C177.799 14.8867 177.752 14.7467 177.659 14.6C177.499 14.3333 177.272 14.2 176.979 14.2H176.739V14H181.179V14.2Z" fill="white" shape-rendering="crispEdges"/>
<path d="M122.059 14V13H121.059V14H122.059ZM126.079 14H127.079V13H126.079V14ZM126.079 14.2V15.2H127.079V14.2H126.079ZM124.919 14.52L125.449 15.368L125.461 15.3602L125.473 15.352L124.919 14.52ZM124.159 15.44L123.247 15.0284L123.246 15.0318L124.159 15.44ZM119.339 26.22L120.248 26.6355L120.251 26.6282L119.339 26.22ZM118.599 28.28V29.28H119.599V28.28H118.599ZM118.419 28.28L117.503 28.6815L117.765 29.28H118.419V28.28ZM112.799 15.46L111.882 15.8608L111.883 15.8615L112.799 15.46ZM112.019 14.52L111.464 15.352L111.484 15.3652L111.504 15.3775L112.019 14.52ZM110.879 14.2H109.879V15.2H110.879V14.2ZM110.879 14V13H109.879V14H110.879ZM115.379 14H116.379V13H115.379V14ZM115.379 14.2V15.2H116.379V14.2H115.379ZM114.559 14.48L113.772 13.8621L113.766 13.8703L114.559 14.48ZM114.459 15.44L115.387 15.0695L115.385 15.0624L115.382 15.0554L114.459 15.44ZM118.639 25.92L117.71 26.2905L118.619 28.5703L119.562 26.3041L118.639 25.92ZM122.999 15.44L123.922 15.8241L123.936 15.7906L123.947 15.7562L122.999 15.44ZM122.859 14.48L122.045 15.0612L122.069 15.0946L122.095 15.1259L122.859 14.48ZM122.059 14.2H121.059V15.2H122.059V14.2ZM122.059 15H126.079V13H122.059V15ZM125.079 14V14.2H127.079V14H125.079ZM126.079 13.2H125.899V15.2H126.079V13.2ZM125.899 13.2C125.339 13.2 124.822 13.3824 124.364 13.6879L125.473 15.352C125.655 15.2309 125.792 15.2 125.899 15.2V13.2ZM124.389 13.672C123.87 13.9962 123.499 14.472 123.247 15.0284L125.07 15.8516C125.192 15.5813 125.327 15.4438 125.449 15.368L124.389 13.672ZM123.246 15.0318L118.426 25.8118L120.251 26.6282L125.071 15.8482L123.246 15.0318ZM118.429 25.8045C118.177 26.3563 117.979 26.8263 117.842 27.2069C117.721 27.5443 117.599 27.9392 117.599 28.28H119.599C119.599 28.3275 119.599 28.2324 119.725 27.8831C119.835 27.577 120.007 27.1637 120.248 26.6355L118.429 25.8045ZM118.599 27.28H118.419V29.28H118.599V27.28ZM119.334 27.8785L113.714 15.0585L111.883 15.8615L117.503 28.6815L119.334 27.8785ZM113.715 15.0592C113.462 14.4808 113.077 13.9891 112.533 13.6625L111.504 15.3775C111.626 15.4509 111.762 15.5859 111.882 15.8608L113.715 15.0592ZM112.573 13.6879C112.115 13.3824 111.598 13.2 111.039 13.2V15.2C111.145 15.2 111.282 15.2309 111.464 15.352L112.573 13.6879ZM111.039 13.2H110.879V15.2H111.039V13.2ZM111.879 14.2V14H109.879V14.2H111.879ZM110.879 15H115.379V13H110.879V15ZM114.379 14V14.2H116.379V14H114.379ZM115.379 13.2H115.199V15.2H115.379V13.2ZM115.199 13.2C114.673 13.2 114.144 13.3895 113.772 13.8622L115.345 15.0978C115.333 15.1125 115.317 15.1299 115.295 15.1469C115.273 15.1639 115.25 15.1769 115.229 15.1862C115.187 15.2048 115.169 15.2 115.199 15.2V13.2ZM113.766 13.8703C113.547 14.1551 113.359 14.5311 113.359 14.98H115.359C115.359 15.0418 115.345 15.086 115.337 15.1064C115.33 15.1245 115.329 15.1188 115.351 15.0897L113.766 13.8703ZM113.359 14.98C113.359 15.2804 113.427 15.5645 113.536 15.8246L115.382 15.0554C115.357 14.9955 115.359 14.9729 115.359 14.98H113.359ZM113.53 15.8105L117.71 26.2905L119.567 25.5495L115.387 15.0695L113.53 15.8105ZM119.562 26.3041L123.922 15.8241L122.075 15.0559L117.715 25.5359L119.562 26.3041ZM123.947 15.7562C124.03 15.5093 124.079 15.2489 124.079 14.98H122.079C122.079 15.0044 122.074 15.0507 122.05 15.1238L123.947 15.7562ZM124.079 14.98C124.079 14.5013 123.858 14.1134 123.622 13.8341L122.095 15.1259C122.121 15.1565 122.118 15.1609 122.108 15.1377C122.097 15.1116 122.079 15.0566 122.079 14.98H124.079ZM123.672 13.8988C123.309 13.3901 122.761 13.2 122.239 13.2V15.2C122.269 15.2 122.245 15.2051 122.192 15.1814C122.133 15.1545 122.08 15.1098 122.045 15.0612L123.672 13.8988ZM122.239 13.2H122.059V15.2H122.239V13.2ZM123.059 14.2V14H121.059V14.2H123.059ZM128.203 27.44L127.496 26.7329L128.203 27.44ZM128.603 26.54L129.603 26.5784L129.603 26.5592V26.54H128.603ZM128.223 14.54L127.556 15.2852L127.568 15.2952L127.579 15.3049L128.223 14.54ZM127.083 14.2L126.088 14.2995L126.178 15.2H127.083V14.2ZM127.063 14V13H125.958L126.068 14.0995L127.063 14ZM134.263 13.88L134.103 12.8929L134.099 12.8936L134.263 13.88ZM135.303 13.64H136.303V12.163L134.932 12.7115L135.303 13.64ZM135.303 16.16V17.16H136.303V16.16H135.303ZM135.103 16.16H134.103V17.16H135.103V16.16ZM134.763 14.98L134.035 15.6654L134.045 15.6764L134.056 15.6871L134.763 14.98ZM133.983 14.62L134.027 13.6209L134.005 13.62H133.983V14.62ZM129.903 14.62V13.62H128.903V14.62H129.903ZM129.903 20.8H128.903V21.8H129.903V20.8ZM133.283 20.8V21.8H133.308L133.333 21.7988L133.283 20.8ZM134.243 19.52V18.52H133.243V19.52H134.243ZM134.443 19.52H135.443V18.52H134.443V19.52ZM134.443 22.68V23.68H135.443V22.68H134.443ZM134.243 22.68H133.243V23.68H134.243V22.68ZM133.963 21.7L133.23 22.3805L133.243 22.394L133.256 22.4071L133.963 21.7ZM133.303 21.4L133.353 20.4012L133.328 20.4H133.303V21.4ZM129.903 21.4V20.4H128.903V21.4H129.903ZM129.903 27.38H128.903V28.38H129.903V27.38ZM135.023 26.72L135.669 27.4834V27.4834L135.023 26.72ZM136.323 24.76V23.76H135.646L135.395 24.3886L136.323 24.76ZM136.523 24.76L137.465 25.0971L137.943 23.76H136.523V24.76ZM135.363 28V29H136.067L136.305 28.3371L135.363 28ZM127.063 28H126.063V29H127.063V28ZM127.063 27.8V26.8H126.063V27.8H127.063ZM127.323 28.8C127.929 28.8 128.478 28.5791 128.91 28.1471L127.496 26.7329C127.448 26.7809 127.411 26.8 127.323 26.8V28.8ZM128.91 28.1471C129.335 27.7221 129.579 27.1858 129.603 26.5784L127.604 26.5016C127.601 26.5876 127.578 26.6513 127.496 26.7329L128.91 28.1471ZM129.603 26.54V15.34H127.603V26.54H129.603ZM129.603 15.34C129.603 14.7134 129.337 14.1708 128.867 13.7751L127.579 15.3049C127.595 15.3185 127.603 15.3274 127.605 15.3307C127.608 15.3337 127.607 15.333 127.605 15.3291C127.604 15.3273 127.603 15.3255 127.603 15.3238C127.603 15.323 127.602 15.3223 127.602 15.3218C127.602 15.3216 127.602 15.3214 127.602 15.3212C127.602 15.3212 127.602 15.3211 127.602 15.3211C127.602 15.3211 127.602 15.321 127.602 15.321C127.602 15.321 127.602 15.3211 127.602 15.3211C127.602 15.3211 127.602 15.3212 127.602 15.3213C127.602 15.3214 127.602 15.3217 127.602 15.322C127.602 15.3227 127.602 15.3237 127.603 15.3252C127.603 15.3282 127.603 15.333 127.603 15.34H129.603ZM128.89 13.7948C128.449 13.4005 127.911 13.2 127.323 13.2V15.2C127.429 15.2 127.49 15.2262 127.556 15.2852L128.89 13.7948ZM127.323 13.2H127.083V15.2H127.323V13.2ZM128.078 14.1005L128.058 13.9005L126.068 14.0995L126.088 14.2995L128.078 14.1005ZM127.063 15H132.923V13H127.063V15ZM132.923 15C133.4 15 133.903 14.9539 134.428 14.8664L134.099 12.8936C133.664 12.9661 133.273 13 132.923 13V15ZM134.423 14.8671C134.92 14.7866 135.363 14.6932 135.675 14.5685L134.932 12.7115C134.844 12.7468 134.594 12.8134 134.103 12.8929L134.423 14.8671ZM134.303 13.64V16.16H136.303V13.64H134.303ZM135.303 15.16H135.103V17.16H135.303V15.16ZM136.103 16.16V15.8H134.103V16.16H136.103ZM136.103 15.8C136.103 15.2143 135.884 14.6867 135.47 14.2729L134.056 15.6871C134.085 15.7155 134.092 15.7323 134.095 15.738C134.097 15.7437 134.103 15.7606 134.103 15.8H136.103ZM135.491 14.2946C135.102 13.8811 134.598 13.6458 134.027 13.6209L133.94 15.6191C133.973 15.6205 133.986 15.6263 133.989 15.628C133.993 15.6297 134.009 15.6372 134.035 15.6654L135.491 14.2946ZM133.983 13.62H129.903V15.62H133.983V13.62ZM128.903 14.62V20.8H130.903V14.62H128.903ZM129.903 21.8H133.283V19.8H129.903V21.8ZM133.333 21.7988C133.844 21.7732 134.306 21.5713 134.67 21.2071L133.256 19.7929C133.25 19.7994 133.246 19.8019 133.246 19.802C133.246 19.8021 133.247 19.8012 133.25 19.8001C133.252 19.799 133.253 19.7988 133.252 19.7991C133.25 19.7995 133.245 19.8007 133.233 19.8012L133.333 21.7988ZM134.67 21.2071C135.057 20.8206 135.243 20.3274 135.243 19.8H133.243C133.243 19.8144 133.242 19.8213 133.242 19.8224C133.242 19.8232 133.242 19.8197 133.245 19.8136C133.247 19.8074 133.25 19.8014 133.254 19.7965C133.257 19.7918 133.258 19.7907 133.256 19.7929L134.67 21.2071ZM135.243 19.8V19.52H133.243V19.8H135.243ZM134.243 20.52H134.443V18.52H134.243V20.52ZM133.443 19.52V22.68H135.443V19.52H133.443ZM134.443 21.68H134.243V23.68H134.443V21.68ZM135.243 22.68V22.38H133.243V22.68H135.243ZM135.243 22.38C135.243 21.8511 135.047 21.3692 134.67 20.9929L133.256 22.4071C133.261 22.4115 133.26 22.4121 133.258 22.4083C133.255 22.4045 133.252 22.3984 133.249 22.3907C133.245 22.3831 133.244 22.3769 133.243 22.3734C133.243 22.3701 133.243 22.3719 133.243 22.38H135.243ZM134.696 21.0195C134.336 20.6319 133.866 20.4269 133.353 20.4012L133.253 22.3988C133.264 22.3993 133.269 22.4004 133.268 22.4002C133.266 22.3999 133.262 22.3986 133.254 22.3954C133.247 22.3921 133.241 22.3882 133.236 22.3844C133.23 22.3807 133.229 22.3787 133.23 22.3805L134.696 21.0195ZM133.303 20.4H129.903V22.4H133.303V20.4ZM128.903 21.4V27.38H130.903V21.4H128.903ZM129.903 28.38H132.763V26.38H129.903V28.38ZM132.763 28.38C133.883 28.38 134.903 28.132 135.669 27.4834L134.377 25.9566C134.104 26.188 133.617 26.38 132.763 26.38V28.38ZM135.669 27.4834C136.352 26.906 136.866 26.0964 137.252 25.1314L135.395 24.3886C135.087 25.1569 134.735 25.654 134.377 25.9566L135.669 27.4834ZM136.323 25.76H136.523V23.76H136.323V25.76ZM135.582 24.4229L134.422 27.6629L136.305 28.3371L137.465 25.0971L135.582 24.4229ZM135.363 27H127.063V29H135.363V27ZM128.063 28V27.8H126.063V28H128.063ZM127.063 28.8H127.323V26.8H127.063V28.8ZM141.251 14.62V13.62H140.251V14.62H141.251ZM141.611 27.44L140.885 28.1277L140.904 28.1474L140.923 28.166L141.611 27.44ZM142.771 27.8L143.766 27.7005L143.676 26.8H142.771V27.8ZM142.791 28V29H143.896L143.786 27.9005L142.791 28ZM138.411 28H137.411V29H138.411V28ZM138.411 27.8V26.8H137.411V27.8H138.411ZM139.551 27.44L138.863 26.714L138.853 26.7233L138.844 26.7329L139.551 27.44ZM139.951 26.56L140.95 26.5984L140.951 26.5792V26.56H139.951ZM139.951 15.46H140.951V15.4408L140.95 15.4216L139.951 15.46ZM139.551 14.58L138.825 15.2677L138.844 15.2874L138.863 15.306L139.551 14.58ZM138.411 14.2H137.411V15.2H138.411V14.2ZM138.411 14V13H137.411V14H138.411ZM146.671 15.02L145.971 15.734L145.978 15.7408L146.671 15.02ZM146.711 20.42L145.948 19.7735L145.947 19.7746L146.711 20.42ZM144.311 21.58V20.58L143.888 22.4862L144.311 21.58ZM145.011 22.14L144.287 22.8297L144.304 22.8473L144.321 22.8641L145.011 22.14ZM145.751 22.98L146.57 22.407L146.565 22.3994L146.56 22.3918L145.751 22.98ZM147.991 26.02L147.246 26.6875L147.252 26.694L147.258 26.7005L147.991 26.02ZM148.731 26.8L148.024 27.5071L148.041 27.5239L148.058 27.5399L148.731 26.8ZM149.211 27.2L149.821 26.4074L149.211 27.2ZM149.731 27.52L150.166 26.6194L150.158 26.6157L150.15 26.612L149.731 27.52ZM150.971 27.8H151.971V26.8H150.971V27.8ZM150.971 28V29H151.971V28H150.971ZM148.271 27.7L147.874 28.6179L147.885 28.6224L147.895 28.6267L148.271 27.7ZM147.151 27.06L146.464 27.787L146.485 27.8066L146.507 27.8249L147.151 27.06ZM146.511 26.42L145.735 27.0506L145.756 27.0772L145.78 27.1023L146.511 26.42ZM145.031 24.34L145.853 23.7703V23.7703L145.031 24.34ZM143.611 22.34L142.818 22.9497L142.83 22.9652L142.843 22.9802L143.611 22.34ZM143.191 21.84L143.928 21.1642L143.919 21.1546L143.191 21.84ZM141.911 21.16H140.911V22.16H141.911V21.16ZM141.911 20.96L142.035 19.9677L140.911 19.8272V20.96H141.911ZM142.971 20.96L142.947 19.9603L142.933 19.9606L142.918 19.9614L142.971 20.96ZM146.091 18.88L147.044 19.182L147.047 19.1747L147.049 19.1673L146.091 18.88ZM146.211 17.68H147.211V17.6651L147.21 17.6502L146.211 17.68ZM143.731 14.64L143.784 13.6414L143.773 13.6409L143.731 14.64ZM142.531 13.62H141.251V15.62H142.531V13.62ZM140.251 14.62V26.54H142.251V14.62H140.251ZM140.251 26.54C140.251 27.1444 140.47 27.69 140.885 28.1277L142.337 26.7523C142.272 26.6833 142.251 26.6289 142.251 26.54H140.251ZM140.923 28.166C141.369 28.588 141.924 28.8 142.531 28.8V26.8C142.418 26.8 142.36 26.772 142.299 26.714L140.923 28.166ZM142.531 28.8H142.771V26.8H142.531V28.8ZM141.776 27.8995L141.796 28.0995L143.786 27.9005L143.766 27.7005L141.776 27.8995ZM142.791 27H138.411V29H142.791V27ZM139.411 28V27.8H137.411V28H139.411ZM138.411 28.8H138.671V26.8H138.411V28.8ZM138.671 28.8C139.276 28.8 139.826 28.5791 140.258 28.1471L138.844 26.7329C138.796 26.7809 138.759 26.8 138.671 26.8V28.8ZM140.239 28.166C140.68 27.7475 140.927 27.2079 140.95 26.5984L138.952 26.5216C138.948 26.6054 138.928 26.6525 138.863 26.714L140.239 28.166ZM140.951 26.56V15.46H138.951V26.56H140.951ZM140.95 15.4216C140.927 14.8121 140.68 14.2725 140.239 13.854L138.863 15.306C138.928 15.3675 138.948 15.4146 138.952 15.4984L140.95 15.4216ZM140.277 13.8923C139.849 13.4411 139.294 13.2 138.671 13.2V15.2C138.741 15.2 138.772 15.2122 138.825 15.2677L140.277 13.8923ZM138.671 13.2H138.411V15.2H138.671V13.2ZM139.411 14.2V14H137.411V14.2H139.411ZM138.411 15H143.811V13H138.411V15ZM143.811 15C144.831 15 145.508 15.2804 145.971 15.7339L147.371 14.3061C146.447 13.3996 145.217 13 143.811 13V15ZM145.978 15.7408C146.45 16.1949 146.711 16.7953 146.711 17.64H148.711C148.711 16.3247 148.278 15.1784 147.364 14.2992L145.978 15.7408ZM146.711 17.64C146.711 18.4788 146.456 19.1741 145.948 19.7735L147.474 21.0665C148.299 20.0925 148.711 18.9346 148.711 17.64H146.711ZM145.947 19.7746C145.469 20.3409 144.941 20.58 144.311 20.58V22.58C145.575 22.58 146.646 22.0458 147.475 21.0654L145.947 19.7746ZM143.888 22.4862C143.92 22.5012 144.051 22.5825 144.287 22.8297L145.735 21.4503C145.437 21.1375 145.102 20.8454 144.734 20.6738L143.888 22.4862ZM144.321 22.8641C144.56 23.0919 144.767 23.3268 144.942 23.5682L146.56 22.3918C146.309 22.0466 146.021 21.7214 145.701 21.4159L144.321 22.8641ZM144.931 23.553C146.066 25.1757 146.85 26.246 147.246 26.6875L148.736 25.3525C148.438 25.0207 147.729 24.0643 146.57 22.407L144.931 23.553ZM147.258 26.7005C147.605 27.0736 147.863 27.3459 148.024 27.5071L149.438 26.0929C149.306 25.9608 149.071 25.7131 148.724 25.3396L147.258 26.7005ZM148.058 27.5399C148.227 27.6935 148.408 27.8443 148.601 27.9926L149.821 26.4074C149.667 26.2891 149.528 26.1732 149.404 26.0601L148.058 27.5399ZM148.601 27.9926C148.825 28.165 149.062 28.3126 149.312 28.428L150.15 26.612C150.053 26.5674 149.943 26.5017 149.821 26.4074L148.601 27.9926ZM149.296 28.4206C149.822 28.6743 150.384 28.8 150.971 28.8V26.8C150.678 26.8 150.413 26.739 150.166 26.6194L149.296 28.4206ZM149.971 27.8V28H151.971V27.8H149.971ZM150.971 27H149.871V29H150.971V27ZM149.871 27C149.416 27 149.012 26.9213 148.647 26.7733L147.895 28.6267C148.517 28.8787 149.179 29 149.871 29V27ZM148.668 26.7821C148.216 26.5866 147.942 26.419 147.795 26.2951L146.507 27.8249C146.866 28.1277 147.34 28.3867 147.874 28.6179L148.668 26.7821ZM147.838 26.333C147.61 26.1179 147.412 25.9196 147.242 25.7377L145.78 27.1023C145.983 27.3204 146.212 27.5487 146.464 27.787L147.838 26.333ZM147.287 25.7894C147.144 25.6135 146.678 24.9606 145.853 23.7703L144.209 24.9097C145.011 26.066 145.531 26.7999 145.735 27.0506L147.287 25.7894ZM145.853 23.7703C145.057 22.6224 144.549 21.9038 144.379 21.6998L142.843 22.9802C142.939 23.0962 143.378 23.7109 144.209 24.9097L145.853 23.7703ZM144.404 21.7303C144.253 21.5343 144.094 21.3456 143.928 21.1643L142.454 22.5157C142.581 22.6544 142.702 22.799 142.818 22.9497L144.404 21.7303ZM143.919 21.1546C143.391 20.5935 142.719 20.16 141.911 20.16V22.16C141.956 22.16 142.138 22.1799 142.463 22.5254L143.919 21.1546ZM142.911 21.16V20.96H140.911V21.16H142.911ZM141.787 21.9523C141.952 21.9729 142.138 21.98 142.331 21.98V19.98C142.177 19.98 142.083 19.9738 142.035 19.9677L141.787 21.9523ZM142.331 21.98C142.528 21.98 142.76 21.9725 143.023 21.9586L142.918 19.9614C142.675 19.9742 142.481 19.98 142.331 19.98V21.98ZM142.995 21.9597C143.951 21.9366 144.825 21.7225 145.546 21.2421C146.279 20.7529 146.772 20.0424 147.044 19.182L145.138 18.578C144.984 19.0642 144.742 19.3738 144.436 19.5779C144.117 19.7908 143.644 19.9434 142.947 19.9603L142.995 21.9597ZM147.049 19.1673C147.151 18.8279 147.211 18.4832 147.211 18.14H145.211C145.211 18.2501 145.191 18.3988 145.133 18.5927L147.049 19.1673ZM147.211 18.14C147.211 18.1395 147.211 18.1391 147.211 18.1386C147.211 18.1381 147.211 18.1377 147.211 18.1372C147.211 18.1367 147.211 18.1363 147.211 18.1358C147.211 18.1353 147.211 18.1349 147.211 18.1344C147.211 18.1339 147.211 18.1335 147.211 18.133C147.211 18.1325 147.211 18.1321 147.211 18.1316C147.211 18.1311 147.211 18.1307 147.211 18.1302C147.211 18.1297 147.211 18.1293 147.211 18.1288C147.211 18.1283 147.211 18.1279 147.211 18.1274C147.211 18.127 147.211 18.1265 147.211 18.126C147.211 18.1256 147.211 18.1251 147.211 18.1247C147.211 18.1242 147.211 18.1237 147.211 18.1233C147.211 18.1228 147.211 18.1223 147.211 18.1219C147.211 18.1214 147.211 18.121 147.211 18.1205C147.211 18.12 147.211 18.1196 147.211 18.1191C147.211 18.1187 147.211 18.1182 147.211 18.1178C147.211 18.1173 147.211 18.1168 147.211 18.1164C147.211 18.1159 147.211 18.1155 147.211 18.115C147.211 18.1146 147.211 18.1141 147.211 18.1136C147.211 18.1132 147.211 18.1127 147.211 18.1123C147.211 18.1118 147.211 18.1114 147.211 18.1109C147.211 18.1105 147.211 18.11 147.211 18.1095C147.211 18.1091 147.211 18.1086 147.211 18.1082C147.211 18.1077 147.211 18.1073 147.211 18.1068C147.211 18.1064 147.211 18.1059 147.211 18.1055C147.211 18.105 147.211 18.1046 147.211 18.1041C147.211 18.1037 147.211 18.1032 147.211 18.1028C147.211 18.1023 147.211 18.1019 147.211 18.1014C147.211 18.101 147.211 18.1005 147.211 18.1001C147.211 18.0996 147.211 18.0992 147.211 18.0987C147.211 18.0983 147.211 18.0978 147.211 18.0974C147.211 18.0969 147.211 18.0965 147.211 18.096C147.211 18.0956 147.211 18.0951 147.211 18.0947C147.211 18.0942 147.211 18.0938 147.211 18.0933C147.211 18.0929 147.211 18.0924 147.211 18.092C147.211 18.0915 147.211 18.0911 147.211 18.0907C147.211 18.0902 147.211 18.0898 147.211 18.0893C147.211 18.0889 147.211 18.0884 147.211 18.088C147.211 18.0876 147.211 18.0871 147.211 18.0867C147.211 18.0862 147.211 18.0858 147.211 18.0853C147.211 18.0849 147.211 18.0845 147.211 18.084C147.211 18.0836 147.211 18.0831 147.211 18.0827C147.211 18.0822 147.211 18.0818 147.211 18.0814C147.211 18.0809 147.211 18.0805 147.211 18.08C147.211 18.0796 147.211 18.0792 147.211 18.0787C147.211 18.0783 147.211 18.0778 147.211 18.0774C147.211 18.077 147.211 18.0765 147.211 18.0761C147.211 18.0757 147.211 18.0752 147.211 18.0748C147.211 18.0743 147.211 18.0739 147.211 18.0735C147.211 18.073 147.211 18.0726 147.211 18.0722C147.211 18.0717 147.211 18.0713 147.211 18.0709C147.211 18.0704 147.211 18.07 147.211 18.0696C147.211 18.0691 147.211 18.0687 147.211 18.0683C147.211 18.0678 147.211 18.0674 147.211 18.067C147.211 18.0665 147.211 18.0661 147.211 18.0657C147.211 18.0652 147.211 18.0648 147.211 18.0644C147.211 18.0639 147.211 18.0635 147.211 18.0631C147.211 18.0626 147.211 18.0622 147.211 18.0618C147.211 18.0613 147.211 18.0609 147.211 18.0605C147.211 18.0601 147.211 18.0596 147.211 18.0592C147.211 18.0588 147.211 18.0583 147.211 18.0579C147.211 18.0575 147.211 18.0571 147.211 18.0566C147.211 18.0562 147.211 18.0558 147.211 18.0553C147.211 18.0549 147.211 18.0545 147.211 18.0541C147.211 18.0536 147.211 18.0532 147.211 18.0528C147.211 18.0524 147.211 18.0519 147.211 18.0515C147.211 18.0511 147.211 18.0507 147.211 18.0502C147.211 18.0498 147.211 18.0494 147.211 18.049C147.211 18.0485 147.211 18.0481 147.211 18.0477C147.211 18.0473 147.211 18.0468 147.211 18.0464C147.211 18.046 147.211 18.0456 147.211 18.0452C147.211 18.0447 147.211 18.0443 147.211 18.0439C147.211 18.0435 147.211 18.043 147.211 18.0426C147.211 18.0422 147.211 18.0418 147.211 18.0414C147.211 18.0409 147.211 18.0405 147.211 18.0401C147.211 18.0397 147.211 18.0393 147.211 18.0389C147.211 18.0384 147.211 18.038 147.211 18.0376C147.211 18.0372 147.211 18.0368 147.211 18.0363C147.211 18.0359 147.211 18.0355 147.211 18.0351C147.211 18.0347 147.211 18.0343 147.211 18.0338C147.211 18.0334 147.211 18.033 147.211 18.0326C147.211 18.0322 147.211 18.0318 147.211 18.0314C147.211 18.0309 147.211 18.0305 147.211 18.0301C147.211 18.0297 147.211 18.0293 147.211 18.0289C147.211 18.0285 147.211 18.028 147.211 18.0276C147.211 18.0272 147.211 18.0268 147.211 18.0264C147.211 18.026 147.211 18.0256 147.211 18.0252C147.211 18.0248 147.211 18.0243 147.211 18.0239C147.211 18.0235 147.211 18.0231 147.211 18.0227C147.211 18.0223 147.211 18.0219 147.211 18.0215C147.211 18.0211 147.211 18.0207 147.211 18.0202C147.211 18.0198 147.211 18.0194 147.211 18.019C147.211 18.0186 147.211 18.0182 147.211 18.0178C147.211 18.0174 147.211 18.017 147.211 18.0166C147.211 18.0162 147.211 18.0158 147.211 18.0154C147.211 18.015 147.211 18.0145 147.211 18.0141C147.211 18.0137 147.211 18.0133 147.211 18.0129C147.211 18.0125 147.211 18.0121 147.211 18.0117C147.211 18.0113 147.211 18.0109 147.211 18.0105C147.211 18.0101 147.211 18.0097 147.211 18.0093C147.211 18.0089 147.211 18.0085 147.211 18.0081C147.211 18.0077 147.211 18.0073 147.211 18.0069C147.211 18.0065 147.211 18.0061 147.211 18.0057C147.211 18.0053 147.211 18.0049 147.211 18.0045C147.211 18.0041 147.211 18.0037 147.211 18.0033C147.211 18.0029 147.211 18.0025 147.211 18.0021C147.211 18.0017 147.211 18.0013 147.211 18.0009C147.211 18.0005 147.211 18.0001 147.211 17.9997C147.211 17.9993 147.211 17.9989 147.211 17.9985C147.211 17.9981 147.211 17.9977 147.211 17.9973C147.211 17.9969 147.211 17.9965 147.211 17.9961C147.211 17.9957 147.211 17.9953 147.211 17.9949C147.211 17.9945 147.211 17.9942 147.211 17.9938C147.211 17.9934 147.211 17.993 147.211 17.9926C147.211 17.9922 147.211 17.9918 147.211 17.9914C147.211 17.991 147.211 17.9906 147.211 17.9902C147.211 17.9898 147.211 17.9894 147.211 17.989C147.211 17.9887 147.211 17.9883 147.211 17.9879C147.211 17.9875 147.211 17.9871 147.211 17.9867C147.211 17.9863 147.211 17.9859 147.211 17.9855C147.211 17.9851 147.211 17.9848 147.211 17.9844C147.211 17.984 147.211 17.9836 147.211 17.9832C147.211 17.9828 147.211 17.9824 147.211 17.982C147.211 17.9816 147.211 17.9813 147.211 17.9809C147.211 17.9805 147.211 17.9801 147.211 17.9797C147.211 17.9793 147.211 17.9789 147.211 17.9786C147.211 17.9782 147.211 17.9778 147.211 17.9774C147.211 17.977 147.211 17.9766 147.211 17.9762C147.211 17.9759 147.211 17.9755 147.211 17.9751C147.211 17.9747 147.211 17.9743 147.211 17.9739C147.211 17.9736 147.211 17.9732 147.211 17.9728C147.211 17.9724 147.211 17.972 147.211 17.9717C147.211 17.9713 147.211 17.9709 147.211 17.9705C147.211 17.9701 147.211 17.9698 147.211 17.9694C147.211 17.969 147.211 17.9686 147.211 17.9682C147.211 17.9679 147.211 17.9675 147.211 17.9671C147.211 17.9667 147.211 17.9663 147.211 17.966C147.211 17.9656 147.211 17.9652 147.211 17.9648C147.211 17.9644 147.211 17.9641 147.211 17.9637C147.211 17.9633 147.211 17.9629 147.211 17.9626C147.211 17.9622 147.211 17.9618 147.211 17.9614C147.211 17.9611 147.211 17.9607 147.211 17.9603C147.211 17.9599 147.211 17.9596 147.211 17.9592C147.211 17.9588 147.211 17.9584 147.211 17.9581C147.211 17.9577 147.211 17.9573 147.211 17.9569C147.211 17.9566 147.211 17.9562 147.211 17.9558C147.211 17.9555 147.211 17.9551 147.211 17.9547C147.211 17.9543 147.211 17.954 147.211 17.9536C147.211 17.9532 147.211 17.9529 147.211 17.9525C147.211 17.9521 147.211 17.9517 147.211 17.9514C147.211 17.951 147.211 17.9506 147.211 17.9503C147.211 17.9499 147.211 17.9495 147.211 17.9492C147.211 17.9488 147.211 17.9484 147.211 17.9481C147.211 17.9477 147.211 17.9473 147.211 17.947C147.211 17.9466 147.211 17.9462 147.211 17.9459C147.211 17.9455 147.211 17.9451 147.211 17.9448C147.211 17.9444 147.211 17.944 147.211 17.9437C147.211 17.9433 147.211 17.9429 147.211 17.9426C147.211 17.9422 147.211 17.9418 147.211 17.9415C147.211 17.9411 147.211 17.9408 147.211 17.9404C147.211 17.94 147.211 17.9397 147.211 17.9393C147.211 17.9389 147.211 17.9386 147.211 17.9382C147.211 17.9379 147.211 17.9375 147.211 17.9371C147.211 17.9368 147.211 17.9364 147.211 17.9361C147.211 17.9357 147.211 17.9353 147.211 17.935C147.211 17.9346 147.211 17.9343 147.211 17.9339C147.211 17.9335 147.211 17.9332 147.211 17.9328C147.211 17.9325 147.211 17.9321 147.211 17.9317C147.211 17.9314 147.211 17.931 147.211 17.9307C147.211 17.9303 147.211 17.93 147.211 17.9296C147.211 17.9292 147.211 17.9289 147.211 17.9285C147.211 17.9282 147.211 17.9278 147.211 17.9275C147.211 17.9271 147.211 17.9268 147.211 17.9264C147.211 17.926 147.211 17.9257 147.211 17.9253C147.211 17.925 147.211 17.9246 147.211 17.9243C147.211 17.9239 147.211 17.9236 147.211 17.9232C147.211 17.9229 147.211 17.9225 147.211 17.9222C147.211 17.9218 147.211 17.9215 147.211 17.9211C147.211 17.9208 147.211 17.9204 147.211 17.9201C147.211 17.9197 147.211 17.9194 147.211 17.919C147.211 17.9187 147.211 17.9183 147.211 17.918C147.211 17.9176 147.211 17.9173 147.211 17.9169C147.211 17.9166 147.211 17.9162 147.211 17.9159C147.211 17.9155 147.211 17.9152 147.211 17.9148C147.211 17.9145 147.211 17.9141 147.211 17.9138C147.211 17.9134 147.211 17.9131 147.211 17.9128C147.211 17.9124 147.211 17.9121 147.211 17.9117C147.211 17.9114 147.211 17.911 147.211 17.9107C147.211 17.9103 147.211 17.91 147.211 17.9096C147.211 17.9093 147.211 17.909 147.211 17.9086C147.211 17.9083 147.211 17.9079 147.211 17.9076C147.211 17.9072 147.211 17.9069 147.211 17.9066C147.211 17.9062 147.211 17.9059 147.211 17.9055C147.211 17.9052 147.211 17.9049 147.211 17.9045C147.211 17.9042 147.211 17.9038 147.211 17.9035C147.211 17.9032 147.211 17.9028 147.211 17.9025C147.211 17.9021 147.211 17.9018 147.211 17.9015C147.211 17.9011 147.211 17.9008 147.211 17.9004C147.211 17.9001 147.211 17.8998 147.211 17.8994C147.211 17.8991 147.211 17.8988 147.211 17.8984C147.211 17.8981 147.211 17.8977 147.211 17.8974C147.211 17.8971 147.211 17.8967 147.211 17.8964C147.211 17.8961 147.211 17.8957 147.211 17.8954C147.211 17.8951 147.211 17.8947 147.211 17.8944C147.211 17.8941 147.211 17.8937 147.211 17.8934C147.211 17.8931 147.211 17.8927 147.211 17.8924C147.211 17.8921 147.211 17.8917 147.211 17.8914C147.211 17.8911 147.211 17.8907 147.211 17.8904C147.211 17.8901 147.211 17.8897 147.211 17.8894C147.211 17.8891 147.211 17.8888 147.211 17.8884C147.211 17.8881 147.211 17.8878 147.211 17.8874C147.211 17.8871 147.211 17.8868 147.211 17.8865C147.211 17.8861 147.211 17.8858 147.211 17.8855C147.211 17.8851 147.211 17.8848 147.211 17.8845C147.211 17.8842 147.211 17.8838 147.211 17.8835C147.211 17.8832 147.211 17.8828 147.211 17.8825C147.211 17.8822 147.211 17.8819 147.211 17.8815C147.211 17.8812 147.211 17.8809 147.211 17.8806C147.211 17.8802 147.211 17.8799 147.211 17.8796C147.211 17.8793 147.211 17.879 147.211 17.8786C147.211 17.8783 147.211 17.878 147.211 17.8777C147.211 17.8773 147.211 17.877 147.211 17.8767C147.211 17.8764 147.211 17.876 147.211 17.8757C147.211 17.8754 147.211 17.8751 147.211 17.8748C147.211 17.8744 147.211 17.8741 147.211 17.8738C147.211 17.8735 147.211 17.8732 147.211 17.8728C147.211 17.8725 147.211 17.8722 147.211 17.8719C147.211 17.8716 147.211 17.8713 147.211 17.8709C147.211 17.8706 147.211 17.8703 147.211 17.87C147.211 17.8697 147.211 17.8693 147.211 17.869C147.211 17.8687 147.211 17.8684 147.211 17.8681C147.211 17.8678 147.211 17.8674 147.211 17.8671C147.211 17.8668 147.211 17.8665 147.211 17.8662C147.211 17.8659 147.211 17.8656 147.211 17.8652C147.211 17.8649 147.211 17.8646 147.211 17.8643C147.211 17.864 147.211 17.8637 147.211 17.8634C147.211 17.8631 147.211 17.8627 147.211 17.8624C147.211 17.8621 147.211 17.8618 147.211 17.8615C147.211 17.8612 147.211 17.8609 147.211 17.8606C147.211 17.8602 147.211 17.8599 147.211 17.8596C147.211 17.8593 147.211 17.859 147.211 17.8587C147.211 17.8584 147.211 17.8581 147.211 17.8578C147.211 17.8575 147.211 17.8572 147.211 17.8568C147.211 17.8565 147.211 17.8562 147.211 17.8559C147.211 17.8556 147.211 17.8553 147.211 17.855C147.211 17.8547 147.211 17.8544 147.211 17.8541C147.211 17.8538 147.211 17.8535 147.211 17.8532C147.211 17.8529 147.211 17.8526 147.211 17.8523C147.211 17.8519 147.211 17.8516 147.211 17.8513C147.211 17.851 147.211 17.8507 147.211 17.8504C147.211 17.8501 147.211 17.8498 147.211 17.8495C147.211 17.8492 147.211 17.8489 147.211 17.8486C147.211 17.8483 147.211 17.848 147.211 17.8477C147.211 17.8474 147.211 17.8471 147.211 17.8468C147.211 17.8465 147.211 17.8462 147.211 17.8459C147.211 17.8456 147.211 17.8453 147.211 17.845C147.211 17.8447 147.211 17.8444 147.211 17.8441C147.211 17.8438 147.211 17.8435 147.211 17.8432C147.211 17.8429 147.211 17.8426 147.211 17.8423C147.211 17.842 147.211 17.8417 147.211 17.8414C147.211 17.8411 147.211 17.8408 147.211 17.8405C147.211 17.8402 147.211 17.8399 147.211 17.8396C147.211 17.8393 147.211 17.8391 147.211 17.8388C147.211 17.8385 147.211 17.8382 147.211 17.8379C147.211 17.8376 147.211 17.8373 147.211 17.837C147.211 17.8367 147.211 17.8364 147.211 17.8361C147.211 17.8358 147.211 17.8355 147.211 17.8352C147.211 17.8349 147.211 17.8347 147.211 17.8344C147.211 17.8341 147.211 17.8338 147.211 17.8335C147.211 17.8332 147.211 17.8329 147.211 17.8326C147.211 17.8323 147.211 17.832 147.211 17.8317C147.211 17.8315 147.211 17.8312 147.211 17.8309C147.211 17.8306 147.211 17.8303 147.211 17.83C147.211 17.8297 147.211 17.8294 147.211 17.8291C147.211 17.8289 147.211 17.8286 147.211 17.8283C147.211 17.828 147.211 17.8277 147.211 17.8274C147.211 17.8271 147.211 17.8269 147.211 17.8266C147.211 17.8263 147.211 17.826 147.211 17.8257C147.211 17.8254 147.211 17.8251 147.211 17.8249C147.211 17.8246 147.211 17.8243 147.211 17.824C147.211 17.8237 147.211 17.8234 147.211 17.8232C147.211 17.8229 147.211 17.8226 147.211 17.8223C147.211 17.822 147.211 17.8217 147.211 17.8215C147.211 17.8212 147.211 17.8209 147.211 17.8206C147.211 17.8203 147.211 17.8201 147.211 17.8198C147.211 17.8195 147.211 17.8192 147.211 17.8189C147.211 17.8187 147.211 17.8184 147.211 17.8181C147.211 17.8178 147.211 17.8175 147.211 17.8173C147.211 17.817 147.211 17.8167 147.211 17.8164C147.211 17.8162 147.211 17.8159 147.211 17.8156C147.211 17.8153 147.211 17.815 147.211 17.8148C147.211 17.8145 147.211 17.8142 147.211 17.8139C147.211 17.8137 147.211 17.8134 147.211 17.8131C147.211 17.8128 147.211 17.8126 147.211 17.8123C147.211 17.812 147.211 17.8117 147.211 17.8115C147.211 17.8112 147.211 17.8109 147.211 17.8106C147.211 17.8104 147.211 17.8101 147.211 17.8098C147.211 17.8096 147.211 17.8093 147.211 17.809C147.211 17.8087 147.211 17.8085 147.211 17.8082C147.211 17.8079 147.211 17.8077 147.211 17.8074C147.211 17.8071 147.211 17.8068 147.211 17.8066C147.211 17.8063 147.211 17.806 147.211 17.8058C147.211 17.8055 147.211 17.8052 147.211 17.805C147.211 17.8047 147.211 17.8044 147.211 17.8042C147.211 17.8039 147.211 17.8036 147.211 17.8034C147.211 17.8031 147.211 17.8028 147.211 17.8026C147.211 17.8023 147.211 17.802 147.211 17.8018C147.211 17.8015 147.211 17.8012 147.211 17.801C147.211 17.8007 147.211 17.8004 147.211 17.8002C147.211 17.7999 147.211 17.7996 147.211 17.7994C147.211 17.7991 147.211 17.7988 147.211 17.7986C147.211 17.7983 147.211 17.7981 147.211 17.7978C147.211 17.7975 147.211 17.7973 147.211 17.797C147.211 17.7967 147.211 17.7965 147.211 17.7962C147.211 17.796 147.211 17.7957 147.211 17.7954C147.211 17.7952 147.211 17.7949 147.211 17.7947C147.211 17.7944 147.211 17.7941 147.211 17.7939C147.211 17.7936 147.211 17.7934 147.211 17.7931C147.211 17.7929 147.211 17.7926 147.211 17.7923C147.211 17.7921 147.211 17.7918 147.211 17.7916C147.211 17.7913 147.211 17.791 147.211 17.7908C147.211 17.7905 147.211 17.7903 147.211 17.79C147.211 17.7898 147.211 17.7895 147.211 17.7893C147.211 17.789 147.211 17.7887 147.211 17.7885C147.211 17.7882 147.211 17.788 147.211 17.7877C147.211 17.7875 147.211 17.7872 147.211 17.787C147.211 17.7867 147.211 17.7865 147.211 17.7862C147.211 17.786 147.211 17.7857 147.211 17.7855C147.211 17.7852 147.211 17.785 147.211 17.7847C147.211 17.7844 147.211 17.7842 147.211 17.7839C147.211 17.7837 147.211 17.7834 147.211 17.7832C147.211 17.7829 147.211 17.7827 147.211 17.7824C147.211 17.7822 147.211 17.7819 147.211 17.7817C147.211 17.7815 147.211 17.7812 147.211 17.781C147.211 17.7807 147.211 17.7805 147.211 17.7802C147.211 17.78 147.211 17.7797 147.211 17.7795C147.211 17.7792 147.211 17.779 147.211 17.7787C147.211 17.7785 147.211 17.7782 147.211 17.778C147.211 17.7778 147.211 17.7775 147.211 17.7773C147.211 17.777 147.211 17.7768 147.211 17.7765C147.211 17.7763 147.211 17.776 147.211 17.7758C147.211 17.7756 147.211 17.7753 147.211 17.7751C147.211 17.7748 147.211 17.7746 147.211 17.7743C147.211 17.7741 147.211 17.7739 147.211 17.7736C147.211 17.7734 147.211 17.7731 147.211 17.7729C147.211 17.7727 147.211 17.7724 147.211 17.7722C147.211 17.7719 147.211 17.7717 147.211 17.7715C147.211 17.7712 147.211 17.771 147.211 17.7707C147.211 17.7705 147.211 17.7703 147.211 17.77C147.211 17.7698 147.211 17.7695 147.211 17.7693C147.211 17.7691 147.211 17.7688 147.211 17.7686C147.211 17.7684 147.211 17.7681 147.211 17.7679C147.211 17.7677 147.211 17.7674 147.211 17.7672C147.211 17.7669 147.211 17.7667 147.211 17.7665C147.211 17.7662 147.211 17.766 147.211 17.7658C147.211 17.7655 147.211 17.7653 147.211 17.7651C147.211 17.7648 147.211 17.7646 147.211 17.7644C147.211 17.7641 147.211 17.7639 147.211 17.7637C147.211 17.7634 147.211 17.7632 147.211 17.763C147.211 17.7628 147.211 17.7625 147.211 17.7623C147.211 17.7621 147.211 17.7618 147.211 17.7616C147.211 17.7614 147.211 17.7611 147.211 17.7609C147.211 17.7607 147.211 17.7605 147.211 17.7602C147.211 17.76 147.211 17.7598 147.211 17.7595C147.211 17.7593 147.211 17.7591 147.211 17.7589C147.211 17.7586 147.211 17.7584 147.211 17.7582C147.211 17.7579 147.211 17.7577 147.211 17.7575C147.211 17.7573 147.211 17.757 147.211 17.7568C147.211 17.7566 147.211 17.7564 147.211 17.7561C147.211 17.7559 147.211 17.7557 147.211 17.7555C147.211 17.7552 147.211 17.755 147.211 17.7548C147.211 17.7546 147.211 17.7543 147.211 17.7541C147.211 17.7539 147.211 17.7537 147.211 17.7535C147.211 17.7532 147.211 17.753 147.211 17.7528C147.211 17.7526 147.211 17.7524 147.211 17.7521C147.211 17.7519 147.211 17.7517 147.211 17.7515C147.211 17.7512 147.211 17.751 147.211 17.7508C147.211 17.7506 147.211 17.7504 147.211 17.7502C147.211 17.7499 147.211 17.7497 147.211 17.7495C147.211 17.7493 147.211 17.7491 147.211 17.7488C147.211 17.7486 147.211 17.7484 147.211 17.7482C147.211 17.748 147.211 17.7478 147.211 17.7475C147.211 17.7473 147.211 17.7471 147.211 17.7469C147.211 17.7467 147.211 17.7465 147.211 17.7462C147.211 17.746 147.211 17.7458 147.211 17.7456C147.211 17.7454 147.211 17.7452 147.211 17.745C147.211 17.7448 147.211 17.7445 147.211 17.7443C147.211 17.7441 147.211 17.7439 147.211 17.7437C147.211 17.7435 147.211 17.7433 147.211 17.7431C147.211 17.7428 147.211 17.7426 147.211 17.7424C147.211 17.7422 147.211 17.742 147.211 17.7418C147.211 17.7416 147.211 17.7414 147.211 17.7412C147.211 17.7409 147.211 17.7407 147.211 17.7405C147.211 17.7403 147.211 17.7401 147.211 17.7399C147.211 17.7397 147.211 17.7395 147.211 17.7393C147.211 17.7391 147.211 17.7389 147.211 17.7387C147.211 17.7385 147.211 17.7382 147.211 17.738C147.211 17.7378 147.211 17.7376 147.211 17.7374C147.211 17.7372 147.211 17.737 147.211 17.7368C147.211 17.7366 147.211 17.7364 147.211 17.7362C147.211 17.736 147.211 17.7358 147.211 17.7356C147.211 17.7354 147.211 17.7352 147.211 17.735C147.211 17.7348 147.211 17.7346 147.211 17.7344C147.211 17.7342 147.211 17.734 147.211 17.7338C147.211 17.7336 147.211 17.7334 147.211 17.7332C147.211 17.733 147.211 17.7327 147.211 17.7325C147.211 17.7323 147.211 17.7321 147.211 17.7319C147.211 17.7318 147.211 17.7316 147.211 17.7314C147.211 17.7312 147.211 17.731 147.211 17.7308C147.211 17.7306 147.211 17.7304 147.211 17.7302C147.211 17.73 147.211 17.7298 147.211 17.7296C147.211 17.7294 147.211 17.7292 147.211 17.729C147.211 17.7288 147.211 17.7286 147.211 17.7284C147.211 17.7282 147.211 17.728 147.211 17.7278C147.211 17.7276 147.211 17.7274 147.211 17.7272C147.211 17.727 147.211 17.7268 147.211 17.7266C147.211 17.7264 147.211 17.7263 147.211 17.7261C147.211 17.7259 147.211 17.7257 147.211 17.7255C147.211 17.7253 147.211 17.7251 147.211 17.7249C147.211 17.7247 147.211 17.7245 147.211 17.7243C147.211 17.7241 147.211 17.7239 147.211 17.7238C147.211 17.7236 147.211 17.7234 147.211 17.7232C147.211 17.723 147.211 17.7228 147.211 17.7226C147.211 17.7224 147.211 17.7222 147.211 17.7221C147.211 17.7219 147.211 17.7217 147.211 17.7215C147.211 17.7213 147.211 17.7211 147.211 17.7209C147.211 17.7207 147.211 17.7206 147.211 17.7204C147.211 17.7202 147.211 17.72 147.211 17.7198C147.211 17.7196 147.211 17.7194 147.211 17.7193C147.211 17.7191 147.211 17.7189 147.211 17.7187C147.211 17.7185 147.211 17.7183 147.211 17.7181C147.211 17.718 147.211 17.7178 147.211 17.7176C147.211 17.7174 147.211 17.7172 147.211 17.717C147.211 17.7169 147.211 17.7167 147.211 17.7165C147.211 17.7163 147.211 17.7161 147.211 17.716C147.211 17.7158 147.211 17.7156 147.211 17.7154C147.211 17.7152 147.211 17.7151 147.211 17.7149C147.211 17.7147 147.211 17.7145 147.211 17.7143C147.211 17.7142 147.211 17.714 147.211 17.7138C147.211 17.7136 147.211 17.7134 147.211 17.7133C147.211 17.7131 147.211 17.7129 147.211 17.7127C147.211 17.7126 147.211 17.7124 147.211 17.7122C147.211 17.712 147.211 17.7119 147.211 17.7117C147.211 17.7115 147.211 17.7113 147.211 17.7111C147.211 17.711 147.211 17.7108 147.211 17.7106C147.211 17.7104 147.211 17.7103 147.211 17.7101C147.211 17.7099 147.211 17.7098 147.211 17.7096C147.211 17.7094 147.211 17.7092 147.211 17.7091C147.211 17.7089 147.211 17.7087 147.211 17.7085C147.211 17.7084 147.211 17.7082 147.211 17.708C147.211 17.7079 147.211 17.7077 147.211 17.7075C147.211 17.7073 147.211 17.7072 147.211 17.707C147.211 17.7068 147.211 17.7067 147.211 17.7065C147.211 17.7063 147.211 17.7062 147.211 17.706C147.211 17.7058 147.211 17.7057 147.211 17.7055C147.211 17.7053 147.211 17.7052 147.211 17.705C147.211 17.7048 147.211 17.7047 147.211 17.7045C147.211 17.7043 147.211 17.7042 147.211 17.704C147.211 17.7038 147.211 17.7037 147.211 17.7035C147.211 17.7033 147.211 17.7032 147.211 17.703C147.211 17.7028 147.211 17.7027 147.211 17.7025C147.211 17.7023 147.211 17.7022 147.211 17.702C147.211 17.7018 147.211 17.7017 147.211 17.7015C147.211 17.7014 147.211 17.7012 147.211 17.701C147.211 17.7009 147.211 17.7007 147.211 17.7006C147.211 17.7004 147.211 17.7002 147.211 17.7001C147.211 17.6999 147.211 17.6997 147.211 17.6996C147.211 17.6994 147.211 17.6993 147.211 17.6991C147.211 17.6989 147.211 17.6988 147.211 17.6986C147.211 17.6985 147.211 17.6983 147.211 17.6982C147.211 17.698 147.211 17.6978 147.211 17.6977C147.211 17.6975 147.211 17.6974 147.211 17.6972C147.211 17.6971 147.211 17.6969 147.211 17.6967C147.211 17.6966 147.211 17.6964 147.211 17.6963C147.211 17.6961 147.211 17.696 147.211 17.6958C147.211 17.6957 147.211 17.6955 147.211 17.6953C147.211 17.6952 147.211 17.695 147.211 17.6949C147.211 17.6947 147.211 17.6946 147.211 17.6944C147.211 17.6943 147.211 17.6941 147.211 17.694C147.211 17.6938 147.211 17.6937 147.211 17.6935C147.211 17.6934 147.211 17.6932 147.211 17.6931C147.211 17.6929 147.211 17.6928 147.211 17.6926C147.211 17.6925 147.211 17.6923 147.211 17.6922C147.211 17.692 147.211 17.6919 147.211 17.6917C147.211 17.6916 147.211 17.6914 147.211 17.6913C147.211 17.6911 147.211 17.691 147.211 17.6908C147.211 17.6907 147.211 17.6905 147.211 17.6904C147.211 17.6902 147.211 17.6901 147.211 17.6899C147.211 17.6898 147.211 17.6897 147.211 17.6895C147.211 17.6894 147.211 17.6892 147.211 17.6891C147.211 17.6889 147.211 17.6888 147.211 17.6886C147.211 17.6885 147.211 17.6884 147.211 17.6882C147.211 17.6881 147.211 17.6879 147.211 17.6878C147.211 17.6876 147.211 17.6875 147.211 17.6874C147.211 17.6872 147.211 17.6871 147.211 17.6869C147.211 17.6868 147.211 17.6866 147.211 17.6865C147.211 17.6864 147.211 17.6862 147.211 17.6861C147.211 17.6859 147.211 17.6858 147.211 17.6857C147.211 17.6855 147.211 17.6854 147.211 17.6852C147.211 17.6851 147.211 17.685 147.211 17.6848C147.211 17.6847 147.211 17.6846 147.211 17.6844C147.211 17.6843 147.211 17.6841 147.211 17.684C147.211 17.6839 147.211 17.6837 147.211 17.6836C147.211 17.6835 147.211 17.6833 147.211 17.6832C147.211 17.6831 147.211 17.6829 147.211 17.6828C147.211 17.6826 147.211 17.6825 147.211 17.6824C147.211 17.6822 147.211 17.6821 147.211 17.682C147.211 17.6818 147.211 17.6817 147.211 17.6816C147.211 17.6814 147.211 17.6813 147.211 17.6812C147.211 17.681 147.211 17.6809 147.211 17.6808C147.211 17.6807 147.211 17.6805 147.211 17.6804C147.211 17.6803 147.211 17.6801 147.211 17.68H145.211C145.211 17.6801 145.211 17.6803 145.211 17.6804C145.211 17.6805 145.211 17.6807 145.211 17.6808C145.211 17.6809 145.211 17.681 145.211 17.6812C145.211 17.6813 145.211 17.6814 145.211 17.6816C145.211 17.6817 145.211 17.6818 145.211 17.682C145.211 17.6821 145.211 17.6822 145.211 17.6824C145.211 17.6825 145.211 17.6826 145.211 17.6828C145.211 17.6829 145.211 17.6831 145.211 17.6832C145.211 17.6833 145.211 17.6835 145.211 17.6836C145.211 17.6837 145.211 17.6839 145.211 17.684C145.211 17.6841 145.211 17.6843 145.211 17.6844C145.211 17.6846 145.211 17.6847 145.211 17.6848C145.211 17.685 145.211 17.6851 145.211 17.6852C145.211 17.6854 145.211 17.6855 145.211 17.6857C145.211 17.6858 145.211 17.6859 145.211 17.6861C145.211 17.6862 145.211 17.6864 145.211 17.6865C145.211 17.6866 145.211 17.6868 145.211 17.6869C145.211 17.6871 145.211 17.6872 145.211 17.6874C145.211 17.6875 145.211 17.6876 145.211 17.6878C145.211 17.6879 145.211 17.6881 145.211 17.6882C145.211 17.6884 145.211 17.6885 145.211 17.6886C145.211 17.6888 145.211 17.6889 145.211 17.6891C145.211 17.6892 145.211 17.6894 145.211 17.6895C145.211 17.6897 145.211 17.6898 145.211 17.6899C145.211 17.6901 145.211 17.6902 145.211 17.6904C145.211 17.6905 145.211 17.6907 145.211 17.6908C145.211 17.691 145.211 17.6911 145.211 17.6913C145.211 17.6914 145.211 17.6916 145.211 17.6917C145.211 17.6919 145.211 17.692 145.211 17.6922C145.211 17.6923 145.211 17.6925 145.211 17.6926C145.211 17.6928 145.211 17.6929 145.211 17.6931C145.211 17.6932 145.211 17.6934 145.211 17.6935C145.211 17.6937 145.211 17.6938 145.211 17.694C145.211 17.6941 145.211 17.6943 145.211 17.6944C145.211 17.6946 145.211 17.6947 145.211 17.6949C145.211 17.695 145.211 17.6952 145.211 17.6953C145.211 17.6955 145.211 17.6957 145.211 17.6958C145.211 17.696 145.211 17.6961 145.211 17.6963C145.211 17.6964 145.211 17.6966 145.211 17.6967C145.211 17.6969 145.211 17.6971 145.211 17.6972C145.211 17.6974 145.211 17.6975 145.211 17.6977C145.211 17.6978 145.211 17.698 145.211 17.6982C145.211 17.6983 145.211 17.6985 145.211 17.6986C145.211 17.6988 145.211 17.6989 145.211 17.6991C145.211 17.6993 145.211 17.6994 145.211 17.6996C145.211 17.6997 145.211 17.6999 145.211 17.7001C145.211 17.7002 145.211 17.7004 145.211 17.7006C145.211 17.7007 145.211 17.7009 145.211 17.701C145.211 17.7012 145.211 17.7014 145.211 17.7015C145.211 17.7017 145.211 17.7018 145.211 17.702C145.211 17.7022 145.211 17.7023 145.211 17.7025C145.211 17.7027 145.211 17.7028 145.211 17.703C145.211 17.7032 145.211 17.7033 145.211 17.7035C145.211 17.7037 145.211 17.7038 145.211 17.704C145.211 17.7042 145.211 17.7043 145.211 17.7045C145.211 17.7047 145.211 17.7048 145.211 17.705C145.211 17.7052 145.211 17.7053 145.211 17.7055C145.211 17.7057 145.211 17.7058 145.211 17.706C145.211 17.7062 145.211 17.7063 145.211 17.7065C145.211 17.7067 145.211 17.7068 145.211 17.707C145.211 17.7072 145.211 17.7073 145.211 17.7075C145.211 17.7077 145.211 17.7079 145.211 17.708C145.211 17.7082 145.211 17.7084 145.211 17.7085C145.211 17.7087 145.211 17.7089 145.211 17.7091C145.211 17.7092 145.211 17.7094 145.211 17.7096C145.211 17.7098 145.211 17.7099 145.211 17.7101C145.211 17.7103 145.211 17.7104 145.211 17.7106C145.211 17.7108 145.211 17.711 145.211 17.7111C145.211 17.7113 145.211 17.7115 145.211 17.7117C145.211 17.7119 145.211 17.712 145.211 17.7122C145.211 17.7124 145.211 17.7126 145.211 17.7127C145.211 17.7129 145.211 17.7131 145.211 17.7133C145.211 17.7134 145.211 17.7136 145.211 17.7138C145.211 17.714 145.211 17.7142 145.211 17.7143C145.211 17.7145 145.211 17.7147 145.211 17.7149C145.211 17.7151 145.211 17.7152 145.211 17.7154C145.211 17.7156 145.211 17.7158 145.211 17.716C145.211 17.7161 145.211 17.7163 145.211 17.7165C145.211 17.7167 145.211 17.7169 145.211 17.717C145.211 17.7172 145.211 17.7174 145.211 17.7176C145.211 17.7178 145.211 17.718 145.211 17.7181C145.211 17.7183 145.211 17.7185 145.211 17.7187C145.211 17.7189 145.211 17.7191 145.211 17.7193C145.211 17.7194 145.211 17.7196 145.211 17.7198C145.211 17.72 145.211 17.7202 145.211 17.7204C145.211 17.7206 145.211 17.7207 145.211 17.7209C145.211 17.7211 145.211 17.7213 145.211 17.7215C145.211 17.7217 145.211 17.7219 145.211 17.7221C145.211 17.7222 145.211 17.7224 145.211 17.7226C145.211 17.7228 145.211 17.723 145.211 17.7232C145.211 17.7234 145.211 17.7236 145.211 17.7238C145.211 17.7239 145.211 17.7241 145.211 17.7243C145.211 17.7245 145.211 17.7247 145.211 17.7249C145.211 17.7251 145.211 17.7253 145.211 17.7255C145.211 17.7257 145.211 17.7259 145.211 17.7261C145.211 17.7263 145.211 17.7264 145.211 17.7266C145.211 17.7268 145.211 17.727 145.211 17.7272C145.211 17.7274 145.211 17.7276 145.211 17.7278C145.211 17.728 145.211 17.7282 145.211 17.7284C145.211 17.7286 145.211 17.7288 145.211 17.729C145.211 17.7292 145.211 17.7294 145.211 17.7296C145.211 17.7298 145.211 17.73 145.211 17.7302C145.211 17.7304 145.211 17.7306 145.211 17.7308C145.211 17.731 145.211 17.7312 145.211 17.7314C145.211 17.7316 145.211 17.7318 145.211 17.7319C145.211 17.7321 145.211 17.7323 145.211 17.7325C145.211 17.7327 145.211 17.733 145.211 17.7332C145.211 17.7334 145.211 17.7336 145.211 17.7338C145.211 17.734 145.211 17.7342 145.211 17.7344C145.211 17.7346 145.211 17.7348 145.211 17.735C145.211 17.7352 145.211 17.7354 145.211 17.7356C145.211 17.7358 145.211 17.736 145.211 17.7362C145.211 17.7364 145.211 17.7366 145.211 17.7368C145.211 17.737 145.211 17.7372 145.211 17.7374C145.211 17.7376 145.211 17.7378 145.211 17.738C145.211 17.7382 145.211 17.7385 145.211 17.7387C145.211 17.7389 145.211 17.7391 145.211 17.7393C145.211 17.7395 145.211 17.7397 145.211 17.7399C145.211 17.7401 145.211 17.7403 145.211 17.7405C145.211 17.7407 145.211 17.7409 145.211 17.7412C145.211 17.7414 145.211 17.7416 145.211 17.7418C145.211 17.742 145.211 17.7422 145.211 17.7424C145.211 17.7426 145.211 17.7428 145.211 17.7431C145.211 17.7433 145.211 17.7435 145.211 17.7437C145.211 17.7439 145.211 17.7441 145.211 17.7443C145.211 17.7445 145.211 17.7448 145.211 17.745C145.211 17.7452 145.211 17.7454 145.211 17.7456C145.211 17.7458 145.211 17.746 145.211 17.7462C145.211 17.7465 145.211 17.7467 145.211 17.7469C145.211 17.7471 145.211 17.7473 145.211 17.7475C145.211 17.7478 145.211 17.748 145.211 17.7482C145.211 17.7484 145.211 17.7486 145.211 17.7488C145.211 17.7491 145.211 17.7493 145.211 17.7495C145.211 17.7497 145.211 17.7499 145.211 17.7502C145.211 17.7504 145.211 17.7506 145.211 17.7508C145.211 17.751 145.211 17.7512 145.211 17.7515C145.211 17.7517 145.211 17.7519 145.211 17.7521C145.211 17.7524 145.211 17.7526 145.211 17.7528C145.211 17.753 145.211 17.7532 145.211 17.7535C145.211 17.7537 145.211 17.7539 145.211 17.7541C145.211 17.7543 145.211 17.7546 145.211 17.7548C145.211 17.755 145.211 17.7552 145.211 17.7555C145.211 17.7557 145.211 17.7559 145.211 17.7561C145.211 17.7564 145.211 17.7566 145.211 17.7568C145.211 17.757 145.211 17.7573 145.211 17.7575C145.211 17.7577 145.211 17.7579 145.211 17.7582C145.211 17.7584 145.211 17.7586 145.211 17.7589C145.211 17.7591 145.211 17.7593 145.211 17.7595C145.211 17.7598 145.211 17.76 145.211 17.7602C145.211 17.7605 145.211 17.7607 145.211 17.7609C145.211 17.7611 145.211 17.7614 145.211 17.7616C145.211 17.7618 145.211 17.7621 145.211 17.7623C145.211 17.7625 145.211 17.7628 145.211 17.763C145.211 17.7632 145.211 17.7634 145.211 17.7637C145.211 17.7639 145.211 17.7641 145.211 17.7644C145.211 17.7646 145.211 17.7648 145.211 17.7651C145.211 17.7653 145.211 17.7655 145.211 17.7658C145.211 17.766 145.211 17.7662 145.211 17.7665C145.211 17.7667 145.211 17.7669 145.211 17.7672C145.211 17.7674 145.211 17.7677 145.211 17.7679C145.211 17.7681 145.211 17.7684 145.211 17.7686C145.211 17.7688 145.211 17.7691 145.211 17.7693C145.211 17.7695 145.211 17.7698 145.211 17.77C145.211 17.7703 145.211 17.7705 145.211 17.7707C145.211 17.771 145.211 17.7712 145.211 17.7715C145.211 17.7717 145.211 17.7719 145.211 17.7722C145.211 17.7724 145.211 17.7727 145.211 17.7729C145.211 17.7731 145.211 17.7734 145.211 17.7736C145.211 17.7739 145.211 17.7741 145.211 17.7743C145.211 17.7746 145.211 17.7748 145.211 17.7751C145.211 17.7753 145.211 17.7756 145.211 17.7758C145.211 17.776 145.211 17.7763 145.211 17.7765C145.211 17.7768 145.211 17.777 145.211 17.7773C145.211 17.7775 145.211 17.7778 145.211 17.778C145.211 17.7782 145.211 17.7785 145.211 17.7787C145.211 17.779 145.211 17.7792 145.211 17.7795C145.211 17.7797 145.211 17.78 145.211 17.7802C145.211 17.7805 145.211 17.7807 145.211 17.781C145.211 17.7812 145.211 17.7815 145.211 17.7817C145.211 17.7819 145.211 17.7822 145.211 17.7824C145.211 17.7827 145.211 17.7829 145.211 17.7832C145.211 17.7834 145.211 17.7837 145.211 17.7839C145.211 17.7842 145.211 17.7844 145.211 17.7847C145.211 17.785 145.211 17.7852 145.211 17.7855C145.211 17.7857 145.211 17.786 145.211 17.7862C145.211 17.7865 145.211 17.7867 145.211 17.787C145.211 17.7872 145.211 17.7875 145.211 17.7877C145.211 17.788 145.211 17.7882 145.211 17.7885C145.211 17.7887 145.211 17.789 145.211 17.7893C145.211 17.7895 145.211 17.7898 145.211 17.79C145.211 17.7903 145.211 17.7905 145.211 17.7908C145.211 17.791 145.211 17.7913 145.211 17.7916C145.211 17.7918 145.211 17.7921 145.211 17.7923C145.211 17.7926 145.211 17.7929 145.211 17.7931C145.211 17.7934 145.211 17.7936 145.211 17.7939C145.211 17.7941 145.211 17.7944 145.211 17.7947C145.211 17.7949 145.211 17.7952 145.211 17.7954C145.211 17.7957 145.211 17.796 145.211 17.7962C145.211 17.7965 145.211 17.7967 145.211 17.797C145.211 17.7973 145.211 17.7975 145.211 17.7978C145.211 17.7981 145.211 17.7983 145.211 17.7986C145.211 17.7988 145.211 17.7991 145.211 17.7994C145.211 17.7996 145.211 17.7999 145.211 17.8002C145.211 17.8004 145.211 17.8007 145.211 17.801C145.211 17.8012 145.211 17.8015 145.211 17.8018C145.211 17.802 145.211 17.8023 145.211 17.8026C145.211 17.8028 145.211 17.8031 145.211 17.8034C145.211 17.8036 145.211 17.8039 145.211 17.8042C145.211 17.8044 145.211 17.8047 145.211 17.805C145.211 17.8052 145.211 17.8055 145.211 17.8058C145.211 17.806 145.211 17.8063 145.211 17.8066C145.211 17.8068 145.211 17.8071 145.211 17.8074C145.211 17.8077 145.211 17.8079 145.211 17.8082C145.211 17.8085 145.211 17.8087 145.211 17.809C145.211 17.8093 145.211 17.8096 145.211 17.8098C145.211 17.8101 145.211 17.8104 145.211 17.8106C145.211 17.8109 145.211 17.8112 145.211 17.8115C145.211 17.8117 145.211 17.812 145.211 17.8123C145.211 17.8126 145.211 17.8128 145.211 17.8131C145.211 17.8134 145.211 17.8137 145.211 17.8139C145.211 17.8142 145.211 17.8145 145.211 17.8148C145.211 17.815 145.211 17.8153 145.211 17.8156C145.211 17.8159 145.211 17.8162 145.211 17.8164C145.211 17.8167 145.211 17.817 145.211 17.8173C145.211 17.8175 145.211 17.8178 145.211 17.8181C145.211 17.8184 145.211 17.8187 145.211 17.8189C145.211 17.8192 145.211 17.8195 145.211 17.8198C145.211 17.8201 145.211 17.8203 145.211 17.8206C145.211 17.8209 145.211 17.8212 145.211 17.8215C145.211 17.8217 145.211 17.822 145.211 17.8223C145.211 17.8226 145.211 17.8229 145.211 17.8232C145.211 17.8234 145.211 17.8237 145.211 17.824C145.211 17.8243 145.211 17.8246 145.211 17.8249C145.211 17.8251 145.211 17.8254 145.211 17.8257C145.211 17.826 145.211 17.8263 145.211 17.8266C145.211 17.8269 145.211 17.8271 145.211 17.8274C145.211 17.8277 145.211 17.828 145.211 17.8283C145.211 17.8286 145.211 17.8289 145.211 17.8291C145.211 17.8294 145.211 17.8297 145.211 17.83C145.211 17.8303 145.211 17.8306 145.211 17.8309C145.211 17.8312 145.211 17.8315 145.211 17.8317C145.211 17.832 145.211 17.8323 145.211 17.8326C145.211 17.8329 145.211 17.8332 145.211 17.8335C145.211 17.8338 145.211 17.8341 145.211 17.8344C145.211 17.8347 145.211 17.8349 145.211 17.8352C145.211 17.8355 145.211 17.8358 145.211 17.8361C145.211 17.8364 145.211 17.8367 145.211 17.837C145.211 17.8373 145.211 17.8376 145.211 17.8379C145.211 17.8382 145.211 17.8385 145.211 17.8388C145.211 17.8391 145.211 17.8393 145.211 17.8396C145.211 17.8399 145.211 17.8402 145.211 17.8405C145.211 17.8408 145.211 17.8411 145.211 17.8414C145.211 17.8417 145.211 17.842 145.211 17.8423C145.211 17.8426 145.211 17.8429 145.211 17.8432C145.211 17.8435 145.211 17.8438 145.211 17.8441C145.211 17.8444 145.211 17.8447 145.211 17.845C145.211 17.8453 145.211 17.8456 145.211 17.8459C145.211 17.8462 145.211 17.8465 145.211 17.8468C145.211 17.8471 145.211 17.8474 145.211 17.8477C145.211 17.848 145.211 17.8483 145.211 17.8486C145.211 17.8489 145.211 17.8492 145.211 17.8495C145.211 17.8498 145.211 17.8501 145.211 17.8504C145.211 17.8507 145.211 17.851 145.211 17.8513C145.211 17.8516 145.211 17.8519 145.211 17.8523C145.211 17.8526 145.211 17.8529 145.211 17.8532C145.211 17.8535 145.211 17.8538 145.211 17.8541C145.211 17.8544 145.211 17.8547 145.211 17.855C145.211 17.8553 145.211 17.8556 145.211 17.8559C145.211 17.8562 145.211 17.8565 145.211 17.8568C145.211 17.8572 145.211 17.8575 145.211 17.8578C145.211 17.8581 145.211 17.8584 145.211 17.8587C145.211 17.859 145.211 17.8593 145.211 17.8596C145.211 17.8599 145.211 17.8602 145.211 17.8606C145.211 17.8609 145.211 17.8612 145.211 17.8615C145.211 17.8618 145.211 17.8621 145.211 17.8624C145.211 17.8627 145.211 17.8631 145.211 17.8634C145.211 17.8637 145.211 17.864 145.211 17.8643C145.211 17.8646 145.211 17.8649 145.211 17.8652C145.211 17.8656 145.211 17.8659 145.211 17.8662C145.211 17.8665 145.211 17.8668 145.211 17.8671C145.211 17.8674 145.211 17.8678 145.211 17.8681C145.211 17.8684 145.211 17.8687 145.211 17.869C145.211 17.8693 145.211 17.8697 145.211 17.87C145.211 17.8703 145.211 17.8706 145.211 17.8709C145.211 17.8713 145.211 17.8716 145.211 17.8719C145.211 17.8722 145.211 17.8725 145.211 17.8728C145.211 17.8732 145.211 17.8735 145.211 17.8738C145.211 17.8741 145.211 17.8744 145.211 17.8748C145.211 17.8751 145.211 17.8754 145.211 17.8757C145.211 17.876 145.211 17.8764 145.211 17.8767C145.211 17.877 145.211 17.8773 145.211 17.8777C145.211 17.878 145.211 17.8783 145.211 17.8786C145.211 17.879 145.211 17.8793 145.211 17.8796C145.211 17.8799 145.211 17.8802 145.211 17.8806C145.211 17.8809 145.211 17.8812 145.211 17.8815C145.211 17.8819 145.211 17.8822 145.211 17.8825C145.211 17.8828 145.211 17.8832 145.211 17.8835C145.211 17.8838 145.211 17.8842 145.211 17.8845C145.211 17.8848 145.211 17.8851 145.211 17.8855C145.211 17.8858 145.211 17.8861 145.211 17.8865C145.211 17.8868 145.211 17.8871 145.211 17.8874C145.211 17.8878 145.211 17.8881 145.211 17.8884C145.211 17.8888 145.211 17.8891 145.211 17.8894C145.211 17.8897 145.211 17.8901 145.211 17.8904C145.211 17.8907 145.211 17.8911 145.211 17.8914C145.211 17.8917 145.211 17.8921 145.211 17.8924C145.211 17.8927 145.211 17.8931 145.211 17.8934C145.211 17.8937 145.211 17.8941 145.211 17.8944C145.211 17.8947 145.211 17.8951 145.211 17.8954C145.211 17.8957 145.211 17.8961 145.211 17.8964C145.211 17.8967 145.211 17.8971 145.211 17.8974C145.211 17.8977 145.211 17.8981 145.211 17.8984C145.211 17.8988 145.211 17.8991 145.211 17.8994C145.211 17.8998 145.211 17.9001 145.211 17.9004C145.211 17.9008 145.211 17.9011 145.211 17.9015C145.211 17.9018 145.211 17.9021 145.211 17.9025C145.211 17.9028 145.211 17.9032 145.211 17.9035C145.211 17.9038 145.211 17.9042 145.211 17.9045C145.211 17.9049 145.211 17.9052 145.211 17.9055C145.211 17.9059 145.211 17.9062 145.211 17.9066C145.211 17.9069 145.211 17.9072 145.211 17.9076C145.211 17.9079 145.211 17.9083 145.211 17.9086C145.211 17.909 145.211 17.9093 145.211 17.9096C145.211 17.91 145.211 17.9103 145.211 17.9107C145.211 17.911 145.211 17.9114 145.211 17.9117C145.211 17.9121 145.211 17.9124 145.211 17.9128C145.211 17.9131 145.211 17.9134 145.211 17.9138C145.211 17.9141 145.211 17.9145 145.211 17.9148C145.211 17.9152 145.211 17.9155 145.211 17.9159C145.211 17.9162 145.211 17.9166 145.211 17.9169C145.211 17.9173 145.211 17.9176 145.211 17.918C145.211 17.9183 145.211 17.9187 145.211 17.919C145.211 17.9194 145.211 17.9197 145.211 17.9201C145.211 17.9204 145.211 17.9208 145.211 17.9211C145.211 17.9215 145.211 17.9218 145.211 17.9222C145.211 17.9225 145.211 17.9229 145.211 17.9232C145.211 17.9236 145.211 17.9239 145.211 17.9243C145.211 17.9246 145.211 17.925 145.211 17.9253C145.211 17.9257 145.211 17.926 145.211 17.9264C145.211 17.9268 145.211 17.9271 145.211 17.9275C145.211 17.9278 145.211 17.9282 145.211 17.9285C145.211 17.9289 145.211 17.9292 145.211 17.9296C145.211 17.93 145.211 17.9303 145.211 17.9307C145.211 17.931 145.211 17.9314 145.211 17.9317C145.211 17.9321 145.211 17.9325 145.211 17.9328C145.211 17.9332 145.211 17.9335 145.211 17.9339C145.211 17.9343 145.211 17.9346 145.211 17.935C145.211 17.9353 145.211 17.9357 145.211 17.9361C145.211 17.9364 145.211 17.9368 145.211 17.9371C145.211 17.9375 145.211 17.9379 145.211 17.9382C145.211 17.9386 145.211 17.9389 145.211 17.9393C145.211 17.9397 145.211 17.94 145.211 17.9404C145.211 17.9408 145.211 17.9411 145.211 17.9415C145.211 17.9418 145.211 17.9422 145.211 17.9426C145.211 17.9429 145.211 17.9433 145.211 17.9437C145.211 17.944 145.211 17.9444 145.211 17.9448C145.211 17.9451 145.211 17.9455 145.211 17.9459C145.211 17.9462 145.211 17.9466 145.211 17.947C145.211 17.9473 145.211 17.9477 145.211 17.9481C145.211 17.9484 145.211 17.9488 145.211 17.9492C145.211 17.9495 145.211 17.9499 145.211 17.9503C145.211 17.9506 145.211 17.951 145.211 17.9514C145.211 17.9517 145.211 17.9521 145.211 17.9525C145.211 17.9529 145.211 17.9532 145.211 17.9536C145.211 17.954 145.211 17.9543 145.211 17.9547C145.211 17.9551 145.211 17.9555 145.211 17.9558C145.211 17.9562 145.211 17.9566 145.211 17.9569C145.211 17.9573 145.211 17.9577 145.211 17.9581C145.211 17.9584 145.211 17.9588 145.211 17.9592C145.211 17.9596 145.211 17.9599 145.211 17.9603C145.211 17.9607 145.211 17.9611 145.211 17.9614C145.211 17.9618 145.211 17.9622 145.211 17.9626C145.211 17.9629 145.211 17.9633 145.211 17.9637C145.211 17.9641 145.211 17.9644 145.211 17.9648C145.211 17.9652 145.211 17.9656 145.211 17.966C145.211 17.9663 145.211 17.9667 145.211 17.9671C145.211 17.9675 145.211 17.9679 145.211 17.9682C145.211 17.9686 145.211 17.969 145.211 17.9694C145.211 17.9698 145.211 17.9701 145.211 17.9705C145.211 17.9709 145.211 17.9713 145.211 17.9717C145.211 17.972 145.211 17.9724 145.211 17.9728C145.211 17.9732 145.211 17.9736 145.211 17.9739C145.211 17.9743 145.211 17.9747 145.211 17.9751C145.211 17.9755 145.211 17.9759 145.211 17.9762C145.211 17.9766 145.211 17.977 145.211 17.9774C145.211 17.9778 145.211 17.9782 145.211 17.9786C145.211 17.9789 145.211 17.9793 145.211 17.9797C145.211 17.9801 145.211 17.9805 145.211 17.9809C145.211 17.9813 145.211 17.9816 145.211 17.982C145.211 17.9824 145.211 17.9828 145.211 17.9832C145.211 17.9836 145.211 17.984 145.211 17.9844C145.211 17.9848 145.211 17.9851 145.211 17.9855C145.211 17.9859 145.211 17.9863 145.211 17.9867C145.211 17.9871 145.211 17.9875 145.211 17.9879C145.211 17.9883 145.211 17.9887 145.211 17.989C145.211 17.9894 145.211 17.9898 145.211 17.9902C145.211 17.9906 145.211 17.991 145.211 17.9914C145.211 17.9918 145.211 17.9922 145.211 17.9926C145.211 17.993 145.211 17.9934 145.211 17.9938C145.211 17.9942 145.211 17.9945 145.211 17.9949C145.211 17.9953 145.211 17.9957 145.211 17.9961C145.211 17.9965 145.211 17.9969 145.211 17.9973C145.211 17.9977 145.211 17.9981 145.211 17.9985C145.211 17.9989 145.211 17.9993 145.211 17.9997C145.211 18.0001 145.211 18.0005 145.211 18.0009C145.211 18.0013 145.211 18.0017 145.211 18.0021C145.211 18.0025 145.211 18.0029 145.211 18.0033C145.211 18.0037 145.211 18.0041 145.211 18.0045C145.211 18.0049 145.211 18.0053 145.211 18.0057C145.211 18.0061 145.211 18.0065 145.211 18.0069C145.211 18.0073 145.211 18.0077 145.211 18.0081C145.211 18.0085 145.211 18.0089 145.211 18.0093C145.211 18.0097 145.211 18.0101 145.211 18.0105C145.211 18.0109 145.211 18.0113 145.211 18.0117C145.211 18.0121 145.211 18.0125 145.211 18.0129C145.211 18.0133 145.211 18.0137 145.211 18.0141C145.211 18.0145 145.211 18.015 145.211 18.0154C145.211 18.0158 145.211 18.0162 145.211 18.0166C145.211 18.017 145.211 18.0174 145.211 18.0178C145.211 18.0182 145.211 18.0186 145.211 18.019C145.211 18.0194 145.211 18.0198 145.211 18.0202C145.211 18.0207 145.211 18.0211 145.211 18.0215C145.211 18.0219 145.211 18.0223 145.211 18.0227C145.211 18.0231 145.211 18.0235 145.211 18.0239C145.211 18.0243 145.211 18.0248 145.211 18.0252C145.211 18.0256 145.211 18.026 145.211 18.0264C145.211 18.0268 145.211 18.0272 145.211 18.0276C145.211 18.028 145.211 18.0285 145.211 18.0289C145.211 18.0293 145.211 18.0297 145.211 18.0301C145.211 18.0305 145.211 18.0309 145.211 18.0314C145.211 18.0318 145.211 18.0322 145.211 18.0326C145.211 18.033 145.211 18.0334 145.211 18.0338C145.211 18.0343 145.211 18.0347 145.211 18.0351C145.211 18.0355 145.211 18.0359 145.211 18.0363C145.211 18.0368 145.211 18.0372 145.211 18.0376C145.211 18.038 145.211 18.0384 145.211 18.0389C145.211 18.0393 145.211 18.0397 145.211 18.0401C145.211 18.0405 145.211 18.0409 145.211 18.0414C145.211 18.0418 145.211 18.0422 145.211 18.0426C145.211 18.043 145.211 18.0435 145.211 18.0439C145.211 18.0443 145.211 18.0447 145.211 18.0452C145.211 18.0456 145.211 18.046 145.211 18.0464C145.211 18.0468 145.211 18.0473 145.211 18.0477C145.211 18.0481 145.211 18.0485 145.211 18.049C145.211 18.0494 145.211 18.0498 145.211 18.0502C145.211 18.0507 145.211 18.0511 145.211 18.0515C145.211 18.0519 145.211 18.0524 145.211 18.0528C145.211 18.0532 145.211 18.0536 145.211 18.0541C145.211 18.0545 145.211 18.0549 145.211 18.0553C145.211 18.0558 145.211 18.0562 145.211 18.0566C145.211 18.0571 145.211 18.0575 145.211 18.0579C145.211 18.0583 145.211 18.0588 145.211 18.0592C145.211 18.0596 145.211 18.0601 145.211 18.0605C145.211 18.0609 145.211 18.0613 145.211 18.0618C145.211 18.0622 145.211 18.0626 145.211 18.0631C145.211 18.0635 145.211 18.0639 145.211 18.0644C145.211 18.0648 145.211 18.0652 145.211 18.0657C145.211 18.0661 145.211 18.0665 145.211 18.067C145.211 18.0674 145.211 18.0678 145.211 18.0683C145.211 18.0687 145.211 18.0691 145.211 18.0696C145.211 18.07 145.211 18.0704 145.211 18.0709C145.211 18.0713 145.211 18.0717 145.211 18.0722C145.211 18.0726 145.211 18.073 145.211 18.0735C145.211 18.0739 145.211 18.0743 145.211 18.0748C145.211 18.0752 145.211 18.0757 145.211 18.0761C145.211 18.0765 145.211 18.077 145.211 18.0774C145.211 18.0778 145.211 18.0783 145.211 18.0787C145.211 18.0792 145.211 18.0796 145.211 18.08C145.211 18.0805 145.211 18.0809 145.211 18.0814C145.211 18.0818 145.211 18.0822 145.211 18.0827C145.211 18.0831 145.211 18.0836 145.211 18.084C145.211 18.0845 145.211 18.0849 145.211 18.0853C145.211 18.0858 145.211 18.0862 145.211 18.0867C145.211 18.0871 145.211 18.0876 145.211 18.088C145.211 18.0884 145.211 18.0889 145.211 18.0893C145.211 18.0898 145.211 18.0902 145.211 18.0907C145.211 18.0911 145.211 18.0915 145.211 18.092C145.211 18.0924 145.211 18.0929 145.211 18.0933C145.211 18.0938 145.211 18.0942 145.211 18.0947C145.211 18.0951 145.211 18.0956 145.211 18.096C145.211 18.0965 145.211 18.0969 145.211 18.0974C145.211 18.0978 145.211 18.0983 145.211 18.0987C145.211 18.0992 145.211 18.0996 145.211 18.1001C145.211 18.1005 145.211 18.101 145.211 18.1014C145.211 18.1019 145.211 18.1023 145.211 18.1028C145.211 18.1032 145.211 18.1037 145.211 18.1041C145.211 18.1046 145.211 18.105 145.211 18.1055C145.211 18.1059 145.211 18.1064 145.211 18.1068C145.211 18.1073 145.211 18.1077 145.211 18.1082C145.211 18.1086 145.211 18.1091 145.211 18.1095C145.211 18.11 145.211 18.1105 145.211 18.1109C145.211 18.1114 145.211 18.1118 145.211 18.1123C145.211 18.1127 145.211 18.1132 145.211 18.1136C145.211 18.1141 145.211 18.1146 145.211 18.115C145.211 18.1155 145.211 18.1159 145.211 18.1164C145.211 18.1168 145.211 18.1173 145.211 18.1178C145.211 18.1182 145.211 18.1187 145.211 18.1191C145.211 18.1196 145.211 18.12 145.211 18.1205C145.211 18.121 145.211 18.1214 145.211 18.1219C145.211 18.1223 145.211 18.1228 145.211 18.1233C145.211 18.1237 145.211 18.1242 145.211 18.1247C145.211 18.1251 145.211 18.1256 145.211 18.126C145.211 18.1265 145.211 18.127 145.211 18.1274C145.211 18.1279 145.211 18.1283 145.211 18.1288C145.211 18.1293 145.211 18.1297 145.211 18.1302C145.211 18.1307 145.211 18.1311 145.211 18.1316C145.211 18.1321 145.211 18.1325 145.211 18.133C145.211 18.1335 145.211 18.1339 145.211 18.1344C145.211 18.1349 145.211 18.1353 145.211 18.1358C145.211 18.1363 145.211 18.1367 145.211 18.1372C145.211 18.1377 145.211 18.1381 145.211 18.1386C145.211 18.1391 145.211 18.1395 145.211 18.14H147.211ZM147.21 17.6502C147.179 16.5992 146.9 15.6509 146.29 14.893L144.732 16.147C145.002 16.4824 145.189 16.9741 145.211 17.7098L147.21 17.6502ZM146.29 14.893C145.659 14.1092 144.794 13.6955 143.784 13.6414L143.677 15.6386C144.161 15.6645 144.483 15.8375 144.732 16.147L146.29 14.893ZM143.773 13.6409C143.434 13.6267 143.019 13.62 142.531 13.62V15.62C143.003 15.62 143.388 15.6266 143.689 15.6391L143.773 13.6409ZM152.481 27.44L151.774 26.7329L152.481 27.44ZM152.881 26.54L153.88 26.5784L153.881 26.5592V26.54H152.881ZM152.881 15.44H153.881V15.4208L153.88 15.4016L152.881 15.44ZM152.481 14.56L151.774 15.2671L151.783 15.2767L151.793 15.286L152.481 14.56ZM151.341 14.2H150.341V15.2H151.341V14.2ZM151.341 14V13H150.341V14H151.341ZM155.721 14H156.721V13H155.721V14ZM155.721 14.2V15.2H156.721V14.2H155.721ZM154.561 14.56L153.873 13.834L153.863 13.8433L153.854 13.8529L154.561 14.56ZM154.181 15.44L153.181 15.4016L153.181 15.4208V15.44H154.181ZM154.561 27.44L153.854 28.1471L153.863 28.1567L153.873 28.166L154.561 27.44ZM155.721 27.8H156.721V26.8H155.721V27.8ZM155.721 28V29H156.721V28H155.721ZM151.341 28H150.341V29H151.341V28ZM151.341 27.8V26.8H150.341V27.8H151.341ZM151.601 28.8C152.206 28.8 152.756 28.5791 153.188 28.1471L151.774 26.7329C151.726 26.7809 151.688 26.8 151.601 26.8V28.8ZM153.188 28.1471C153.613 27.7221 153.857 27.1858 153.88 26.5784L151.881 26.5016C151.878 26.5876 151.855 26.6513 151.774 26.7329L153.188 28.1471ZM153.881 26.54V15.44H151.881V26.54H153.881ZM153.88 15.4016C153.856 14.7921 153.61 14.2525 153.168 13.834L151.793 15.286C151.858 15.3475 151.878 15.3946 151.881 15.4784L153.88 15.4016ZM153.188 13.8529C152.756 13.4209 152.206 13.2 151.601 13.2V15.2C151.688 15.2 151.726 15.2191 151.774 15.2671L153.188 13.8529ZM151.601 13.2H151.341V15.2H151.601V13.2ZM152.341 14.2V14H150.341V14.2H152.341ZM151.341 15H155.721V13H151.341V15ZM154.721 14V14.2H156.721V14H154.721ZM155.721 13.2H155.461V15.2H155.721V13.2ZM155.461 13.2C154.856 13.2 154.311 13.4194 153.873 13.834L155.248 15.286C155.317 15.2206 155.372 15.2 155.461 15.2V13.2ZM153.854 13.8529C153.431 14.2753 153.204 14.8093 153.181 15.4016L155.18 15.4784C155.184 15.3773 155.21 15.3247 155.268 15.2671L153.854 13.8529ZM153.181 15.44V26.54H155.181V15.44H153.181ZM153.181 26.54C153.181 27.1616 153.42 27.7133 153.854 28.1471L155.268 26.7329C155.195 26.6601 155.181 26.6117 155.181 26.54H153.181ZM153.873 28.166C154.311 28.5806 154.856 28.8 155.461 28.8V26.8C155.372 26.8 155.317 26.7794 155.248 26.714L153.873 28.166ZM155.461 28.8H155.721V26.8H155.461V28.8ZM154.721 27.8V28H156.721V27.8H154.721ZM155.721 27H151.341V29H155.721V27ZM152.341 28V27.8H150.341V28H152.341ZM151.341 28.8H151.601V26.8H151.341V28.8ZM166.338 15.9V16.9H167.338V15.9H166.338ZM166.138 15.9H165.138V16.9H166.138V15.9ZM165.858 14.92L165.127 15.6023L165.139 15.6149L165.151 15.6271L165.858 14.92ZM160.938 14.62V13.62H159.938V14.62H160.938ZM160.938 20.8H159.938V21.8H160.938V20.8ZM164.318 20.8V21.8H164.343L164.368 21.7988L164.318 20.8ZM165.278 19.52V18.52H164.278V19.52H165.278ZM165.478 19.52H166.478V18.52H165.478V19.52ZM165.478 22.68V23.68H166.478V22.68H165.478ZM165.278 22.68H164.278V23.68H165.278V22.68ZM164.998 21.7L164.266 22.3805L164.278 22.394L164.291 22.4071L164.998 21.7ZM164.338 21.4L164.388 20.4012L164.363 20.4H164.338V21.4ZM160.938 21.4V20.4H159.938V21.4H160.938ZM161.318 27.44L160.611 28.1471L160.621 28.1567L160.631 28.166L161.318 27.44ZM162.478 27.8H163.478V26.8H162.478V27.8ZM162.478 28V29H163.478V28H162.478ZM158.098 28H157.098V29H158.098V28ZM158.098 27.8V26.8H157.098V27.8H158.098ZM159.238 27.44L158.531 26.7329L159.238 27.44ZM159.638 26.54L160.638 26.5784L160.638 26.5592V26.54H159.638ZM159.238 14.54L158.572 15.2852L158.592 15.3036L158.614 15.3209L159.238 14.54ZM158.118 14.2L157.123 14.2995L157.213 15.2H158.118V14.2ZM158.098 14V13H156.993L157.103 14.0995L158.098 14ZM165.298 13.88L165.138 12.8929L165.134 12.8936L165.298 13.88ZM166.338 13.64H167.338V12.163L165.967 12.7115L166.338 13.64ZM165.338 14.22V15.9H167.338V14.22H165.338ZM166.338 14.9H166.138V16.9H166.338V14.9ZM167.138 15.9V15.6H165.138V15.9H167.138ZM167.138 15.6C167.138 15.0711 166.942 14.5892 166.566 14.2129L165.151 15.6271C165.156 15.6315 165.156 15.6321 165.153 15.6283C165.15 15.6245 165.147 15.6184 165.144 15.6107C165.141 15.6031 165.139 15.5969 165.138 15.5934C165.138 15.5901 165.138 15.5919 165.138 15.6H167.138ZM166.589 14.2377C166.209 13.8297 165.708 13.62 165.158 13.62V15.62C165.169 15.62 165.172 15.6209 165.168 15.6203C165.165 15.6196 165.158 15.6179 165.15 15.6141C165.141 15.6104 165.133 15.6061 165.128 15.6025C165.124 15.599 165.123 15.5981 165.127 15.6023L166.589 14.2377ZM165.158 13.62H160.938V15.62H165.158V13.62ZM159.938 14.62V20.8H161.938V14.62H159.938ZM160.938 21.8H164.318V19.8H160.938V21.8ZM164.368 21.7988C164.88 21.7732 165.341 21.5713 165.706 21.2071L164.291 19.7929C164.285 19.7994 164.281 19.8019 164.281 19.802C164.281 19.8021 164.282 19.8012 164.285 19.8001C164.287 19.799 164.288 19.7988 164.287 19.7991C164.286 19.7995 164.28 19.8007 164.269 19.8012L164.368 21.7988ZM165.706 21.2071C166.082 20.8308 166.278 20.3489 166.278 19.82H164.278C164.278 19.8281 164.278 19.8299 164.278 19.8266C164.279 19.8231 164.281 19.8169 164.284 19.8092C164.287 19.8016 164.29 19.7955 164.293 19.7917C164.296 19.7879 164.296 19.7885 164.291 19.7929L165.706 21.2071ZM166.278 19.82V19.52H164.278V19.82H166.278ZM165.278 20.52H165.478V18.52H165.278V20.52ZM164.478 19.52V22.68H166.478V19.52H164.478ZM165.478 21.68H165.278V23.68H165.478V21.68ZM166.278 22.68V22.38H164.278V22.68H166.278ZM166.278 22.38C166.278 21.8511 166.082 21.3692 165.706 20.9929L164.291 22.4071C164.296 22.4115 164.296 22.4121 164.293 22.4083C164.29 22.4045 164.287 22.3984 164.284 22.3907C164.281 22.3831 164.279 22.3769 164.278 22.3734C164.278 22.3701 164.278 22.3719 164.278 22.38H166.278ZM165.731 21.0195C165.371 20.6319 164.902 20.4269 164.388 20.4012L164.288 22.3988C164.3 22.3993 164.304 22.4004 164.303 22.4002C164.302 22.3999 164.297 22.3986 164.29 22.3954C164.282 22.3921 164.276 22.3882 164.271 22.3844C164.266 22.3807 164.264 22.3787 164.266 22.3805L165.731 21.0195ZM164.338 20.4H160.938V22.4H164.338V20.4ZM159.938 21.4V26.54H161.938V21.4H159.938ZM159.938 26.54C159.938 27.1616 160.177 27.7133 160.611 28.1471L162.026 26.7329C161.953 26.6601 161.938 26.6117 161.938 26.54H159.938ZM160.631 28.166C161.068 28.5806 161.614 28.8 162.218 28.8V26.8C162.13 26.8 162.075 26.7794 162.006 26.714L160.631 28.166ZM162.218 28.8H162.478V26.8H162.218V28.8ZM161.478 27.8V28H163.478V27.8H161.478ZM162.478 27H158.098V29H162.478V27ZM159.098 28V27.8H157.098V28H159.098ZM158.098 28.8H158.358V26.8H158.098V28.8ZM158.358 28.8C158.964 28.8 159.514 28.5791 159.946 28.1471L158.531 26.7329C158.483 26.7809 158.446 26.8 158.358 26.8V28.8ZM159.946 28.1471C160.371 27.7221 160.614 27.1858 160.638 26.5784L158.639 26.5016C158.636 26.5876 158.613 26.6513 158.531 26.7329L159.946 28.1471ZM160.638 26.54V15.34H158.638V26.54H160.638ZM160.638 15.34C160.638 14.6935 160.349 14.1476 159.863 13.7591L158.614 15.3209C158.633 15.3361 158.642 15.3463 158.645 15.3502C158.648 15.3538 158.647 15.3527 158.644 15.3472C158.641 15.3415 158.639 15.3357 158.638 15.3316C158.637 15.3278 158.638 15.3298 158.638 15.34H160.638ZM159.905 13.7948C159.473 13.4076 158.943 13.2 158.358 13.2V15.2C158.44 15.2 158.498 15.219 158.572 15.2852L159.905 13.7948ZM158.358 13.2H158.118V15.2H158.358V13.2ZM159.113 14.1005L159.093 13.9005L157.103 14.0995L157.123 14.2995L159.113 14.1005ZM158.098 15H163.958V13H158.098V15ZM163.958 15C164.436 15 164.938 14.9539 165.463 14.8664L165.134 12.8936C164.699 12.9661 164.308 13 163.958 13V15ZM165.459 14.8671C165.955 14.7866 166.398 14.6932 166.71 14.5685L165.967 12.7115C165.879 12.7468 165.629 12.8134 165.138 12.8929L165.459 14.8671ZM165.338 13.64V14.22H167.338V13.64H165.338ZM181.179 14.2V15.2H182.179V14.2H181.179ZM179.759 14.54L180.283 15.3917L180.292 15.3862L179.759 14.54ZM178.879 15.36L178.067 14.7757L178.046 14.805L178.027 14.8358L178.879 15.36ZM174.939 21.76L174.087 21.2358L173.939 21.4769V21.76H174.939ZM175.299 27.44L174.573 28.1277L174.591 28.1474L174.611 28.166L175.299 27.44ZM176.459 27.8H177.459V26.8H176.459V27.8ZM176.459 28V29H177.459V28H176.459ZM172.099 28H171.099V29H172.099V28ZM172.099 27.8V26.8H171.099V27.8H172.099ZM173.239 27.44L172.551 26.714L172.541 26.7233L172.532 26.7329L173.239 27.44ZM173.639 26.56L174.638 26.5984L174.639 26.5792V26.56H173.639ZM173.639 21.74H174.639V21.4635L174.497 21.2263L173.639 21.74ZM169.819 15.36L170.677 14.8463L170.672 14.8381L170.667 14.83L169.819 15.36ZM168.959 14.54L168.426 15.3862L168.433 15.3906L168.44 15.3948L168.959 14.54ZM167.539 14.2H166.539V15.2H167.539V14.2ZM167.539 14V13H166.539V14H167.539ZM172.459 14H173.459V13H172.459V14ZM172.459 14.2V15.2H173.459V14.2H172.459ZM171.519 14.6L170.661 14.0855L170.651 14.1031L170.641 14.1211L171.519 14.6ZM171.499 15.44L170.604 15.8872L170.611 15.8998L170.617 15.9122L171.499 15.44ZM174.499 21.04L173.617 21.5122L174.472 23.1078L175.368 21.5348L174.499 21.04ZM177.699 15.42L178.568 15.9148L178.581 15.8914L178.593 15.8672L177.699 15.42ZM177.659 14.6L176.801 15.1145L176.808 15.1258L176.815 15.1369L177.659 14.6ZM176.739 14.2H175.739V15.2H176.739V14.2ZM176.739 14V13H175.739V14H176.739ZM181.179 14H182.179V13H181.179V14ZM181.179 13.2H180.899V15.2H181.179V13.2ZM180.899 13.2C180.298 13.2 179.735 13.3733 179.226 13.6938L180.292 15.3862C180.503 15.2534 180.699 15.2 180.899 15.2V13.2ZM179.235 13.6883C178.774 13.9716 178.384 14.3361 178.067 14.7757L179.69 15.9443C179.854 15.7172 180.05 15.5351 180.283 15.3917L179.235 13.6883ZM178.027 14.8358L174.087 21.2358L175.79 22.2842L179.73 15.8842L178.027 14.8358ZM173.939 21.76V26.54H175.939V21.76H173.939ZM173.939 26.54C173.939 27.1444 174.158 27.69 174.573 28.1277L176.025 26.7523C175.959 26.6833 175.939 26.6289 175.939 26.54H173.939ZM174.611 28.166C175.056 28.588 175.612 28.8 176.219 28.8V26.8C176.106 26.8 176.048 26.772 175.986 26.714L174.611 28.166ZM176.219 28.8H176.459V26.8H176.219V28.8ZM175.459 27.8V28H177.459V27.8H175.459ZM176.459 27H172.099V29H176.459V27ZM173.099 28V27.8H171.099V28H173.099ZM172.099 28.8H172.359V26.8H172.099V28.8ZM172.359 28.8C172.964 28.8 173.514 28.5791 173.946 28.1471L172.532 26.7329C172.484 26.7809 172.447 26.8 172.359 26.8V28.8ZM173.926 28.166C174.368 27.7475 174.615 27.2079 174.638 26.5984L172.639 26.5216C172.636 26.6054 172.616 26.6525 172.551 26.714L173.926 28.166ZM174.639 26.56V21.74H172.639V26.56H174.639ZM174.497 21.2263L170.677 14.8463L168.961 15.8737L172.781 22.2537L174.497 21.2263ZM170.667 14.83C170.372 14.3581 169.964 13.9802 169.478 13.6852L168.44 15.3948C168.701 15.5532 168.866 15.7219 168.971 15.89L170.667 14.83ZM169.492 13.6938C168.983 13.3733 168.419 13.2 167.819 13.2V15.2C168.018 15.2 168.215 15.2534 168.426 15.3862L169.492 13.6938ZM167.819 13.2H167.539V15.2H167.819V13.2ZM168.539 14.2V14H166.539V14.2H168.539ZM167.539 15H172.459V13H167.539V15ZM171.459 14V14.2H173.459V14H171.459ZM172.459 13.2H172.199V15.2H172.459V13.2ZM172.199 13.2C171.529 13.2 170.989 13.5397 170.661 14.0855L172.376 15.1145C172.386 15.0983 172.371 15.1297 172.316 15.1619C172.29 15.1771 172.264 15.1875 172.24 15.1937C172.216 15.1996 172.202 15.2 172.199 15.2V13.2ZM170.641 14.1211C170.492 14.394 170.399 14.7039 170.399 15.04H172.399C172.399 15.0587 172.396 15.0738 172.394 15.0831C172.391 15.0918 172.39 15.0906 172.397 15.0789L170.641 14.1211ZM170.399 15.04C170.399 15.3461 170.477 15.6316 170.604 15.8872L172.393 14.9928C172.39 14.9859 172.391 14.9877 172.394 14.9975C172.396 15.0077 172.399 15.0224 172.399 15.04H170.399ZM170.617 15.9122L173.617 21.5122L175.38 20.5678L172.38 14.9678L170.617 15.9122ZM175.368 21.5348L178.568 15.9148L176.83 14.9252L173.63 20.5452L175.368 21.5348ZM178.593 15.8672C178.721 15.6116 178.799 15.3261 178.799 15.02H176.799C176.799 15.0024 176.801 14.9877 176.804 14.9775C176.806 14.9677 176.808 14.9659 176.804 14.9728L178.593 15.8672ZM178.799 15.02C178.799 14.6467 178.667 14.3223 178.502 14.0631L176.815 15.1369C176.837 15.171 176.799 15.1266 176.799 15.02H178.799ZM178.516 14.0855C178.189 13.5397 177.648 13.2 176.979 13.2V15.2C176.976 15.2 176.961 15.1996 176.938 15.1937C176.914 15.1875 176.888 15.1771 176.862 15.1619C176.807 15.1297 176.792 15.0983 176.801 15.1145L178.516 14.0855ZM176.979 13.2H176.739V15.2H176.979V13.2ZM177.739 14.2V14H175.739V14.2H177.739ZM176.739 15H181.179V13H176.739V15ZM180.179 14V14.2H182.179V14H180.179Z" fill="#565656" fill-opacity="0.3"/>
</g>
<defs>
<filter id="filter0_d_10_2" x="106.879" y="13.64" width="78.3002" height="22.64" filterUnits="userSpaceOnUse" color-interpolation-filters="sRGB">
<feFlood flood-opacity="0" result="BackgroundImageFix"/>
<feColorMatrix in="SourceAlpha" type="matrix" values="0 0 0 0 0 0 0 0 0 0 0 0 0 0 0 0 0 0 127 0" result="hardAlpha"/>
<feOffset dy="4"/>
<feGaussianBlur stdDeviation="2"/>
<feComposite in2="hardAlpha" operator="out"/>
<feColorMatrix type="matrix" values="0 0 0 0 0 0 0 0 0 0 0 0 0 0 0 0 0 0 0.25 0"/>
<feBlend mode="normal" in2="BackgroundImageFix" result="effect1_dropShadow_10_2"/>
<feBlend mode="normal" in="SourceGraphic" in2="effect1_dropShadow_10_2" result="shape"/>
</filter>
</defs>
</svg>
