<svg width="130" height="130" viewBox="0 0 130 130" fill="none" xmlns="http://www.w3.org/2000/svg">
<circle cx="65" cy="65" r="65" fill="black" fill-opacity="0.57"/>
<path d="M99.1635 58.5899C99.1635 52.2513 97.2654 17.3885 65.0001 17.3885C32.7349 17.3885 30.8368 52.2513 30.8368 58.5899C30.8368 72.8519 25.1429 79.1907 25.1429 79.1907C36.5307 90.2833 55.5101 82.6174 55.5101 79.1907H65.0001H74.4899C74.4899 82.6174 93.4695 90.2833 104.857 79.1907C104.857 79.1907 99.1635 72.8521 99.1635 58.5899Z" fill="#FFD782"/>
<path d="M78.2858 78.9336V71.2673H51.7145V78.9336C51.7145 80.9798 50.1462 82.7965 47.821 83.4435L29.7336 88.4774C25.8586 89.5559 23.2451 92.5838 23.2451 95.9942V106.13C23.2451 107.88 24.9444 109.299 27.0409 109.299H102.959C105.056 109.299 106.755 107.88 106.755 106.13V95.9942C106.755 92.5838 104.141 89.5559 100.266 88.4774L82.1789 83.4435C79.854 82.7963 78.2858 80.9797 78.2858 78.9336Z" fill="#E6AF78"/>
<path d="M51.7144 78.9336C51.7144 80.8517 50.327 82.5549 48.2397 83.2954C69.5078 86.3216 78.28 73.6444 78.28 73.6444L78.286 73.641V71.2673H51.7144V78.9336Z" fill="#D29B6E"/>
<path d="M40.3266 36.4046V43.237C40.3266 46.0762 40.4571 48.9141 40.7179 51.7447L41.8116 63.6157C42.0731 66.4533 43.843 69.0438 46.6352 70.6758L58.0966 77.3743C60.1191 78.5564 62.5282 79.1907 64.9971 79.1907H65.0027C67.4714 79.1907 69.8807 78.5566 71.9032 77.3743L83.3646 70.6758C86.1571 69.0438 87.927 66.4533 88.1882 63.6157L89.2819 51.7447C89.5427 48.9141 89.6734 46.076 89.6734 43.237V36.4046H40.3266Z" fill="#F0C087"/>
<path d="M89.5313 36.4046H40.3266V43.2374C40.3266 44.1179 40.3623 44.9977 40.3872 45.8778V45.8784C40.4173 46.9366 40.4655 47.9939 40.5319 49.0509V49.0515V49.0516C40.5885 49.9496 40.6353 50.8478 40.7179 51.7445L41.8116 63.6155C42.0731 66.4531 43.8432 69.0437 46.6354 70.6756L58.0968 77.3742C60.1193 78.5561 62.5284 79.1901 64.9973 79.1901C61.9516 79.1901 58.6042 74.8129 56.5041 71.4933C55.1205 69.3067 54.3822 66.8827 54.3269 64.4101L54.0064 50.0619C53.981 48.9209 54.9711 47.9503 56.3177 47.7552C66.4959 46.2803 74.5755 43.8703 79.1942 42.1677C82.8557 47.221 87.6782 48.7325 88.3034 48.9109L88.9005 49.0813H89.4662C89.5328 48.0254 89.5814 46.9691 89.6122 45.9119L89.5313 36.4046Z" fill="#E6AF78"/>
<path d="M36.65 54.7424L38.7936 61.9007C39.0475 62.7489 39.9602 63.3438 41.0073 63.3438C42.1582 63.3438 43.1287 62.6282 43.2715 61.6748L44.3676 54.3534C44.6604 52.3958 42.8318 50.6665 40.4689 50.6665H40.4616C37.9057 50.6665 36.0302 52.6722 36.65 54.7424Z" fill="#E6AF78"/>
<path d="M93.3501 54.7424L91.2066 61.9007C90.9526 62.7489 90.0399 63.3438 88.9929 63.3438C87.842 63.3438 86.8715 62.6282 86.7287 61.6748L85.6326 54.3534C85.3398 52.3958 87.1684 50.6665 89.5313 50.6665H89.5386C92.0945 50.6665 93.97 52.6722 93.3501 54.7424Z" fill="#F0C087"/>
<path d="M38.4288 34.8198V45.9125C60.9149 45.9125 78.0319 39.3764 80.8987 37.9322C83.9797 44.3277 89.5313 45.9125 89.5313 45.9125H91.5717V34.8198H38.4288Z" fill="#FFD782"/>
<path d="M36.5307 86.5857V109.299H55.5103C46.2146 101.538 41.9791 89.5572 40.7359 85.4155L36.5307 86.5857Z" fill="#FF6464"/>
<path d="M93.4695 86.5857V109.299H74.4899C83.7856 101.538 88.0211 89.5572 89.2643 85.4155L93.4695 86.5857Z" fill="#FF6464"/>
<path d="M65.0001 104.545C63.952 104.545 63.1021 105.255 63.1021 106.13V109.299H66.8979V106.13C66.8981 105.255 66.0482 104.545 65.0001 104.545Z" fill="#D29B6E"/>
<path d="M65.0001 90.2832C56.0544 90.2832 48.7013 87.1839 47.1181 82.7463C46.819 81.9076 47.3905 81.0251 48.3952 80.7752C49.3988 80.5257 50.4566 81.0027 50.7559 81.8415C51.9333 85.1419 58.9228 87.1139 65.0001 87.1139C71.0773 87.1139 78.0669 85.1417 79.2442 81.8415C79.5433 81.003 80.6009 80.5263 81.605 80.7752C82.6097 81.0253 83.1814 81.9076 82.8821 82.7463C81.2988 87.1839 73.9453 90.2832 65.0001 90.2832Z" fill="#FFC36E"/>
<path d="M65.0001 98.2067C68.1447 98.2067 70.694 96.0782 70.694 93.4526C70.694 90.827 68.1447 88.6986 65.0001 88.6986C61.8554 88.6986 59.3062 90.827 59.3062 93.4526C59.3062 96.0782 61.8554 98.2067 65.0001 98.2067Z" fill="#FFD782"/>
<path d="M65.0001 95.8296C66.5724 95.8296 67.847 94.7654 67.847 93.4526C67.847 92.1399 66.5724 91.0757 65.0001 91.0757C63.4278 91.0757 62.1533 92.1399 62.1533 93.4526C62.1533 94.7654 63.4278 95.8296 65.0001 95.8296Z" fill="#FF6464"/>
<path d="M66.6015 95.0374C65.0291 95.0374 63.7546 93.973 63.7546 92.6604C63.7546 92.0704 64.0214 91.5378 64.4473 91.1222C63.1399 91.3372 62.1533 92.298 62.1533 93.4528C62.1533 94.7656 63.428 95.8297 65.0001 95.8297C65.8657 95.8297 66.632 95.5002 67.1542 94.9911C66.9751 95.0203 66.7909 95.0374 66.6015 95.0374Z" fill="#D2555A"/>
</svg>
