<svg width="197" height="55" viewBox="0 0 197 55" fill="none" xmlns="http://www.w3.org/2000/svg">
<g filter="url(#filter0_b_52_2)">
<rect width="197" height="55" rx="27.5" fill="black" fill-opacity="0.8"/>
<rect x="1" y="1" width="195" height="53" rx="26.5" stroke="#F9E74F" stroke-width="2"/>
</g>
<path d="M53.2825 12.0319H42.4952L33.3889 26.6077H40.9487L38.0525 37.337L53.4121 23.754H43.278L53.2825 12.0319Z" fill="#F9E74F" fill-opacity="0.25"/>
<g filter="url(#filter1_d_52_2)">
<path d="M60.6165 20.7221H50.0357L59.5502 9.57876C59.7472 9.3428 59.5694 9 59.2477 9H40.8286C40.6941 9 40.5644 9.06678 40.4972 9.17808L28.0529 29.1008C27.904 29.3367 28.0866 29.635 28.3843 29.635H36.7606L32.4668 45.5554C32.3755 45.9026 32.827 46.1475 33.1056 45.8982L60.8806 21.332C61.1304 21.1139 60.9623 20.7221 60.6165 20.7221ZM38.0525 37.337L40.9487 26.6077H33.3889L42.4952 12.0318H53.2825L43.2781 23.7539H53.4122L38.0525 37.337Z" fill="#F9E74F"/>
<path d="M49.6555 20.3975L48.9513 21.2221H50.0357H60.2502L33.0618 45.2694L37.2433 29.7652L37.4133 29.135H36.7606H28.6211L40.8856 9.5H58.96L49.6555 20.3975ZM37.5698 37.2067L37.1356 38.8153L38.3838 37.7115L53.7434 24.1285L54.7323 23.2539H53.4122H44.3621L53.6628 12.3564L54.3666 11.5318H53.2825H42.4952H42.218L42.0712 11.7669L32.9649 26.3427L32.487 27.1077H33.3889H40.2958L37.5698 37.2067Z" stroke="black" stroke-opacity="0.5"/>
</g>
<path d="M87.0322 40C84.6922 40 82.9522 39.49 81.8122 38.47C80.6922 37.43 80.1322 35.85 80.1322 33.73V25.27C80.1322 23.15 80.6922 21.58 81.8122 20.56C82.9522 19.52 84.6922 19 87.0322 19H94.2622V20.74H87.0322C85.4122 20.74 84.2122 21.11 83.4322 21.85C82.6722 22.59 82.2922 23.73 82.2922 25.27V28.63H92.7322V30.37H82.2922V33.73C82.2922 35.27 82.6722 36.41 83.4322 37.15C84.2122 37.89 85.4122 38.26 87.0322 38.26H94.4422V40H87.0322ZM114.811 19V36.88C114.811 37.94 114.591 38.73 114.151 39.25C113.711 39.75 113.031 40 112.111 40H110.581L100.711 22.24V40H98.641V19H101.221L111.721 38.11H111.931C112.231 38.11 112.441 38 112.561 37.78C112.681 37.56 112.741 37.17 112.741 36.61V19H114.811ZM125.005 20.74H118.195V19H133.975V20.74H127.165V40H125.005V20.74ZM143.077 40C140.737 40 138.997 39.49 137.857 38.47C136.737 37.43 136.177 35.85 136.177 33.73V25.27C136.177 23.15 136.737 21.58 137.857 20.56C138.997 19.52 140.737 19 143.077 19H150.307V20.74H143.077C141.457 20.74 140.257 21.11 139.477 21.85C138.717 22.59 138.337 23.73 138.337 25.27V28.63H148.777V30.37H138.337V33.73C138.337 35.27 138.717 36.41 139.477 37.15C140.257 37.89 141.457 38.26 143.077 38.26H150.487V40H143.077ZM170.466 40H168.156L166.716 34.6C166.436 33.56 166.116 32.75 165.756 32.17C165.396 31.59 164.896 31.17 164.256 30.91C163.636 30.63 162.786 30.49 161.706 30.49H156.846V40H154.686V19H163.686C165.646 19 167.136 19.49 168.156 20.47C169.196 21.45 169.716 22.83 169.716 24.61C169.716 26.11 169.356 27.31 168.636 28.21C167.936 29.09 166.936 29.64 165.636 29.86C166.516 30.18 167.196 30.71 167.676 31.45C168.176 32.19 168.616 33.24 168.996 34.6L170.466 40ZM163.446 28.75C164.746 28.75 165.756 28.4 166.476 27.7C167.196 27 167.556 26.02 167.556 24.76C167.556 23.48 167.196 22.49 166.476 21.79C165.756 21.09 164.746 20.74 163.446 20.74H156.846V28.75H163.446Z" fill="#F9E74F"/>
<defs>
<filter id="filter0_b_52_2" x="-4" y="-4" width="205" height="63" filterUnits="userSpaceOnUse" color-interpolation-filters="sRGB">
<feFlood flood-opacity="0" result="BackgroundImageFix"/>
<feGaussianBlur in="BackgroundImage" stdDeviation="2"/>
<feComposite in2="SourceAlpha" operator="in" result="effect1_backgroundBlur_52_2"/>
<feBlend mode="normal" in="SourceGraphic" in2="effect1_backgroundBlur_52_2" result="shape"/>
</filter>
<filter id="filter1_d_52_2" x="24" y="9" width="41" height="45" filterUnits="userSpaceOnUse" color-interpolation-filters="sRGB">
<feFlood flood-opacity="0" result="BackgroundImageFix"/>
<feColorMatrix in="SourceAlpha" type="matrix" values="0 0 0 0 0 0 0 0 0 0 0 0 0 0 0 0 0 0 127 0" result="hardAlpha"/>
<feOffset dy="4"/>
<feGaussianBlur stdDeviation="2"/>
<feComposite in2="hardAlpha" operator="out"/>
<feColorMatrix type="matrix" values="0 0 0 0 0 0 0 0 0 0 0 0 0 0 0 0 0 0 0.25 0"/>
<feBlend mode="normal" in2="BackgroundImageFix" result="effect1_dropShadow_52_2"/>
<feBlend mode="normal" in="SourceGraphic" in2="effect1_dropShadow_52_2" result="shape"/>
</filter>
</defs>
</svg>
