<svg width="420" height="700" viewBox="0 0 420 700" fill="none" xmlns="http://www.w3.org/2000/svg">
<rect x="1.5" y="1.5" width="417" height="697" rx="18.5" fill="black"/>
<rect x="21" y="122" width="167" height="53" rx="9" fill="white" stroke="#FADF38" stroke-width="2"/>
<rect x="21" y="189" width="167" height="53" rx="9" fill="white" stroke="#FADF38" stroke-width="2"/>
<rect x="232" y="122" width="167" height="53" rx="9" fill="white" stroke="#FADF38" stroke-width="2"/>
<rect x="232" y="189" width="167" height="53" rx="9" fill="white" stroke="#FADF38" stroke-width="2"/>
<rect x="20" y="94" width="18" height="18" rx="5" fill="white"/>
<rect x="21" y="548" width="18" height="18" rx="5" fill="white"/>
<path d="M122.557 55.2727C122.557 57.1761 122.196 58.7955 121.474 60.1307C120.759 61.4659 119.781 62.4858 118.543 63.1903C117.31 63.8892 115.923 64.2386 114.384 64.2386C112.832 64.2386 111.44 63.8864 110.207 63.1818C108.974 62.4773 108 61.4574 107.284 60.1222C106.568 58.7869 106.21 57.1705 106.21 55.2727C106.21 53.3693 106.568 51.75 107.284 50.4148C108 49.0795 108.974 48.0625 110.207 47.3636C111.44 46.6591 112.832 46.3068 114.384 46.3068C115.923 46.3068 117.31 46.6591 118.543 47.3636C119.781 48.0625 120.759 49.0795 121.474 50.4148C122.196 51.75 122.557 53.3693 122.557 55.2727ZM118.815 55.2727C118.815 54.0398 118.631 53 118.261 52.1534C117.898 51.3068 117.384 50.6648 116.719 50.2273C116.054 49.7898 115.276 49.571 114.384 49.571C113.491 49.571 112.713 49.7898 112.048 50.2273C111.384 50.6648 110.866 51.3068 110.497 52.1534C110.134 53 109.952 54.0398 109.952 55.2727C109.952 56.5057 110.134 57.5455 110.497 58.392C110.866 59.2386 111.384 59.8807 112.048 60.3182C112.713 60.7557 113.491 60.9744 114.384 60.9744C115.276 60.9744 116.054 60.7557 116.719 60.3182C117.384 59.8807 117.898 59.2386 118.261 58.392C118.631 57.5455 118.815 56.5057 118.815 55.2727ZM125.29 64V46.5455H132.279C133.563 46.5455 134.634 46.7358 135.492 47.1165C136.35 47.4972 136.995 48.0256 137.427 48.7017C137.859 49.3722 138.075 50.1449 138.075 51.0199C138.075 51.7017 137.938 52.3011 137.665 52.8182C137.393 53.3295 137.018 53.75 136.54 54.0795C136.069 54.4034 135.529 54.6335 134.921 54.7699V54.9403C135.586 54.9687 136.208 55.1562 136.788 55.5028C137.373 55.8494 137.847 56.3352 138.211 56.9602C138.575 57.5795 138.756 58.3182 138.756 59.1761C138.756 60.1023 138.526 60.929 138.066 61.6562C137.612 62.3778 136.938 62.9489 136.046 63.3693C135.154 63.7898 134.055 64 132.748 64H125.29ZM128.981 60.983H131.989C133.018 60.983 133.768 60.7869 134.239 60.3949C134.711 59.9972 134.947 59.4687 134.947 58.8097C134.947 58.3267 134.83 57.9006 134.597 57.5312C134.364 57.1619 134.032 56.8722 133.6 56.6619C133.174 56.4517 132.665 56.3466 132.075 56.3466H128.981V60.983ZM128.981 53.8494H131.717C132.222 53.8494 132.671 53.7614 133.063 53.5852C133.461 53.4034 133.773 53.1477 134.001 52.8182C134.234 52.4886 134.35 52.0938 134.35 51.6335C134.35 51.0028 134.126 50.4943 133.677 50.108C133.234 49.7216 132.603 49.5284 131.785 49.5284H128.981V53.8494ZM148.146 46.5455H151.794V58.7159C151.794 59.8409 151.541 60.8182 151.036 61.6477C150.536 62.4773 149.839 63.1165 148.947 63.5653C148.055 64.0142 147.018 64.2386 145.837 64.2386C144.786 64.2386 143.831 64.054 142.973 63.6847C142.121 63.3097 141.445 62.7415 140.945 61.9801C140.445 61.2131 140.197 60.25 140.203 59.0909H143.876C143.888 59.5511 143.982 59.946 144.158 60.2756C144.339 60.5994 144.587 60.8494 144.899 61.0256C145.217 61.196 145.592 61.2812 146.024 61.2812C146.479 61.2812 146.862 61.1847 147.175 60.9915C147.493 60.7926 147.734 60.5028 147.899 60.1222C148.064 59.7415 148.146 59.2727 148.146 58.7159V46.5455ZM154.845 64V46.5455H166.607V49.5881H158.536V53.7472H166.001V56.7898H158.536V60.9574H166.641V64H154.845ZM184.941 52.6562H181.208C181.14 52.1733 181.001 51.7443 180.79 51.3693C180.58 50.9886 180.31 50.6648 179.981 50.3977C179.651 50.1307 179.271 49.9261 178.839 49.7841C178.413 49.642 177.95 49.571 177.45 49.571C176.546 49.571 175.759 49.7955 175.089 50.2443C174.418 50.6875 173.898 51.3352 173.529 52.1875C173.16 53.0341 172.975 54.0625 172.975 55.2727C172.975 56.517 173.16 57.5625 173.529 58.4091C173.904 59.2557 174.427 59.8949 175.097 60.3267C175.768 60.7585 176.543 60.9744 177.424 60.9744C177.918 60.9744 178.376 60.9091 178.796 60.7784C179.222 60.6477 179.6 60.4574 179.93 60.2074C180.259 59.9517 180.532 59.642 180.748 59.2784C180.969 58.9148 181.123 58.5 181.208 58.0341L184.941 58.0511C184.844 58.8523 184.603 59.625 184.217 60.3693C183.836 61.108 183.322 61.7699 182.674 62.3551C182.032 62.9347 181.265 63.3949 180.373 63.7358C179.487 64.071 178.484 64.2386 177.364 64.2386C175.808 64.2386 174.415 63.8864 173.188 63.1818C171.967 62.4773 171.001 61.4574 170.29 60.1222C169.586 58.7869 169.234 57.1705 169.234 55.2727C169.234 53.3693 169.592 51.75 170.308 50.4148C171.023 49.0795 171.995 48.0625 173.222 47.3636C174.45 46.6591 175.83 46.3068 177.364 46.3068C178.376 46.3068 179.313 46.4489 180.177 46.733C181.046 47.017 181.816 47.4318 182.487 47.9773C183.157 48.517 183.702 49.179 184.123 49.9631C184.549 50.7472 184.822 51.6449 184.941 52.6562ZM186.923 49.5881V46.5455H201.258V49.5881H195.914V64H192.266V49.5881H186.923Z" fill="white"/>
<path d="M212.327 46.5455L216.545 59.8068H216.707L220.935 46.5455H225.026L219.009 64H214.253L208.227 46.5455H212.327ZM227.126 64V46.5455H238.888V49.5881H230.817V53.7472H238.283V56.7898H230.817V60.9574H238.922V64H227.126ZM241.822 64V46.5455H245.512V53.7472H253.004V46.5455H256.685V64H253.004V56.7898H245.512V64H241.822ZM263.418 46.5455V64H259.728V46.5455H263.418ZM281.855 52.6562H278.122C278.054 52.1733 277.915 51.7443 277.705 51.3693C277.494 50.9886 277.224 50.6648 276.895 50.3977C276.565 50.1307 276.185 49.9261 275.753 49.7841C275.327 49.642 274.864 49.571 274.364 49.571C273.46 49.571 272.673 49.7955 272.003 50.2443C271.332 50.6875 270.813 51.3352 270.443 52.1875C270.074 53.0341 269.889 54.0625 269.889 55.2727C269.889 56.517 270.074 57.5625 270.443 58.4091C270.818 59.2557 271.341 59.8949 272.011 60.3267C272.682 60.7585 273.457 60.9744 274.338 60.9744C274.832 60.9744 275.29 60.9091 275.71 60.7784C276.136 60.6477 276.514 60.4574 276.844 60.2074C277.173 59.9517 277.446 59.642 277.662 59.2784C277.884 58.9148 278.037 58.5 278.122 58.0341L281.855 58.0511C281.759 58.8523 281.517 59.625 281.131 60.3693C280.75 61.108 280.236 61.7699 279.588 62.3551C278.946 62.9347 278.179 63.3949 277.287 63.7358C276.401 64.071 275.398 64.2386 274.278 64.2386C272.722 64.2386 271.33 63.8864 270.102 63.1818C268.881 62.4773 267.915 61.4574 267.205 60.1222C266.5 58.7869 266.148 57.1705 266.148 55.2727C266.148 53.3693 266.506 51.75 267.222 50.4148C267.938 49.0795 268.909 48.0625 270.136 47.3636C271.364 46.6591 272.744 46.3068 274.278 46.3068C275.29 46.3068 276.227 46.4489 277.091 46.733C277.96 47.017 278.73 47.4318 279.401 47.9773C280.071 48.517 280.616 49.179 281.037 49.9631C281.463 50.7472 281.736 51.6449 281.855 52.6562ZM284.501 64V46.5455H288.192V60.9574H295.675V64H284.501ZM298.119 64V46.5455H309.88V49.5881H301.809V53.7472H309.275V56.7898H301.809V60.9574H309.914V64H298.119Z" fill="#FADF38"/>
<path d="M26.0114 141V129.364H30.6705C31.5265 129.364 32.2405 129.491 32.8125 129.744C33.3845 129.998 33.8144 130.35 34.1023 130.801C34.3902 131.248 34.5341 131.763 34.5341 132.347C34.5341 132.801 34.4432 133.201 34.2614 133.545C34.0795 133.886 33.8295 134.167 33.5114 134.386C33.197 134.602 32.8371 134.756 32.4318 134.847V134.96C32.875 134.979 33.2898 135.104 33.6761 135.335C34.0663 135.566 34.3826 135.89 34.625 136.307C34.8674 136.72 34.9886 137.212 34.9886 137.784C34.9886 138.402 34.8352 138.953 34.5284 139.438C34.2254 139.919 33.7765 140.299 33.1818 140.58C32.5871 140.86 31.8542 141 30.983 141H26.0114ZM28.4716 138.989H30.4773C31.1629 138.989 31.6629 138.858 31.9773 138.597C32.2917 138.331 32.4489 137.979 32.4489 137.54C32.4489 137.218 32.3712 136.934 32.2159 136.688C32.0606 136.441 31.839 136.248 31.5511 136.108C31.267 135.968 30.928 135.898 30.5341 135.898H28.4716V138.989ZM28.4716 134.233H30.2955C30.6326 134.233 30.9318 134.174 31.1932 134.057C31.4583 133.936 31.6667 133.765 31.8182 133.545C31.9735 133.326 32.0511 133.062 32.0511 132.756C32.0511 132.335 31.9015 131.996 31.6023 131.739C31.3068 131.481 30.8864 131.352 30.3409 131.352H28.4716V134.233ZM36.5895 141V129.364H41.1804C42.0592 129.364 42.8092 129.521 43.4304 129.835C44.0554 130.146 44.5308 130.587 44.8565 131.159C45.1861 131.727 45.3509 132.396 45.3509 133.165C45.3509 133.937 45.1842 134.602 44.8509 135.159C44.5175 135.712 44.0346 136.136 43.402 136.432C42.7732 136.727 42.0118 136.875 41.1179 136.875H38.044V134.898H40.7202C41.1899 134.898 41.58 134.833 41.8906 134.705C42.2012 134.576 42.4323 134.383 42.5838 134.125C42.7391 133.867 42.8168 133.547 42.8168 133.165C42.8168 132.778 42.7391 132.453 42.5838 132.188C42.4323 131.922 42.1993 131.722 41.8849 131.585C41.5743 131.445 41.1823 131.375 40.7088 131.375H39.0497V141H36.5895ZM42.8736 135.705L45.7656 141H43.0497L40.2202 135.705H42.8736ZM49.0952 141H46.4588L50.4759 129.364H53.6463L57.6577 141H55.0213L52.1065 132.023H52.0156L49.0952 141ZM48.9304 136.426H55.1577V138.347H48.9304V136.426ZM68.7912 129.364V141H66.6662L61.6037 133.676H61.5185V141H59.0582V129.364H61.2173L66.2401 136.682H66.3423V129.364H68.7912ZM74.9489 141H70.8239V129.364H74.983C76.1534 129.364 77.161 129.597 78.0057 130.062C78.8504 130.525 79.5 131.189 79.9545 132.057C80.4129 132.924 80.642 133.962 80.642 135.17C80.642 136.383 80.4129 137.424 79.9545 138.295C79.5 139.167 78.8466 139.835 77.9943 140.301C77.1458 140.767 76.1307 141 74.9489 141ZM73.2841 138.892H74.8466C75.5739 138.892 76.1856 138.763 76.6818 138.506C77.1818 138.244 77.5568 137.841 77.8068 137.295C78.0606 136.746 78.1875 136.038 78.1875 135.17C78.1875 134.311 78.0606 133.608 77.8068 133.062C77.5568 132.517 77.1837 132.116 76.6875 131.858C76.1913 131.6 75.5795 131.472 74.8523 131.472H73.2841V138.892ZM83.8338 139.648C83.4588 139.648 83.1368 139.515 82.8679 139.25C82.6027 138.985 82.4702 138.663 82.4702 138.284C82.4702 137.913 82.6027 137.595 82.8679 137.33C83.1368 137.064 83.4588 136.932 83.8338 136.932C84.1974 136.932 84.5156 137.064 84.7884 137.33C85.0611 137.595 85.1974 137.913 85.1974 138.284C85.1974 138.534 85.133 138.763 85.0043 138.972C84.8793 139.176 84.7145 139.341 84.5099 139.466C84.3054 139.587 84.08 139.648 83.8338 139.648ZM83.8338 133.938C83.4588 133.938 83.1368 133.805 82.8679 133.54C82.6027 133.275 82.4702 132.953 82.4702 132.574C82.4702 132.203 82.6027 131.886 82.8679 131.625C83.1368 131.36 83.4588 131.227 83.8338 131.227C84.1974 131.227 84.5156 131.36 84.7884 131.625C85.0611 131.886 85.1974 132.203 85.1974 132.574C85.1974 132.828 85.133 133.059 85.0043 133.267C84.8793 133.472 84.7145 133.634 84.5099 133.756C84.3054 133.877 84.08 133.938 83.8338 133.938Z" fill="#4E3C3C"/>
<path d="M26.0114 196.364H29.0455L32.25 204.182H32.3864L35.5909 196.364H38.625V208H36.2386V200.426H36.142L33.1307 207.943H31.5057L28.4943 200.398H28.3977V208H26.0114V196.364ZM51.3452 202.182C51.3452 203.451 51.1046 204.53 50.6236 205.42C50.1463 206.311 49.4948 206.991 48.669 207.46C47.8471 207.926 46.9228 208.159 45.8963 208.159C44.8622 208.159 43.9342 207.924 43.1122 207.455C42.2902 206.985 41.6406 206.305 41.1634 205.415C40.6861 204.525 40.4474 203.447 40.4474 202.182C40.4474 200.913 40.6861 199.833 41.1634 198.943C41.6406 198.053 42.2902 197.375 43.1122 196.909C43.9342 196.439 44.8622 196.205 45.8963 196.205C46.9228 196.205 47.8471 196.439 48.669 196.909C49.4948 197.375 50.1463 198.053 50.6236 198.943C51.1046 199.833 51.3452 200.913 51.3452 202.182ZM48.8509 202.182C48.8509 201.36 48.7277 200.667 48.4815 200.102C48.2391 199.538 47.8963 199.11 47.4531 198.818C47.0099 198.527 46.491 198.381 45.8963 198.381C45.3016 198.381 44.7827 198.527 44.3395 198.818C43.8963 199.11 43.5516 199.538 43.3054 200.102C43.063 200.667 42.9418 201.36 42.9418 202.182C42.9418 203.004 43.063 203.697 43.3054 204.261C43.5516 204.826 43.8963 205.254 44.3395 205.545C44.7827 205.837 45.3016 205.983 45.8963 205.983C46.491 205.983 47.0099 205.837 47.4531 205.545C47.8963 205.254 48.2391 204.826 48.4815 204.261C48.7277 203.697 48.8509 203.004 48.8509 202.182ZM57.2926 208H53.1676V196.364H57.3267C58.4972 196.364 59.5047 196.597 60.3494 197.062C61.1941 197.525 61.8438 198.189 62.2983 199.057C62.7566 199.924 62.9858 200.962 62.9858 202.17C62.9858 203.383 62.7566 204.424 62.2983 205.295C61.8438 206.167 61.1903 206.835 60.3381 207.301C59.4896 207.767 58.4744 208 57.2926 208ZM55.6278 205.892H57.1903C57.9176 205.892 58.5294 205.763 59.0256 205.506C59.5256 205.244 59.9006 204.841 60.1506 204.295C60.4044 203.746 60.5312 203.038 60.5312 202.17C60.5312 201.311 60.4044 200.608 60.1506 200.062C59.9006 199.517 59.5275 199.116 59.0312 198.858C58.535 198.6 57.9233 198.472 57.196 198.472H55.6278V205.892ZM64.8082 208V196.364H72.6491V198.392H67.2685V201.165H72.2457V203.193H67.2685V205.972H72.6719V208H64.8082ZM74.6051 208V196.364H77.0653V205.972H82.054V208H74.6051ZM85.0526 206.648C84.6776 206.648 84.3556 206.515 84.0866 206.25C83.8215 205.985 83.6889 205.663 83.6889 205.284C83.6889 204.913 83.8215 204.595 84.0866 204.33C84.3556 204.064 84.6776 203.932 85.0526 203.932C85.4162 203.932 85.7344 204.064 86.0071 204.33C86.2798 204.595 86.4162 204.913 86.4162 205.284C86.4162 205.534 86.3518 205.763 86.223 205.972C86.098 206.176 85.9332 206.341 85.7287 206.466C85.5241 206.587 85.2988 206.648 85.0526 206.648ZM85.0526 200.938C84.6776 200.938 84.3556 200.805 84.0866 200.54C83.8215 200.275 83.6889 199.953 83.6889 199.574C83.6889 199.203 83.8215 198.886 84.0866 198.625C84.3556 198.36 84.6776 198.227 85.0526 198.227C85.4162 198.227 85.7344 198.36 86.0071 198.625C86.2798 198.886 86.4162 199.203 86.4162 199.574C86.4162 199.828 86.3518 200.059 86.223 200.267C86.098 200.472 85.9332 200.634 85.7287 200.756C85.5241 200.877 85.2988 200.938 85.0526 200.938Z" fill="#4E3C3C"/>
<path d="M246.278 197.438H243.79C243.744 197.116 243.652 196.83 243.511 196.58C243.371 196.326 243.191 196.11 242.972 195.932C242.752 195.754 242.498 195.617 242.21 195.523C241.926 195.428 241.617 195.381 241.284 195.381C240.682 195.381 240.157 195.53 239.71 195.83C239.263 196.125 238.917 196.557 238.67 197.125C238.424 197.689 238.301 198.375 238.301 199.182C238.301 200.011 238.424 200.708 238.67 201.273C238.92 201.837 239.269 202.263 239.716 202.551C240.163 202.839 240.68 202.983 241.267 202.983C241.597 202.983 241.902 202.939 242.182 202.852C242.466 202.765 242.718 202.638 242.938 202.472C243.157 202.301 243.339 202.095 243.483 201.852C243.631 201.61 243.733 201.333 243.79 201.023L246.278 201.034C246.214 201.568 246.053 202.083 245.795 202.58C245.542 203.072 245.199 203.513 244.767 203.903C244.339 204.29 243.828 204.597 243.233 204.824C242.642 205.047 241.973 205.159 241.227 205.159C240.189 205.159 239.261 204.924 238.443 204.455C237.629 203.985 236.985 203.305 236.511 202.415C236.042 201.525 235.807 200.447 235.807 199.182C235.807 197.913 236.045 196.833 236.523 195.943C237 195.053 237.648 194.375 238.466 193.909C239.284 193.439 240.205 193.205 241.227 193.205C241.902 193.205 242.527 193.299 243.102 193.489C243.682 193.678 244.195 193.955 244.642 194.318C245.089 194.678 245.453 195.119 245.733 195.642C246.017 196.165 246.199 196.763 246.278 197.438ZM258.736 199.182C258.736 200.451 258.495 201.53 258.014 202.42C257.537 203.311 256.885 203.991 256.06 204.46C255.238 204.926 254.313 205.159 253.287 205.159C252.253 205.159 251.325 204.924 250.503 204.455C249.681 203.985 249.031 203.305 248.554 202.415C248.077 201.525 247.838 200.447 247.838 199.182C247.838 197.913 248.077 196.833 248.554 195.943C249.031 195.053 249.681 194.375 250.503 193.909C251.325 193.439 252.253 193.205 253.287 193.205C254.313 193.205 255.238 193.439 256.06 193.909C256.885 194.375 257.537 195.053 258.014 195.943C258.495 196.833 258.736 197.913 258.736 199.182ZM256.241 199.182C256.241 198.36 256.118 197.667 255.872 197.102C255.63 196.538 255.287 196.11 254.844 195.818C254.401 195.527 253.882 195.381 253.287 195.381C252.692 195.381 252.173 195.527 251.73 195.818C251.287 196.11 250.942 196.538 250.696 197.102C250.454 197.667 250.332 198.36 250.332 199.182C250.332 200.004 250.454 200.697 250.696 201.261C250.942 201.826 251.287 202.254 251.73 202.545C252.173 202.837 252.692 202.983 253.287 202.983C253.882 202.983 254.401 202.837 254.844 202.545C255.287 202.254 255.63 201.826 255.872 201.261C256.118 200.697 256.241 200.004 256.241 199.182ZM260.558 205V193.364H263.018V202.972H268.007V205H260.558ZM279.876 199.182C279.876 200.451 279.636 201.53 279.155 202.42C278.678 203.311 278.026 203.991 277.2 204.46C276.378 204.926 275.454 205.159 274.428 205.159C273.393 205.159 272.465 204.924 271.643 204.455C270.821 203.985 270.172 203.305 269.695 202.415C269.217 201.525 268.979 200.447 268.979 199.182C268.979 197.913 269.217 196.833 269.695 195.943C270.172 195.053 270.821 194.375 271.643 193.909C272.465 193.439 273.393 193.205 274.428 193.205C275.454 193.205 276.378 193.439 277.2 193.909C278.026 194.375 278.678 195.053 279.155 195.943C279.636 196.833 279.876 197.913 279.876 199.182ZM277.382 199.182C277.382 198.36 277.259 197.667 277.013 197.102C276.77 196.538 276.428 196.11 275.984 195.818C275.541 195.527 275.022 195.381 274.428 195.381C273.833 195.381 273.314 195.527 272.871 195.818C272.428 196.11 272.083 196.538 271.837 197.102C271.594 197.667 271.473 198.36 271.473 199.182C271.473 200.004 271.594 200.697 271.837 201.261C272.083 201.826 272.428 202.254 272.871 202.545C273.314 202.837 273.833 202.983 274.428 202.983C275.022 202.983 275.541 202.837 275.984 202.545C276.428 202.254 276.77 201.826 277.013 201.261C277.259 200.697 277.382 200.004 277.382 199.182ZM281.699 205V193.364H286.29C287.169 193.364 287.919 193.521 288.54 193.835C289.165 194.146 289.64 194.587 289.966 195.159C290.295 195.727 290.46 196.396 290.46 197.165C290.46 197.937 290.294 198.602 289.96 199.159C289.627 199.712 289.144 200.136 288.511 200.432C287.883 200.727 287.121 200.875 286.227 200.875H283.153V198.898H285.83C286.299 198.898 286.689 198.833 287 198.705C287.311 198.576 287.542 198.383 287.693 198.125C287.848 197.867 287.926 197.547 287.926 197.165C287.926 196.778 287.848 196.453 287.693 196.188C287.542 195.922 287.309 195.722 286.994 195.585C286.684 195.445 286.292 195.375 285.818 195.375H284.159V205H281.699ZM287.983 199.705L290.875 205H288.159L285.33 199.705H287.983ZM293.568 203.648C293.193 203.648 292.871 203.515 292.602 203.25C292.337 202.985 292.205 202.663 292.205 202.284C292.205 201.913 292.337 201.595 292.602 201.33C292.871 201.064 293.193 200.932 293.568 200.932C293.932 200.932 294.25 201.064 294.523 201.33C294.795 201.595 294.932 201.913 294.932 202.284C294.932 202.534 294.867 202.763 294.739 202.972C294.614 203.176 294.449 203.341 294.244 203.466C294.04 203.587 293.814 203.648 293.568 203.648ZM293.568 197.938C293.193 197.938 292.871 197.805 292.602 197.54C292.337 197.275 292.205 196.953 292.205 196.574C292.205 196.203 292.337 195.886 292.602 195.625C292.871 195.36 293.193 195.227 293.568 195.227C293.932 195.227 294.25 195.36 294.523 195.625C294.795 195.886 294.932 196.203 294.932 196.574C294.932 196.828 294.867 197.059 294.739 197.267C294.614 197.472 294.449 197.634 294.244 197.756C294.04 197.877 293.814 197.938 293.568 197.938Z" fill="#4E3C3C"/>
<path d="M236.011 141V129.364H240.602C241.481 129.364 242.231 129.521 242.852 129.835C243.477 130.146 243.953 130.587 244.278 131.159C244.608 131.727 244.773 132.396 244.773 133.165C244.773 133.937 244.606 134.602 244.273 135.159C243.939 135.712 243.456 136.136 242.824 136.432C242.195 136.727 241.434 136.875 240.54 136.875H237.466V134.898H240.142C240.612 134.898 241.002 134.833 241.312 134.705C241.623 134.576 241.854 134.383 242.006 134.125C242.161 133.867 242.239 133.547 242.239 133.165C242.239 132.778 242.161 132.453 242.006 132.188C241.854 131.922 241.621 131.722 241.307 131.585C240.996 131.445 240.604 131.375 240.131 131.375H238.472V141H236.011ZM242.295 135.705L245.188 141H242.472L239.642 135.705H242.295ZM246.511 141V129.364H254.352V131.392H248.972V134.165H253.949V136.193H248.972V138.972H254.375V141H246.511ZM256.308 141V129.364H264.013V131.392H258.768V134.165H263.501V136.193H258.768V141H256.308ZM265.668 141V129.364H273.509V131.392H268.128V134.165H273.105V136.193H268.128V138.972H273.531V141H265.668ZM275.464 141V129.364H280.055C280.934 129.364 281.684 129.521 282.305 129.835C282.93 130.146 283.406 130.587 283.732 131.159C284.061 131.727 284.226 132.396 284.226 133.165C284.226 133.937 284.059 134.602 283.726 135.159C283.393 135.712 282.91 136.136 282.277 136.432C281.648 136.727 280.887 136.875 279.993 136.875H276.919V134.898H279.595C280.065 134.898 280.455 134.833 280.766 134.705C281.076 134.576 281.307 134.383 281.459 134.125C281.614 133.867 281.692 133.547 281.692 133.165C281.692 132.778 281.614 132.453 281.459 132.188C281.307 131.922 281.074 131.722 280.76 131.585C280.449 131.445 280.057 131.375 279.584 131.375H277.925V141H275.464ZM281.749 135.705L284.641 141H281.925L279.095 135.705H281.749ZM285.964 141V129.364H293.805V131.392H288.425V134.165H293.402V136.193H288.425V138.972H293.828V141H285.964ZM305.494 129.364V141H303.369L298.307 133.676H298.222V141H295.761V129.364H297.92L302.943 136.682H303.045V129.364H305.494ZM317.794 133.438H315.305C315.26 133.116 315.167 132.83 315.027 132.58C314.887 132.326 314.707 132.11 314.487 131.932C314.268 131.754 314.014 131.617 313.726 131.523C313.442 131.428 313.133 131.381 312.8 131.381C312.197 131.381 311.673 131.53 311.226 131.83C310.779 132.125 310.432 132.557 310.186 133.125C309.94 133.689 309.817 134.375 309.817 135.182C309.817 136.011 309.94 136.708 310.186 137.273C310.436 137.837 310.785 138.263 311.232 138.551C311.679 138.839 312.196 138.983 312.783 138.983C313.112 138.983 313.417 138.939 313.697 138.852C313.982 138.765 314.233 138.638 314.453 138.472C314.673 138.301 314.855 138.095 314.999 137.852C315.146 137.61 315.249 137.333 315.305 137.023L317.794 137.034C317.73 137.568 317.569 138.083 317.311 138.58C317.057 139.072 316.714 139.513 316.283 139.903C315.855 140.29 315.343 140.597 314.749 140.824C314.158 141.047 313.489 141.159 312.743 141.159C311.705 141.159 310.777 140.924 309.959 140.455C309.144 139.985 308.5 139.305 308.027 138.415C307.557 137.525 307.322 136.447 307.322 135.182C307.322 133.913 307.561 132.833 308.038 131.943C308.516 131.053 309.163 130.375 309.982 129.909C310.8 129.439 311.72 129.205 312.743 129.205C313.417 129.205 314.042 129.299 314.618 129.489C315.197 129.678 315.711 129.955 316.158 130.318C316.605 130.678 316.968 131.119 317.249 131.642C317.533 132.165 317.714 132.763 317.794 133.438ZM319.558 141V129.364H327.399V131.392H322.018V134.165H326.996V136.193H322.018V138.972H327.422V141H319.558ZM330.724 139.648C330.349 139.648 330.027 139.515 329.759 139.25C329.493 138.985 329.361 138.663 329.361 138.284C329.361 137.913 329.493 137.595 329.759 137.33C330.027 137.064 330.349 136.932 330.724 136.932C331.088 136.932 331.406 137.064 331.679 137.33C331.952 137.595 332.088 137.913 332.088 138.284C332.088 138.534 332.024 138.763 331.895 138.972C331.77 139.176 331.605 139.341 331.401 139.466C331.196 139.587 330.971 139.648 330.724 139.648ZM330.724 133.938C330.349 133.938 330.027 133.805 329.759 133.54C329.493 133.275 329.361 132.953 329.361 132.574C329.361 132.203 329.493 131.886 329.759 131.625C330.027 131.36 330.349 131.227 330.724 131.227C331.088 131.227 331.406 131.36 331.679 131.625C331.952 131.886 332.088 132.203 332.088 132.574C332.088 132.828 332.024 133.059 331.895 133.267C331.77 133.472 331.605 133.634 331.401 133.756C331.196 133.877 330.971 133.938 330.724 133.938Z" fill="#4E3C3C"/>
<path d="M46.4091 552.364H48.0909L52.0455 562.023H52.1818L56.1364 552.364H57.8182V564H56.5V555.159H56.3864L52.75 564H51.4773L47.8409 555.159H47.7273V564H46.4091V552.364ZM60.6435 564V552.364H67.6662V553.614H62.0526V557.545H67.3026V558.795H62.0526V562.75H67.7571V564H60.6435ZM69.5696 553.614V552.364H78.2969V553.614H74.6378V564H73.2287V553.614H69.5696ZM80.4716 564V552.364H81.8807V557.545H88.0852V552.364H89.4943V564H88.0852V558.795H81.8807V564H80.4716ZM102.134 558.182C102.134 559.409 101.912 560.47 101.469 561.364C101.026 562.258 100.418 562.947 99.6449 563.432C98.8722 563.917 97.9896 564.159 96.9972 564.159C96.0047 564.159 95.1222 563.917 94.3494 563.432C93.5767 562.947 92.9688 562.258 92.5256 561.364C92.0824 560.47 91.8608 559.409 91.8608 558.182C91.8608 556.955 92.0824 555.894 92.5256 555C92.9688 554.106 93.5767 553.417 94.3494 552.932C95.1222 552.447 96.0047 552.205 96.9972 552.205C97.9896 552.205 98.8722 552.447 99.6449 552.932C100.418 553.417 101.026 554.106 101.469 555C101.912 555.894 102.134 556.955 102.134 558.182ZM100.77 558.182C100.77 557.174 100.601 556.324 100.264 555.631C99.9309 554.938 99.4782 554.413 98.9062 554.057C98.3381 553.701 97.7017 553.523 96.9972 553.523C96.2926 553.523 95.6544 553.701 95.0824 554.057C94.5142 554.413 94.0616 554.938 93.7244 555.631C93.3911 556.324 93.2244 557.174 93.2244 558.182C93.2244 559.189 93.3911 560.04 93.7244 560.733C94.0616 561.426 94.5142 561.951 95.0824 562.307C95.6544 562.663 96.2926 562.841 96.9972 562.841C97.7017 562.841 98.3381 562.663 98.9062 562.307C99.4782 561.951 99.9309 561.426 100.264 560.733C100.601 560.04 100.77 559.189 100.77 558.182ZM108.094 564H104.503V552.364H108.253C109.382 552.364 110.348 552.597 111.151 553.062C111.954 553.525 112.569 554.189 112.997 555.057C113.425 555.92 113.639 556.955 113.639 558.159C113.639 559.371 113.423 560.415 112.991 561.29C112.56 562.161 111.931 562.831 111.105 563.301C110.279 563.767 109.276 564 108.094 564ZM105.912 562.75H108.003C108.965 562.75 109.762 562.564 110.395 562.193C111.027 561.822 111.499 561.294 111.81 560.608C112.12 559.922 112.276 559.106 112.276 558.159C112.276 557.22 112.122 556.411 111.815 555.733C111.509 555.051 111.05 554.528 110.44 554.165C109.83 553.797 109.071 553.614 108.162 553.614H105.912V562.75ZM122.366 555.273C122.298 554.697 122.022 554.25 121.537 553.932C121.052 553.614 120.457 553.455 119.753 553.455C119.238 553.455 118.787 553.538 118.401 553.705C118.018 553.871 117.719 554.1 117.503 554.392C117.291 554.684 117.185 555.015 117.185 555.386C117.185 555.697 117.259 555.964 117.406 556.188C117.558 556.407 117.751 556.591 117.986 556.739C118.221 556.883 118.467 557.002 118.724 557.097C118.982 557.187 119.219 557.261 119.435 557.318L120.616 557.636C120.92 557.716 121.257 557.826 121.628 557.966C122.003 558.106 122.361 558.297 122.702 558.54C123.046 558.778 123.33 559.085 123.554 559.46C123.777 559.835 123.889 560.295 123.889 560.841C123.889 561.47 123.724 562.038 123.395 562.545C123.069 563.053 122.592 563.456 121.963 563.756C121.338 564.055 120.579 564.205 119.685 564.205C118.851 564.205 118.13 564.07 117.52 563.801C116.914 563.532 116.437 563.157 116.088 562.676C115.743 562.195 115.548 561.636 115.503 561H116.957C116.995 561.439 117.143 561.803 117.401 562.091C117.662 562.375 117.991 562.587 118.389 562.727C118.791 562.864 119.223 562.932 119.685 562.932C120.223 562.932 120.705 562.845 121.134 562.67C121.562 562.492 121.901 562.246 122.151 561.932C122.401 561.614 122.526 561.242 122.526 560.818C122.526 560.432 122.418 560.117 122.202 559.875C121.986 559.633 121.702 559.436 121.349 559.284C120.997 559.133 120.616 559 120.207 558.886L118.776 558.477C117.866 558.216 117.147 557.843 116.616 557.358C116.086 556.873 115.821 556.239 115.821 555.455C115.821 554.803 115.997 554.235 116.349 553.75C116.705 553.261 117.183 552.883 117.781 552.614C118.384 552.341 119.056 552.205 119.798 552.205C120.548 552.205 121.215 552.339 121.798 552.608C122.382 552.873 122.844 553.237 123.185 553.699C123.529 554.161 123.711 554.686 123.73 555.273H122.366ZM127.001 562.511C126.721 562.511 126.481 562.411 126.28 562.21C126.079 562.009 125.979 561.769 125.979 561.489C125.979 561.208 126.079 560.968 126.28 560.767C126.481 560.566 126.721 560.466 127.001 560.466C127.282 560.466 127.522 560.566 127.723 560.767C127.924 560.968 128.024 561.208 128.024 561.489C128.024 561.674 127.977 561.845 127.882 562C127.791 562.155 127.668 562.28 127.513 562.375C127.361 562.466 127.191 562.511 127.001 562.511ZM127.001 556.625C126.721 556.625 126.481 556.525 126.28 556.324C126.079 556.123 125.979 555.883 125.979 555.602C125.979 555.322 126.079 555.081 126.28 554.881C126.481 554.68 126.721 554.58 127.001 554.58C127.282 554.58 127.522 554.68 127.723 554.881C127.924 555.081 128.024 555.322 128.024 555.602C128.024 555.788 127.977 555.958 127.882 556.114C127.791 556.269 127.668 556.394 127.513 556.489C127.361 556.58 127.191 556.625 127.001 556.625Z" fill="white"/>
<path d="M45.8864 110H44.4091L48.6818 98.3636H50.1364L54.4091 110H52.9318L49.4545 100.205H49.3636L45.8864 110ZM46.4318 105.455H52.3864V106.705H46.4318V105.455ZM54.2259 99.6136V98.3636H62.9531V99.6136H59.294V110H57.8849V99.6136H54.2259ZM64.4915 99.6136V98.3636H73.2188V99.6136H69.5597V110H68.1506V99.6136H64.4915ZM75.3935 110V98.3636H79.3253C80.2344 98.3636 80.9806 98.5189 81.5639 98.8295C82.1473 99.1364 82.5791 99.5587 82.8594 100.097C83.1397 100.634 83.2798 101.246 83.2798 101.932C83.2798 102.617 83.1397 103.225 82.8594 103.756C82.5791 104.286 82.1491 104.703 81.5696 105.006C80.9901 105.305 80.2495 105.455 79.348 105.455H76.1662V104.182H79.3026C79.9238 104.182 80.4238 104.091 80.8026 103.909C81.1851 103.727 81.4616 103.47 81.6321 103.136C81.8063 102.799 81.8935 102.398 81.8935 101.932C81.8935 101.466 81.8063 101.059 81.6321 100.71C81.4579 100.362 81.1795 100.093 80.7969 99.9034C80.4143 99.7102 79.9086 99.6136 79.2798 99.6136H76.8026V110H75.3935ZM80.8707 104.773L83.7344 110H82.098L79.2798 104.773H80.8707ZM87.0369 98.3636V110H85.6278V98.3636H87.0369ZM89.8622 110V98.3636H93.9304C94.741 98.3636 95.4096 98.5038 95.9361 98.7841C96.4626 99.0606 96.8546 99.4337 97.1122 99.9034C97.3698 100.369 97.4986 100.886 97.4986 101.455C97.4986 101.955 97.4096 102.367 97.2315 102.693C97.0573 103.019 96.8262 103.277 96.5384 103.466C96.2543 103.655 95.9455 103.795 95.6122 103.886V104C95.9683 104.023 96.3262 104.148 96.6861 104.375C97.0459 104.602 97.3471 104.928 97.5895 105.352C97.8319 105.777 97.9531 106.295 97.9531 106.909C97.9531 107.492 97.8205 108.017 97.5554 108.483C97.2902 108.949 96.8717 109.318 96.2997 109.591C95.7277 109.864 94.9834 110 94.0668 110H89.8622ZM91.2713 108.75H94.0668C94.9872 108.75 95.6406 108.572 96.027 108.216C96.4171 107.856 96.6122 107.42 96.6122 106.909C96.6122 106.515 96.5118 106.152 96.3111 105.818C96.1103 105.481 95.8243 105.212 95.4531 105.011C95.0819 104.807 94.6425 104.705 94.1349 104.705H91.2713V108.75ZM91.2713 103.477H93.8849C94.3092 103.477 94.6918 103.394 95.0327 103.227C95.3774 103.061 95.6501 102.826 95.8509 102.523C96.0554 102.22 96.1577 101.864 96.1577 101.455C96.1577 100.943 95.9796 100.509 95.6236 100.153C95.2675 99.7936 94.7031 99.6136 93.9304 99.6136H91.2713V103.477ZM107.905 98.3636H109.314V106.068C109.314 106.864 109.126 107.574 108.751 108.199C108.38 108.82 107.856 109.311 107.178 109.67C106.5 110.027 105.704 110.205 104.791 110.205C103.878 110.205 103.083 110.027 102.405 109.67C101.727 109.311 101.2 108.82 100.825 108.199C100.454 107.574 100.268 106.864 100.268 106.068V98.3636H101.678V105.955C101.678 106.523 101.803 107.028 102.053 107.472C102.303 107.911 102.659 108.258 103.121 108.511C103.587 108.761 104.143 108.886 104.791 108.886C105.439 108.886 105.996 108.761 106.462 108.511C106.928 108.258 107.284 107.911 107.53 107.472C107.78 107.028 107.905 106.523 107.905 105.955V98.3636ZM111.491 99.6136V98.3636H120.219V99.6136H116.56V110H115.151V99.6136H111.491ZM122.393 110V98.3636H129.416V99.6136H123.803V103.545H129.053V104.795H123.803V108.75H129.507V110H122.393ZM132.751 108.511C132.471 108.511 132.231 108.411 132.03 108.21C131.829 108.009 131.729 107.769 131.729 107.489C131.729 107.208 131.829 106.968 132.03 106.767C132.231 106.566 132.471 106.466 132.751 106.466C133.032 106.466 133.272 106.566 133.473 106.767C133.674 106.968 133.774 107.208 133.774 107.489C133.774 107.674 133.727 107.845 133.632 108C133.541 108.155 133.418 108.28 133.263 108.375C133.111 108.466 132.941 108.511 132.751 108.511ZM132.751 102.625C132.471 102.625 132.231 102.525 132.03 102.324C131.829 102.123 131.729 101.883 131.729 101.602C131.729 101.322 131.829 101.081 132.03 100.881C132.231 100.68 132.471 100.58 132.751 100.58C133.032 100.58 133.272 100.68 133.473 100.881C133.674 101.081 133.774 101.322 133.774 101.602C133.774 101.788 133.727 101.958 133.632 102.114C133.541 102.269 133.418 102.394 133.263 102.489C133.111 102.58 132.941 102.625 132.751 102.625Z" fill="white"/>
<rect x="1.5" y="1.5" width="417" height="697" rx="18.5" stroke="#FADF38" stroke-width="3"/>
</svg>
