<svg width="68" height="69" viewBox="0 0 68 69" fill="none" xmlns="http://www.w3.org/2000/svg">
<circle cx="34" cy="34" r="33.5" fill="#FADF38"/>
<circle cx="34" cy="34" r="33.5" stroke="black"/>
<circle cx="34" cy="34" r="33.5" stroke="black" stroke-opacity="0.2"/>
<path d="M31.1667 43.5L22.6667 35L31.1667 43.5ZM22.6667 35L31.1667 26.5L22.6667 35ZM22.6667 35H45.3333H22.6667ZM8.5 35C8.5 31.6513 9.15958 28.3354 10.4411 25.2416C11.7226 22.1478 13.6009 19.3367 15.9688 16.9688C18.3367 14.6009 21.1478 12.7226 24.2416 11.4411C27.3354 10.1596 30.6513 9.5 34 9.5C37.3487 9.5 40.6646 10.1596 43.7584 11.4411C46.8522 12.7226 49.6633 14.6009 52.0312 16.9688C54.3991 19.3367 56.2774 22.1478 57.5589 25.2416C58.8404 28.3354 59.5 31.6513 59.5 35C59.5 41.763 56.8134 48.249 52.0312 53.0312C47.249 57.8134 40.763 60.5 34 60.5C27.237 60.5 20.751 57.8134 15.9688 53.0312C11.1866 48.249 8.5 41.763 8.5 35V35Z" stroke="black" stroke-width="2" stroke-linecap="round" stroke-linejoin="round"/>
</svg>
