<svg width="50" height="50" viewBox="0 0 50 50" fill="none" xmlns="http://www.w3.org/2000/svg">
<circle cx="25" cy="25" r="24.5" fill="#726868" stroke="#FFDC00"/>
<path d="M36.4425 29.1925C34.3966 30.0152 32.1539 30.2186 29.9933 29.7772C27.8328 29.3357 25.8495 28.2691 24.2902 26.7098C22.7309 25.1505 21.6643 23.1673 21.2229 21.0067C20.7815 18.8461 20.9848 16.6035 21.8075 14.5575C19.3847 15.5334 17.3767 17.3217 16.1279 19.6159C14.8791 21.9101 14.4673 24.5672 14.9629 27.1317C15.4586 29.6963 16.8309 32.0086 18.8446 33.6722C20.8583 35.3358 23.388 36.2472 26 36.25C28.2462 36.2501 30.441 35.578 32.3019 34.3202C34.1629 33.0625 35.605 31.2767 36.4425 29.1925Z" stroke="white" stroke-width="2" stroke-linecap="round" stroke-linejoin="round"/>
</svg>
