<svg width="68" height="68" viewBox="0 0 68 68" fill="none" xmlns="http://www.w3.org/2000/svg">
<circle cx="34" cy="34" r="33.5" fill="#FADF38"/>
<circle cx="34" cy="34" r="33.5" stroke="black"/>
<circle cx="34" cy="34" r="33.5" stroke="black" stroke-opacity="0.2"/>
<path d="M36.8333 25.5L45.3333 34L36.8333 25.5ZM45.3333 34L36.8333 42.5L45.3333 34ZM45.3333 34H22.6667H45.3333ZM59.5 34C59.5 37.3487 58.8404 40.6646 57.5589 43.7584C56.2774 46.8522 54.3991 49.6633 52.0312 52.0312C49.6633 54.3991 46.8522 56.2774 43.7584 57.5589C40.6646 58.8404 37.3487 59.5 34 59.5C30.6513 59.5 27.3354 58.8404 24.2416 57.5589C21.1478 56.2774 18.3367 54.3991 15.9688 52.0312C13.6009 49.6633 11.7226 46.8522 10.4411 43.7584C9.15958 40.6646 8.5 37.3487 8.5 34C8.5 27.237 11.1866 20.751 15.9688 15.9688C20.751 11.1866 27.237 8.5 34 8.5C40.763 8.5 47.249 11.1866 52.0312 15.9688C56.8134 20.751 59.5 27.237 59.5 34Z" stroke="black" stroke-width="2" stroke-linecap="round" stroke-linejoin="round"/>
</svg>
