<svg width="50" height="50" viewBox="0 0 50 50" fill="none" xmlns="http://www.w3.org/2000/svg">
<circle cx="25" cy="25" r="24.5" fill="white" stroke="#FADF38"/>
<path d="M25 13.75V15V13.75ZM25 35V36.25V35ZM36.25 25H35H36.25ZM15 25H13.75H15ZM32.955 32.955L32.0712 32.0712L32.955 32.955ZM17.9287 17.9287L17.045 17.045L17.9287 17.9287ZM32.955 17.045L32.0712 17.9287L32.955 17.045ZM17.9287 32.0712L17.045 32.955L17.9287 32.0712ZM30 25C30 26.3261 29.4732 27.5979 28.5355 28.5355C27.5979 29.4732 26.3261 30 25 30C23.6739 30 22.4021 29.4732 21.4645 28.5355C20.5268 27.5979 20 26.3261 20 25C20 23.6739 20.5268 22.4021 21.4645 21.4645C22.4021 20.5268 23.6739 20 25 20C26.3261 20 27.5979 20.5268 28.5355 21.4645C29.4732 22.4021 30 23.6739 30 25V25Z" stroke="black" stroke-width="2" stroke-linecap="round" stroke-linejoin="round"/>
</svg>
