<svg width="68" height="68" viewBox="0 0 68 68" fill="none" xmlns="http://www.w3.org/2000/svg">
<circle cx="34" cy="34" r="34" fill="#FADF38"/>
<path d="M28.0833 25.375V41.625V25.375ZM38.9167 25.375V41.625V25.375ZM57.875 33.5C57.875 36.701 57.2445 39.8706 56.0196 42.8279C54.7946 45.7852 52.9992 48.4723 50.7357 50.7357C48.4723 52.9992 45.7852 54.7946 42.8279 56.0196C39.8706 57.2445 36.701 57.875 33.5 57.875C30.299 57.875 27.1294 57.2445 24.1721 56.0196C21.2148 54.7946 18.5277 52.9992 16.2643 50.7357C14.0008 48.4723 12.2054 45.7852 10.9804 42.8279C9.75548 39.8706 9.125 36.701 9.125 33.5C9.125 27.0353 11.6931 20.8355 16.2643 16.2643C20.8355 11.6931 27.0353 9.125 33.5 9.125C39.9647 9.125 46.1645 11.6931 50.7357 16.2643C55.3069 20.8355 57.875 27.0353 57.875 33.5Z" stroke="black" stroke-width="2" stroke-linecap="round" stroke-linejoin="round"/>
</svg>
