<svg width="68" height="68" viewBox="0 0 68 68" fill="none" xmlns="http://www.w3.org/2000/svg">
<circle cx="34" cy="34" r="34" fill="#FADF38"/>
<path d="M40.9533 31.2467L32.2948 25.4725C31.8865 25.2001 31.4119 25.0438 30.9217 25.0202C30.4315 24.9966 29.9441 25.1067 29.5116 25.3387C29.0791 25.5707 28.7177 25.9158 28.4662 26.3372C28.2146 26.7586 28.0823 27.2405 28.0833 27.7312V39.2769C28.0832 39.7672 28.2163 40.2483 28.4682 40.669C28.7202 41.0896 29.0816 41.434 29.514 41.6653C29.9463 41.8966 30.4333 42.0062 30.9231 41.9824C31.4128 41.9586 31.8869 41.8023 32.2948 41.5302L40.9533 35.756C41.3242 35.5087 41.6284 35.1736 41.8387 34.7805C42.0491 34.3875 42.1591 33.9485 42.1591 33.5027C42.1591 33.0569 42.0491 32.618 41.8387 32.2249C41.6284 31.8318 41.3242 31.4967 40.9533 31.2494V31.2467Z" stroke="black" stroke-width="2" stroke-linecap="round" stroke-linejoin="round"/>
<path d="M57.875 33.5C57.875 36.701 57.2445 39.8706 56.0196 42.8279C54.7946 45.7852 52.9992 48.4723 50.7357 50.7357C48.4723 52.9992 45.7852 54.7946 42.8279 56.0196C39.8706 57.2445 36.701 57.875 33.5 57.875C30.299 57.875 27.1294 57.2445 24.1721 56.0196C21.2148 54.7946 18.5277 52.9992 16.2643 50.7357C14.0008 48.4723 12.2054 45.7852 10.9804 42.8279C9.75548 39.8706 9.125 36.701 9.125 33.5C9.125 27.0353 11.6931 20.8355 16.2643 16.2643C20.8355 11.6931 27.0353 9.125 33.5 9.125C39.9647 9.125 46.1645 11.6931 50.7357 16.2643C55.3069 20.8355 57.875 27.0353 57.875 33.5Z" stroke="black" stroke-width="2" stroke-linecap="round" stroke-linejoin="round"/>
</svg>
