<svg width="68" height="68" viewBox="0 0 68 68" fill="none" xmlns="http://www.w3.org/2000/svg">
<circle cx="34" cy="34" r="34" fill="#FADF38"/>
<path d="M50.7358 49.7358L16.2642 15.2642M50.7358 49.7358C55.3071 45.1646 57.8751 38.9647 57.8751 32.5C57.8751 26.0353 55.3071 19.8354 50.7358 15.2642C46.1646 10.6929 39.9647 8.12485 33.5 8.12485C27.0353 8.12485 20.8354 10.6929 16.2642 15.2642L50.7358 49.7358ZM50.7358 49.7358C46.1646 54.3071 39.9647 56.8751 33.5 56.8751C27.0353 56.8751 20.8354 54.3071 16.2642 49.7358C11.6929 45.1646 9.12485 38.9647 9.12485 32.5C9.12485 26.0353 11.6929 19.8354 16.2642 15.2642L50.7358 49.7358Z" stroke="black" stroke-width="2" stroke-linecap="round" stroke-linejoin="round"/>
</svg>
