<svg width="74" height="72" viewBox="0 0 74 72" fill="none" xmlns="http://www.w3.org/2000/svg">
<rect x="1" y="1" width="72" height="70" rx="35" fill="black" stroke="#05FF00" stroke-width="2"/>
<path d="M51.7599 29.8111H42.8821C42.7637 28.8996 42.5211 28.0769 42.1541 27.343C41.7872 26.6091 41.3018 25.9818 40.6982 25.4609C40.0945 24.9401 39.3783 24.5436 38.5497 24.2713C37.733 23.9872 36.8274 23.8452 35.8331 23.8452C34.0694 23.8452 32.5483 24.2772 31.2699 25.1413C30.0033 26.0054 29.0268 27.2543 28.3402 28.8878C27.6655 30.5213 27.3281 32.4981 27.3281 34.8182C27.3281 37.233 27.6714 39.2571 28.358 40.8906C29.0563 42.5123 30.0329 43.7375 31.2876 44.5661C32.5542 45.3828 34.0516 45.7912 35.7798 45.7912C36.7505 45.7912 37.6323 45.6669 38.4254 45.4183C39.2304 45.1697 39.9347 44.8087 40.5384 44.3352C41.1539 43.8499 41.657 43.264 42.0476 42.5774C42.45 41.879 42.7282 41.0919 42.8821 40.2159L51.7599 40.2692C51.6061 41.879 51.1385 43.4652 50.3572 45.0277C49.5878 46.5902 48.5284 48.0166 47.179 49.3068C45.8295 50.5852 44.1842 51.6032 42.2429 52.3608C40.3134 53.1184 38.0999 53.4972 35.6023 53.4972C32.3116 53.4972 29.3641 52.7751 26.7599 51.331C24.1676 49.875 22.1198 47.7562 20.6165 44.9744C19.1132 42.1927 18.3615 38.8073 18.3615 34.8182C18.3615 30.8172 19.125 27.4259 20.652 24.6442C22.179 21.8625 24.2446 19.7495 26.8487 18.3054C29.4529 16.8613 32.3707 16.1392 35.6023 16.1392C37.804 16.1392 39.84 16.447 41.7102 17.0625C43.5805 17.6662 45.2259 18.554 46.6463 19.7259C48.0668 20.8859 49.2209 22.3123 50.1087 24.005C50.9964 25.6977 51.5469 27.633 51.7599 29.8111Z" fill="#05FF00"/>
</svg>
