<svg width="70" height="68" viewBox="0 0 70 68" fill="none" xmlns="http://www.w3.org/2000/svg">
<rect x="1" y="1" width="68" height="66" rx="33" fill="black" stroke="#05FF00" stroke-width="2"/>
<path d="M34.5 37.4167L38.4167 33.5L34.5 37.4167ZM38.4167 33.5L42.3333 29.5833L38.4167 33.5ZM38.4167 33.5L34.5 29.5833L38.4167 33.5ZM38.4167 33.5L42.3333 37.4167L38.4167 33.5ZM16.875 33.5L29.4357 46.0608C30.1701 46.7953 31.1662 47.2081 32.2048 47.2083H48.2083C49.2471 47.2083 50.2433 46.7957 50.9778 46.0612C51.7124 45.3267 52.125 44.3304 52.125 43.2917V23.7083C52.125 22.6696 51.7124 21.6734 50.9778 20.9388C50.2433 20.2043 49.2471 19.7917 48.2083 19.7917H32.2048C31.1662 19.7919 30.1701 20.2047 29.4357 20.9393L16.875 33.5Z" stroke="#05FF00" stroke-width="5" stroke-linecap="round" stroke-linejoin="round"/>
</svg>
