<svg width="70" height="71" viewBox="0 0 70 71" fill="none" xmlns="http://www.w3.org/2000/svg">
<rect x="1.5" y="1.5" width="67" height="65" rx="32.5" fill="#C4C4C4" fill-opacity="0.57" stroke="#05FF00" stroke-width="3"/>
<path d="M24.391 47V41.9432L35.0018 32.6534C35.7972 31.9337 36.4743 31.2756 37.033 30.679C37.5917 30.0729 38.0179 29.4669 38.3114 28.8608C38.605 28.2453 38.7518 27.5777 38.7518 26.858C38.7518 26.053 38.5766 25.3665 38.2262 24.7983C37.8758 24.2206 37.3929 23.7756 36.7773 23.4631C36.1618 23.1506 35.4563 22.9943 34.6609 22.9943C33.8559 22.9943 33.1504 23.16 32.5444 23.4915C31.9383 23.8134 31.4648 24.2822 31.1239 24.8977C30.7925 25.5133 30.6268 26.2614 30.6268 27.142H23.9648C23.9648 25.1629 24.4099 23.4536 25.3001 22.0142C26.1902 20.5748 27.4402 19.4669 29.0501 18.6903C30.6694 17.9044 32.5491 17.5114 34.6893 17.5114C36.8957 17.5114 38.8133 17.8807 40.4421 18.6193C42.0709 19.358 43.3304 20.3902 44.2205 21.7159C45.1201 23.0322 45.57 24.5616 45.57 26.304C45.57 27.4119 45.3474 28.5104 44.9023 29.5994C44.4573 30.6884 43.6571 31.8911 42.5018 33.2074C41.3559 34.5237 39.7272 36.1004 37.6154 37.9375L34.1353 41.1477V41.3324H45.9251V47H24.391Z" fill="black"/>
</svg>
