<svg width="70" height="67" viewBox="0 0 70 67" fill="none" xmlns="http://www.w3.org/2000/svg">
<rect x="1.5" y="1.5" width="67" height="63.3" rx="31.65" fill="#C4C4C4" fill-opacity="0.57" stroke="#05FF00" stroke-width="3"/>
<path d="M34.6367 47.3977C32.5155 47.3977 30.631 47.0142 28.9833 46.2472C27.3356 45.4801 26.0335 44.4242 25.0771 43.0795C24.1301 41.7348 23.6377 40.1913 23.5998 38.4489H30.418C30.4748 39.5189 30.9104 40.3807 31.7248 41.0341C32.5392 41.678 33.5098 42 34.6367 42C35.5174 42 36.2987 41.8059 36.9805 41.4176C37.6623 41.0294 38.1973 40.4848 38.5856 39.7841C38.9738 39.0739 39.1632 38.2595 39.1538 37.3409C39.1632 36.4034 38.9691 35.5843 38.5714 34.8835C38.1831 34.1828 37.6433 33.6383 36.9521 33.25C36.2702 32.8523 35.4843 32.6534 34.5941 32.6534C33.7513 32.6439 32.9511 32.8286 32.1935 33.2074C31.4454 33.5862 30.8772 34.1023 30.489 34.7557L24.2816 33.5909L25.5458 17.9091H44.2106V23.5767H31.3271L30.6594 30.4375H30.8299C31.3129 29.6326 32.0894 28.9697 33.1594 28.4489C34.239 27.9186 35.4653 27.6534 36.8384 27.6534C38.5808 27.6534 40.1339 28.0606 41.4975 28.875C42.8706 29.6799 43.9502 30.7973 44.7362 32.2273C45.5316 33.6572 45.9293 35.2955 45.9293 37.142C45.9293 39.1402 45.4558 40.911 44.5089 42.4545C43.5714 43.9981 42.2551 45.2102 40.56 46.0909C38.8744 46.9621 36.9 47.3977 34.6367 47.3977Z" fill="black"/>
</svg>
