<svg width="70" height="68" viewBox="0 0 70 68" fill="none" xmlns="http://www.w3.org/2000/svg">
<rect x="1.5" y="1.5" width="67" height="65" rx="32.5" fill="#C4C4C4" fill-opacity="0.57" stroke="#05FF00" stroke-width="3"/>
<path d="M35.6396 19.5114C37.2305 19.5114 38.7504 19.7718 40.1992 20.2926C41.6481 20.804 42.9407 21.6231 44.0771 22.75C45.2134 23.8674 46.1083 25.34 46.7617 27.1676C47.4151 28.9953 47.7418 31.2254 47.7418 33.858C47.7513 36.2822 47.4672 38.4555 46.8896 40.3778C46.3119 42.2907 45.4833 43.9195 44.4038 45.2642C43.3337 46.6089 42.0458 47.6364 40.5401 48.3466C39.0344 49.0473 37.3536 49.3977 35.4975 49.3977C33.4521 49.3977 31.6481 49.0047 30.0856 48.2188C28.5326 47.4233 27.2873 46.3532 26.3498 45.0085C25.4218 43.6638 24.8678 42.1581 24.6879 40.4915H31.6055C31.8233 41.4574 32.2826 42.1866 32.9833 42.679C33.6841 43.1619 34.5221 43.4034 35.4975 43.4034C37.2778 43.4034 38.6083 42.6316 39.489 41.0881C40.3697 39.5445 40.81 37.447 40.81 34.7955H40.6396C40.2324 35.6667 39.6547 36.4148 38.9066 37.0398C38.168 37.6648 37.311 38.143 36.3356 38.4744C35.3602 38.8059 34.3327 38.9716 33.2532 38.9716C31.5108 38.9716 29.9719 38.5739 28.6367 37.7784C27.311 36.983 26.2693 35.8892 25.5117 34.4972C24.7636 33.1051 24.3848 31.5142 24.3754 29.7244C24.3659 27.7169 24.8346 25.946 25.7816 24.4119C26.7286 22.8684 28.0496 21.6657 29.7447 20.804C31.4397 19.9328 33.4047 19.5019 35.6396 19.5114ZM35.6822 24.9091C34.811 24.9091 34.0344 25.1127 33.3526 25.5199C32.6803 25.9271 32.15 26.4763 31.7617 27.1676C31.3735 27.8589 31.1841 28.6354 31.1935 29.4972C31.203 30.3589 31.3971 31.1354 31.7759 31.8267C32.1642 32.518 32.6897 33.0672 33.3526 33.4744C34.025 33.8816 34.792 34.0852 35.6538 34.0852C36.2977 34.0852 36.8943 33.9669 37.4435 33.7301C37.9928 33.4934 38.471 33.1667 38.8782 32.75C39.2854 32.3239 39.6026 31.8314 39.8299 31.2727C40.0666 30.714 40.1803 30.1174 40.1708 29.483C40.1613 28.6402 39.9625 27.8731 39.5742 27.1818C39.186 26.4905 38.6509 25.9413 37.9691 25.5341C37.2968 25.1174 36.5344 24.9091 35.6822 24.9091Z" fill="black"/>
</svg>
