<svg width="70" height="71" viewBox="0 0 70 71" fill="none" xmlns="http://www.w3.org/2000/svg">
<rect x="1.5" y="1.5" width="67" height="65" rx="32.5" fill="#C4C4C4" fill-opacity="0.57" stroke="#05FF00" stroke-width="3"/>
<path d="M35.3498 50.3977C33.7589 50.3977 32.2343 50.142 30.7759 49.6307C29.3176 49.1098 28.0202 48.286 26.8839 47.1591C25.7475 46.0227 24.8526 44.536 24.1992 42.6989C23.5458 40.8523 23.2238 38.6032 23.2333 35.9517C23.2428 33.5559 23.5363 31.4062 24.114 29.5028C24.6916 27.59 25.5155 25.9659 26.5856 24.6307C27.6651 23.2955 28.953 22.2775 30.4492 21.5767C31.9549 20.8665 33.6358 20.5114 35.4918 20.5114C37.5278 20.5114 39.3223 20.9091 40.8754 21.7045C42.4379 22.4905 43.6879 23.5511 44.6254 24.8864C45.5629 26.2121 46.1168 27.6894 46.2873 29.3182H39.3697C39.1613 28.3996 38.7021 27.7036 37.9918 27.2301C37.2911 26.7472 36.4577 26.5057 35.4918 26.5057C33.7115 26.5057 32.381 27.2775 31.5004 28.821C30.6291 30.3646 30.1841 32.429 30.1651 35.0142H30.3498C30.7475 34.143 31.3204 33.3949 32.0685 32.7699C32.8166 32.1449 33.6737 31.6667 34.6396 31.3352C35.6149 30.9943 36.6471 30.8239 37.7362 30.8239C39.4786 30.8239 41.0174 31.2263 42.3526 32.0312C43.6879 32.8362 44.7343 33.9394 45.4918 35.3409C46.2494 36.733 46.6235 38.3286 46.614 40.1278C46.6235 42.1544 46.15 43.9441 45.1935 45.4972C44.2371 47.0407 42.9113 48.2434 41.2163 49.1051C39.5307 49.9669 37.5752 50.3977 35.3498 50.3977ZM35.3072 45C36.1689 45 36.9407 44.7964 37.6225 44.3892C38.3043 43.982 38.8394 43.428 39.2276 42.7273C39.6159 42.0265 39.8053 41.2358 39.7958 40.3551C39.8053 39.465 39.6159 38.6742 39.2276 37.983C38.8488 37.2917 38.3185 36.7424 37.6367 36.3352C36.9644 35.928 36.1926 35.7244 35.3214 35.7244C34.6869 35.7244 34.0951 35.8428 33.5458 36.0795C32.9966 36.3163 32.5183 36.6477 32.1112 37.0739C31.7134 37.4905 31.4009 37.983 31.1737 38.5511C30.9464 39.1098 30.828 39.7159 30.8185 40.3693C30.828 41.2311 31.0269 42.0123 31.4151 42.7131C31.8034 43.4138 32.3337 43.9725 33.006 44.3892C33.6784 44.7964 34.4454 45 35.3072 45Z" fill="black"/>
</svg>
