<svg width="70" height="68" viewBox="0 0 70 68" fill="none" xmlns="http://www.w3.org/2000/svg">
<rect x="1.5" y="1.5" width="67" height="65" rx="32.5" fill="#C4C4C4" fill-opacity="0.57" stroke="#05FF00" stroke-width="3"/>
<path d="M34.9964 47.7102C32.4586 47.7102 30.2711 47.1089 28.4339 45.9062C26.5968 44.6941 25.1811 42.9564 24.1868 40.6932C23.1925 38.4205 22.7 35.6884 22.7095 32.4972C22.719 29.3059 23.2161 26.5975 24.201 24.3722C25.1953 22.1373 26.6063 20.4375 28.4339 19.2727C30.2711 18.0985 32.4586 17.5114 34.9964 17.5114C37.5343 17.5114 39.7218 18.0985 41.5589 19.2727C43.4055 20.4375 44.826 22.1373 45.8203 24.3722C46.8146 26.607 47.3071 29.3153 47.2976 32.4972C47.2976 35.6979 46.8004 38.4347 45.8061 40.7074C44.8118 42.9801 43.3961 44.7178 41.5589 45.9205C39.7313 47.1136 37.5438 47.7102 34.9964 47.7102ZM34.9964 41.9574C36.5116 41.9574 37.7379 41.1856 38.6754 39.642C39.6129 38.089 40.0769 35.7074 40.0675 32.4972C40.0675 30.3949 39.8544 28.6619 39.4283 27.2983C39.0021 25.9252 38.4103 24.9025 37.6527 24.2301C36.8951 23.5578 36.0097 23.2216 34.9964 23.2216C33.4908 23.2216 32.2739 23.9839 31.3459 25.5085C30.4179 27.0237 29.9491 29.3532 29.9396 32.4972C29.9302 34.6278 30.1338 36.3939 30.5504 37.7955C30.9766 39.197 31.5732 40.2434 32.3402 40.9347C33.1072 41.6165 33.9927 41.9574 34.9964 41.9574Z" fill="black"/>
</svg>
