<svg width="70" height="68" viewBox="0 0 70 68" fill="none" xmlns="http://www.w3.org/2000/svg">
<rect x="1.5" y="1.5" width="67" height="65" rx="32.5" fill="#C4C4C4" fill-opacity="0.57" stroke="#05FF00" stroke-width="3"/>
<path d="M34.4929 48.3977C32.2296 48.3977 30.2079 48.0379 28.4276 47.3182C26.6567 46.589 25.2647 45.6042 24.2514 44.3636C23.2476 43.1136 22.7457 41.7027 22.7457 40.1307C22.7457 38.928 23.0346 37.8248 23.6122 36.821C24.1899 35.8172 24.9711 34.9839 25.956 34.321C26.9503 33.6487 28.0582 33.2178 29.2798 33.0284V32.8011C27.6795 32.5076 26.3679 31.7642 25.3452 30.571C24.3319 29.3778 23.8253 27.9811 23.8253 26.3807C23.8253 24.8655 24.2846 23.5161 25.2031 22.3324C26.1312 21.1487 27.3954 20.2159 28.9957 19.5341C30.6056 18.8523 32.438 18.5114 34.4929 18.5114C36.5478 18.5114 38.3755 18.8523 39.9759 19.5341C41.5857 20.2159 42.8499 21.1487 43.7685 22.3324C44.6965 23.5161 45.1605 24.8655 45.1605 26.3807C45.1605 27.9905 44.6444 29.392 43.6122 30.5852C42.5895 31.7689 41.2874 32.5076 39.706 32.8011V33.0284C40.9181 33.2178 42.0166 33.6487 43.0014 34.321C43.9957 34.9839 44.7817 35.8172 45.3594 36.821C45.9465 37.8248 46.2401 38.928 46.2401 40.1307C46.2401 41.7027 45.7334 43.1136 44.7202 44.3636C43.7069 45.6042 42.3149 46.589 40.544 47.3182C38.7827 48.0379 36.7656 48.3977 34.4929 48.3977ZM34.4929 43.4119C35.3546 43.4119 36.1122 43.2509 36.7656 42.929C37.419 42.5975 37.9304 42.1383 38.2997 41.5511C38.6785 40.964 38.8679 40.3011 38.8679 39.5625C38.8679 38.8049 38.6785 38.1326 38.2997 37.5455C37.9209 36.9583 37.4001 36.4991 36.7372 36.1676C36.0838 35.8267 35.3357 35.6562 34.4929 35.6562C33.6596 35.6562 32.9115 35.8267 32.2486 36.1676C31.5857 36.4991 31.0649 36.9583 30.6861 37.5455C30.3073 38.1326 30.1179 38.8049 30.1179 39.5625C30.1179 40.3011 30.3026 40.964 30.6719 41.5511C31.0507 42.1288 31.5668 42.5833 32.2202 42.9148C32.883 43.2462 33.6406 43.4119 34.4929 43.4119ZM34.4929 30.6989C35.2315 30.6989 35.8849 30.5473 36.4531 30.2443C37.0308 29.9413 37.4806 29.5199 37.8026 28.9801C38.134 28.4403 38.2997 27.8295 38.2997 27.1477C38.2997 26.4659 38.134 25.8646 37.8026 25.3438C37.4806 24.8229 37.0355 24.4157 36.4673 24.1222C35.8991 23.8191 35.241 23.6676 34.4929 23.6676C33.7543 23.6676 33.0961 23.8191 32.5185 24.1222C31.9408 24.4157 31.491 24.8229 31.169 25.3438C30.8471 25.8646 30.6861 26.4659 30.6861 27.1477C30.6861 27.8295 30.8471 28.4403 31.169 28.9801C31.5005 29.5104 31.955 29.9318 32.5327 30.2443C33.1103 30.5473 33.7637 30.6989 34.4929 30.6989Z" fill="black"/>
</svg>
