<svg width="70" height="68" viewBox="0 0 70 68" fill="none" xmlns="http://www.w3.org/2000/svg">
<rect x="1" y="1" width="68" height="66" rx="33" fill="black" stroke="#05FF00" stroke-width="2"/>
<path d="M36.6719 46.1818V44.2642C36.6719 42.7727 36.9915 41.3937 37.6307 40.1271C38.2817 38.8606 39.2228 37.8426 40.4538 37.0732C41.6849 36.3037 43.1882 35.919 44.9638 35.919C46.7749 35.919 48.2959 36.3037 49.527 37.0732C50.7699 37.8307 51.705 38.8428 52.3324 40.1094C52.9716 41.3641 53.2912 42.7491 53.2912 44.2642V46.1818C53.2912 47.6733 52.9716 49.0523 52.3324 50.3189C51.6932 51.5855 50.7521 52.6035 49.5092 53.3729C48.2663 54.1423 46.7512 54.527 44.9638 54.527C43.1645 54.527 41.6494 54.1423 40.4183 53.3729C39.1873 52.6035 38.2521 51.5855 37.6129 50.3189C36.9856 49.0523 36.6719 47.6733 36.6719 46.1818ZM42.3359 44.2642V46.1818C42.3359 46.9394 42.5194 47.6674 42.8864 48.3658C43.2652 49.0642 43.9576 49.4134 44.9638 49.4134C45.9936 49.4134 46.6861 49.076 47.0412 48.4013C47.3963 47.7147 47.5739 46.9749 47.5739 46.1818V44.2642C47.5739 43.4711 47.4022 42.7254 47.0589 42.027C46.7275 41.3168 46.0291 40.9616 44.9638 40.9616C43.9695 40.9616 43.2829 41.3168 42.9041 42.027C42.5253 42.7254 42.3359 43.4711 42.3359 44.2642ZM17.8153 25.3722V23.4545C17.8153 21.9394 18.1409 20.5545 18.7919 19.2997C19.4548 18.0331 20.4018 17.0211 21.6328 16.2635C22.8639 15.4941 24.3554 15.1094 26.1072 15.1094C27.9183 15.1094 29.4394 15.4941 30.6705 16.2635C31.9134 17.0211 32.8544 18.0331 33.4936 19.2997C34.1328 20.5545 34.4524 21.9394 34.4524 23.4545V25.3722C34.4524 26.8873 34.1269 28.2723 33.4759 29.527C32.8366 30.7817 31.8956 31.782 30.6527 32.5277C29.4098 33.2734 27.8947 33.6463 26.1072 33.6463C24.3198 33.6463 22.8047 33.2675 21.5618 32.5099C20.3307 31.7524 19.3956 30.7462 18.7564 29.4915C18.129 28.2367 17.8153 26.8636 17.8153 25.3722ZM23.5327 23.4545V25.3722C23.5327 26.1652 23.7161 26.9051 24.0831 27.5916C24.4619 28.2663 25.1366 28.6037 26.1072 28.6037C27.1489 28.6037 27.8414 28.2663 28.1847 27.5916C28.5398 26.9051 28.7173 26.1652 28.7173 25.3722V23.4545C28.7173 22.6615 28.5516 21.9157 28.2202 21.2173C27.8887 20.5071 27.1844 20.152 26.1072 20.152C25.1129 20.152 24.4323 20.513 24.0653 21.2351C23.7102 21.9571 23.5327 22.697 23.5327 23.4545ZM20.4964 53L45.4964 16.6364H50.3438L25.3438 53H20.4964Z" fill="#05FF00"/>
</svg>
