<svg width="70" height="68" viewBox="0 0 70 68" fill="none" xmlns="http://www.w3.org/2000/svg">
<rect x="1.5" y="1.5" width="67" height="65" rx="32.5" fill="#C4C4C4" fill-opacity="0.57" stroke="#05FF00" stroke-width="3"/>
<path d="M35.3704 47.3977C33.1545 47.3977 31.1895 47.0189 29.4755 46.2614C27.771 45.4943 26.4263 44.4384 25.4414 43.0938C24.4566 41.7491 23.9547 40.2008 23.9357 38.4489H31.0096C31.038 39.0833 31.2416 39.6468 31.6204 40.1392C31.9992 40.6222 32.5153 41.0009 33.1687 41.2756C33.8221 41.5502 34.5655 41.6875 35.3988 41.6875C36.2321 41.6875 36.966 41.5407 37.6005 41.2472C38.2444 40.9441 38.7463 40.5322 39.1062 40.0114C39.466 39.4811 39.6412 38.875 39.6317 38.1932C39.6412 37.5114 39.4471 36.9053 39.0494 36.375C38.6516 35.8447 38.0882 35.4328 37.359 35.1392C36.6393 34.8456 35.7871 34.6989 34.8022 34.6989H31.9755V29.6989H34.8022C35.6639 29.6989 36.4215 29.5568 37.0749 29.2727C37.7378 28.9886 38.2539 28.5909 38.6232 28.0795C38.9925 27.5587 39.1725 26.9621 39.163 26.2898C39.1725 25.6364 39.0162 25.0634 38.6942 24.571C38.3817 24.0691 37.9414 23.6809 37.3732 23.4062C36.8145 23.1316 36.1658 22.9943 35.4272 22.9943C34.6507 22.9943 33.9452 23.1316 33.3107 23.4062C32.6857 23.6809 32.1886 24.0691 31.8192 24.571C31.4499 25.0729 31.2558 25.6553 31.2369 26.3182H24.5181C24.5371 24.5852 25.02 23.0606 25.967 21.7443C26.9139 20.4186 28.2018 19.3816 29.8306 18.6335C31.4689 17.8854 33.3344 17.5114 35.4272 17.5114C37.5105 17.5114 39.3429 17.8759 40.9244 18.6051C42.5058 19.3343 43.7369 20.3286 44.6175 21.5881C45.4982 22.8381 45.9386 24.2538 45.9386 25.8352C45.948 27.4735 45.413 28.8229 44.3335 29.8835C43.2634 30.9441 41.8855 31.5975 40.1999 31.8438V32.071C42.4537 32.3362 44.1535 33.0653 45.2994 34.2585C46.4547 35.4517 47.0276 36.9432 47.0181 38.733C47.0181 40.4186 46.521 41.9148 45.5266 43.2216C44.5418 44.5189 43.1687 45.5417 41.4073 46.2898C39.6554 47.0284 37.6431 47.3977 35.3704 47.3977Z" fill="black"/>
</svg>
